<svg width="410" height="410" viewBox="0 0 410 410" fill="none" xmlns="http://www.w3.org/2000/svg">
<g opacity="0.3">
<g opacity="0.7">
<path d="M147.346 19.2186C135.943 19.2096 124.863 23.0036 115.859 30.0003C106.855 36.997 100.441 46.7966 97.6334 57.8483C82.4625 58.8001 67.9149 64.2314 55.8322 73.4548C43.7495 82.6783 34.6749 95.2791 29.757 109.662C24.8391 124.046 24.2991 139.565 28.2053 154.255C32.1115 168.945 40.2882 182.146 51.7006 192.187C47.5103 199.442 45.1624 207.613 44.8625 215.986C44.5626 224.358 46.3198 232.677 49.9803 240.213C53.6408 247.749 59.0929 254.272 65.8593 259.213C72.6257 264.153 80.5 267.359 88.7928 268.55C85.166 274.491 83.2588 281.321 83.2834 288.281C83.2796 294.512 84.7943 300.651 87.6965 306.165C90.5987 311.679 94.801 316.403 99.9397 319.928C97.0648 326.927 95.7753 334.475 96.1636 342.031C96.552 349.588 98.6085 356.964 102.186 363.631C105.763 370.298 110.772 376.091 116.853 380.592C122.934 385.094 129.937 388.194 137.358 389.668C144.779 391.143 152.434 390.956 159.775 389.121C167.115 387.286 173.958 383.849 179.812 379.056C185.667 374.263 190.387 368.233 193.635 361.399C196.882 354.565 198.577 347.097 198.596 339.531V70.4686C198.596 56.8763 193.196 43.8407 183.585 34.2294C173.974 24.6182 160.938 19.2186 147.346 19.2186Z" fill="#00013A"/>
<path d="M198.594 217.812C233.975 217.812 262.657 189.131 262.657 153.75C262.657 118.369 233.975 89.6874 198.594 89.6874C163.214 89.6874 134.532 118.369 134.532 153.75C134.532 189.131 163.214 217.812 198.594 217.812Z" fill="#F2876A"/>
<path d="M371.563 166.562C378.639 166.562 384.376 160.826 384.376 153.75C384.376 146.674 378.639 140.937 371.563 140.937C364.487 140.937 358.751 146.674 358.751 153.75C358.751 160.826 364.487 166.562 371.563 166.562Z" fill="#D6A243"/>
<path d="M198.594 166.562C205.671 166.562 211.407 160.826 211.407 153.75C211.407 146.674 205.671 140.937 198.594 140.937C191.518 140.937 185.782 146.674 185.782 153.75C185.782 160.826 191.518 166.562 198.594 166.562Z" fill="#D6A243"/>
<path d="M363.299 333.125C362.431 336.082 361.25 338.938 359.776 341.645L370.154 352.023L352.024 370.153L341.646 359.775C338.939 361.249 336.083 362.43 333.126 363.298V377.969H307.501V363.298C304.543 362.43 301.687 361.249 298.98 359.775L288.602 370.153L270.473 352.023L280.851 341.645C279.377 338.938 278.196 336.082 277.327 333.125H262.657V307.5H277.327C278.196 304.543 279.377 301.687 280.851 298.98L270.473 288.602L288.602 270.472L298.98 280.85C301.687 279.376 304.543 278.195 307.501 277.327V262.656H333.126V277.327C336.083 278.195 338.939 279.376 341.646 280.85L352.024 270.472L370.154 288.602L359.776 298.98C361.25 301.687 362.431 304.543 363.299 307.5H377.969V333.125H363.299Z" fill="#D6A243"/>
<path d="M217.813 243.438V307.5C217.803 310.895 216.45 314.148 214.049 316.549C211.649 318.949 208.396 320.302 205.001 320.312H192.188C188.793 320.302 185.54 318.949 183.14 316.549C180.739 314.148 179.386 310.895 179.376 307.5V243.438H217.813Z" fill="#BBA58B"/>
<path d="M288.282 243.438C295.358 243.438 301.094 237.701 301.094 230.625C301.094 223.549 295.358 217.812 288.282 217.812C281.206 217.812 275.469 223.549 275.469 230.625C275.469 237.701 281.206 243.438 288.282 243.438Z" fill="#EC4B98"/>
<path d="M313.907 96.0936C320.983 96.0936 326.719 90.3573 326.719 83.2811C326.719 76.205 320.983 70.4686 313.907 70.4686C306.831 70.4686 301.094 76.205 301.094 83.2811C301.094 90.3573 306.831 96.0936 313.907 96.0936Z" fill="#69B0C9"/>
<path d="M371.564 134.531C367.604 134.547 363.745 135.787 360.516 138.081C357.286 140.374 354.845 143.609 353.524 147.343H268.738C267.951 138.756 265.579 130.389 261.742 122.667L301.852 98.1242C305.244 100.932 309.504 102.478 313.908 102.5C317.879 102.501 321.753 101.272 324.997 98.9818C328.241 96.6916 330.697 93.4528 332.025 89.7106C333.354 85.9684 333.49 81.9065 332.416 78.0835C331.342 74.2604 329.111 70.8639 326.028 68.3608C322.945 65.8578 319.162 64.3711 315.2 64.1053C311.238 63.8395 307.291 64.8075 303.901 66.8763C300.512 68.9451 297.846 72.013 296.271 75.6584C294.696 79.3037 294.289 83.3475 295.106 87.2336L255.041 111.744C249.147 103.8 241.644 97.1884 233.022 92.3403C224.399 87.4922 214.852 84.5166 205.002 83.6077V70.4684C204.958 56.8422 200.089 43.6719 191.26 33.2935C182.43 22.9151 170.21 15.9993 156.767 13.7729C143.324 11.5464 129.526 14.1532 117.822 21.1308C106.118 28.1084 97.2631 39.0058 92.8285 51.8903C77.1652 53.7167 62.3422 59.9527 50.0839 69.8728C37.8255 79.793 28.6356 92.9897 23.5831 107.928C18.5306 122.866 17.8231 138.932 21.5429 154.256C25.2627 169.581 33.257 183.534 44.5959 194.493L43.5645 194C40.1674 201.499 38.4158 209.639 38.4275 217.872C38.4392 226.105 40.2139 234.24 43.6321 241.729C47.0504 249.219 52.033 255.89 58.2448 261.293C64.4566 266.696 71.7534 270.706 79.6445 273.053C76.4697 281.568 75.9963 290.855 78.289 299.648C80.5817 308.442 85.5289 316.315 92.457 322.196C89.9672 330.114 89.2183 338.477 90.2615 346.711C91.3047 354.946 94.1153 362.858 98.5009 369.905C102.886 376.952 108.743 382.968 115.67 387.541C122.598 392.114 130.431 395.136 138.635 396.4C146.839 397.663 155.218 397.139 163.201 394.862C171.183 392.586 178.579 388.611 184.881 383.21C191.184 377.809 196.246 371.11 199.718 363.571C203.191 356.032 204.994 347.831 205.002 339.531V326.718C210.099 326.718 214.987 324.694 218.592 321.089C222.196 317.485 224.221 312.597 224.221 307.5V249.843H237.033V237.031H205.002V223.892C221.056 222.434 236.119 215.491 247.655 204.231L270.403 223.706C268.698 227.993 268.565 232.745 270.03 237.12C271.494 241.495 274.461 245.21 278.404 247.605C282.347 250.001 287.011 250.923 291.569 250.207C296.126 249.491 300.283 247.184 303.302 243.695C306.32 240.206 308.006 235.76 308.059 231.147C308.111 226.534 306.529 222.051 303.591 218.493C300.653 214.936 296.55 212.534 292.01 211.714C287.47 210.894 282.786 211.709 278.789 214.013L255.989 194.493C263.213 184.383 267.614 172.531 268.738 160.156H353.524C354.705 163.469 356.773 166.394 359.503 168.611C362.233 170.829 365.52 172.253 369.005 172.728C372.49 173.204 376.038 172.712 379.262 171.307C382.487 169.903 385.263 167.638 387.288 164.763C389.312 161.887 390.507 158.51 390.743 155C390.978 151.491 390.244 147.985 388.621 144.865C386.998 141.744 384.549 139.13 381.541 137.308C378.533 135.485 375.082 134.525 371.564 134.531ZM313.908 76.8747C315.175 76.8747 316.414 77.2504 317.467 77.9543C318.521 78.6583 319.342 79.6588 319.827 80.8294C320.312 82 320.439 83.2881 320.191 84.5307C319.944 85.7734 319.334 86.9149 318.438 87.8109C317.542 88.7068 316.401 89.3169 315.158 89.5641C313.915 89.8113 312.627 89.6844 311.457 89.1995C310.286 88.7147 309.286 87.8936 308.582 86.8401C307.878 85.7866 307.502 84.548 307.502 83.2809C307.502 81.5819 308.177 79.9525 309.378 78.751C310.58 77.5496 312.209 76.8747 313.908 76.8747ZM255.874 147.343H221.402L250.775 129.406C253.446 135.065 255.169 141.125 255.874 147.343ZM198.596 160.156C197.329 160.156 196.09 159.78 195.037 159.076C193.983 158.372 193.162 157.372 192.677 156.201C192.192 155.031 192.065 153.743 192.313 152.5C192.56 151.257 193.17 150.116 194.066 149.22C194.962 148.324 196.103 147.714 197.346 147.467C198.589 147.219 199.877 147.346 201.047 147.831C202.218 148.316 203.218 149.137 203.922 150.191C204.626 151.244 205.002 152.483 205.002 153.75C205.002 155.449 204.327 157.078 203.126 158.28C201.924 159.481 200.295 160.156 198.596 160.156ZM211.408 307.5C211.408 309.199 210.733 310.828 209.532 312.03C208.33 313.231 206.701 313.906 205.002 313.906H192.189C190.49 313.906 188.861 313.231 187.66 312.03C186.458 310.828 185.783 309.199 185.783 307.5V249.843H211.408V307.5ZM160.158 237.031V249.843H172.971V307.5C172.971 312.597 174.996 317.485 178.6 321.089C182.204 324.694 187.092 326.718 192.189 326.718V339.531C192.189 347.402 190.116 355.135 186.179 361.952C182.243 368.768 176.581 374.428 169.764 378.363C162.947 382.299 155.214 384.37 147.342 384.369C139.471 384.369 131.738 382.296 124.922 378.36C118.105 374.424 112.444 368.763 108.509 361.946C104.573 355.129 102.502 347.396 102.502 339.524C102.502 331.653 104.574 323.92 108.51 317.103C112.446 310.286 118.107 304.626 124.924 300.69L118.518 289.601C110.105 294.499 103.071 301.448 98.0688 309.8C92.677 303.931 89.6863 296.251 89.6895 288.281C89.6995 281.681 91.7422 275.245 95.5397 269.847C99.3372 264.45 104.705 260.353 110.913 258.114L106.602 246.051C98.3751 249.028 91.2042 254.357 85.9802 261.375C79.7832 259.968 73.9582 257.253 68.8956 253.412C63.833 249.571 59.6497 244.693 56.6258 239.104C53.6019 233.515 51.8073 227.344 51.3622 221.005C50.9172 214.665 51.8319 208.304 54.0451 202.348C64.3365 209.691 76.1682 214.588 88.6388 216.665L90.7529 204.032C74.4303 201.24 59.6125 192.788 48.8997 180.16C38.1868 167.533 32.2633 151.536 32.1685 134.976C32.0737 118.417 37.8137 102.353 48.3813 89.6032C58.9489 76.8536 73.669 68.2329 89.9585 65.2538C89.8048 66.977 89.6959 68.7131 89.6959 70.4749C89.6844 77.7686 91.0628 84.9978 93.7574 91.7756L105.667 87.0414C103.231 80.9055 102.179 74.3075 102.588 67.7184C102.997 61.1293 104.855 54.7116 108.03 48.9238C111.206 43.1359 115.62 38.1205 120.958 34.2358C126.296 30.3511 132.426 27.6929 138.91 26.4509C145.393 25.209 152.072 25.4139 158.467 27.0512C164.863 28.6884 170.818 31.7176 175.907 35.9223C180.997 40.1271 185.095 45.4037 187.91 51.3754C190.724 57.3472 192.186 63.8667 192.189 70.4684V83.6077C174.67 85.1798 158.374 93.2504 146.505 106.232C134.636 119.214 128.054 136.167 128.054 153.756C128.054 171.346 134.636 188.299 146.505 201.28C158.374 214.262 174.67 222.332 192.189 223.905V237.031H160.158ZM198.596 211.406C188.801 211.424 179.163 208.946 170.592 204.206C162.02 199.466 154.797 192.621 149.605 184.316C144.412 176.01 141.421 166.519 140.913 156.738C140.406 146.956 142.398 137.207 146.703 128.409C151.008 119.611 157.484 112.054 165.519 106.453C173.554 100.851 182.883 97.389 192.627 96.3926C202.371 95.3963 212.208 96.8986 221.21 100.758C230.213 104.617 238.084 110.707 244.08 118.451L210.646 138.906C207.255 136.1 202.997 134.554 198.596 134.531C193.499 134.531 188.61 136.556 185.006 140.16C181.402 143.764 179.377 148.653 179.377 153.75C179.377 158.847 181.402 163.735 185.006 167.339C188.61 170.944 193.499 172.968 198.596 172.968C201.935 172.949 205.209 172.05 208.09 170.361L237.866 195.845C227.231 205.837 213.188 211.401 198.596 211.406ZM288.283 224.218C289.55 224.218 290.789 224.594 291.842 225.298C292.896 226.002 293.717 227.003 294.202 228.173C294.687 229.344 294.814 230.632 294.566 231.874C294.319 233.117 293.709 234.259 292.813 235.155C291.917 236.051 290.776 236.661 289.533 236.908C288.29 237.155 287.002 237.028 285.832 236.543C284.661 236.058 283.661 235.237 282.957 234.184C282.253 233.13 281.877 231.892 281.877 230.625C281.877 228.926 282.552 227.296 283.753 226.095C284.955 224.893 286.584 224.218 288.283 224.218ZM246.245 186.159L216.476 160.668C216.54 160.502 216.572 160.323 216.636 160.156H255.874C254.842 169.481 251.536 178.41 246.245 186.159ZM371.564 160.156C370.297 160.156 369.059 159.78 368.005 159.076C366.952 158.372 366.131 157.372 365.646 156.201C365.161 155.031 365.034 153.743 365.281 152.5C365.529 151.257 366.139 150.116 367.035 149.22C367.931 148.324 369.072 147.714 370.315 147.467C371.557 147.219 372.845 147.346 374.016 147.831C375.187 148.316 376.187 149.137 376.891 150.191C377.595 151.244 377.971 152.483 377.971 153.75C377.971 155.449 377.296 157.078 376.094 158.28C374.893 159.481 373.264 160.156 371.564 160.156Z" fill="#040408"/>
<path d="M320.313 333.125C327.389 333.125 333.126 327.389 333.126 320.312C333.126 313.236 327.389 307.5 320.313 307.5C313.237 307.5 307.501 313.236 307.501 320.312C307.501 327.389 313.237 333.125 320.313 333.125Z" fill="#040408"/>
<path d="M377.969 301.094H367.822L367.495 300.306L374.67 293.131C375.871 291.929 376.546 290.3 376.546 288.602C376.546 286.903 375.871 285.274 374.67 284.072L356.553 265.955C355.352 264.754 353.723 264.08 352.024 264.08C350.325 264.08 348.696 264.754 347.495 265.955L340.32 273.13L339.532 272.804V262.656C339.532 260.957 338.857 259.328 337.656 258.126C336.454 256.925 334.825 256.25 333.126 256.25H307.501C305.802 256.25 304.172 256.925 302.971 258.126C301.769 259.328 301.094 260.957 301.094 262.656V272.804L300.306 273.13L293.131 265.955C291.907 264.798 290.287 264.153 288.602 264.153C286.918 264.153 285.297 264.798 284.073 265.955L265.956 284.072C264.755 285.274 264.08 286.903 264.08 288.602C264.08 290.3 264.755 291.929 265.956 293.131L273.131 300.306L272.804 301.094H262.657C260.958 301.094 259.328 301.769 258.127 302.97C256.926 304.171 256.251 305.801 256.251 307.5V333.125C256.251 334.824 256.926 336.454 258.127 337.655C259.328 338.856 260.958 339.531 262.657 339.531H272.804L273.131 340.319L265.956 347.494C264.755 348.696 264.08 350.325 264.08 352.023C264.08 353.722 264.755 355.351 265.956 356.553L284.073 374.67C285.274 375.871 286.904 376.545 288.602 376.545C290.301 376.545 291.93 375.871 293.131 374.67L300.306 367.495L301.094 367.821V377.969C301.094 379.668 301.769 381.297 302.971 382.499C304.172 383.7 305.802 384.375 307.501 384.375H333.126C334.825 384.375 336.454 383.7 337.656 382.499C338.857 381.297 339.532 379.668 339.532 377.969V367.821L340.32 367.495L347.495 374.67C348.719 375.827 350.34 376.472 352.024 376.472C353.709 376.472 355.329 375.827 356.553 374.67L374.67 356.553C375.871 355.351 376.546 353.722 376.546 352.023C376.546 350.325 375.871 348.696 374.67 347.494L367.495 340.319L367.822 339.531H377.969C379.668 339.531 381.298 338.856 382.499 337.655C383.701 336.454 384.376 334.824 384.376 333.125V307.5C384.376 305.801 383.701 304.171 382.499 302.97C381.298 301.769 379.668 301.094 377.969 301.094ZM371.563 326.719H363.273C361.894 326.719 360.552 327.164 359.447 327.988C358.341 328.813 357.531 329.971 357.136 331.293C356.389 333.822 355.382 336.267 354.132 338.59C353.473 339.804 353.225 341.198 353.423 342.565C353.622 343.932 354.257 345.198 355.234 346.175L361.083 352.023L352.024 361.082L346.175 355.233C345.199 354.258 343.934 353.623 342.569 353.425C341.203 353.226 339.81 353.474 338.597 354.131C336.274 355.381 333.829 356.388 331.3 357.136C329.977 357.529 328.817 358.339 327.992 359.444C327.166 360.55 326.72 361.893 326.719 363.273V371.562H313.907V363.273C313.906 361.893 313.46 360.55 312.635 359.444C311.809 358.339 310.649 357.529 309.326 357.136C306.797 356.388 304.352 355.381 302.03 354.131C300.816 353.474 299.423 353.226 298.058 353.425C296.692 353.623 295.427 354.258 294.451 355.233L288.602 361.082L279.544 352.023L285.393 346.175C286.37 345.198 287.005 343.932 287.203 342.565C287.402 341.198 287.153 339.804 286.495 338.59C285.244 336.267 284.237 333.822 283.49 331.293C283.096 329.971 282.285 328.813 281.18 327.988C280.074 327.164 278.732 326.719 277.353 326.719H269.063V313.906H277.353C278.732 313.906 280.074 313.461 281.18 312.637C282.285 311.812 283.096 310.654 283.49 309.332C284.237 306.803 285.244 304.358 286.495 302.035C287.153 300.821 287.402 299.427 287.203 298.06C287.005 296.693 286.37 295.427 285.393 294.45L279.544 288.602L288.602 279.543L294.451 285.392C295.427 286.367 296.692 287.002 298.058 287.2C299.423 287.399 300.816 287.151 302.03 286.494C304.352 285.244 306.797 284.237 309.326 283.489C310.649 283.096 311.809 282.286 312.635 281.181C313.46 280.075 313.906 278.732 313.907 277.352V269.062H326.719V277.352C326.72 278.732 327.166 280.075 327.992 281.181C328.817 282.286 329.977 283.096 331.3 283.489C333.829 284.237 336.274 285.244 338.597 286.494C339.81 287.151 341.203 287.399 342.569 287.2C343.934 287.002 345.199 286.367 346.175 285.392L352.024 279.543L361.083 288.602L355.234 294.45C354.257 295.427 353.622 296.693 353.423 298.06C353.225 299.427 353.473 300.821 354.132 302.035C355.382 304.358 356.389 306.803 357.136 309.332C357.531 310.654 358.341 311.812 359.447 312.637C360.552 313.461 361.894 313.906 363.273 313.906H371.563V326.719Z" fill="#040408"/>
<path d="M256.251 32.0311H243.438V44.8436H256.251V32.0311Z" fill="#040408"/>
<path d="M243.438 44.8436H230.626V57.6561H243.438V44.8436Z" fill="#040408"/>
<path d="M269.063 44.8436H256.251V57.6561H269.063V44.8436Z" fill="#040408"/>
<path d="M256.251 57.6561H243.438V70.4686H256.251V57.6561Z" fill="#040408"/>
<path d="M345.938 192.188H333.126V205H345.938V192.188Z" fill="#040408"/>
<path d="M333.126 205H320.313V217.812H333.126V205Z" fill="#040408"/>
<path d="M358.751 205H345.938V217.812H358.751V205Z" fill="#040408"/>
<path d="M345.938 217.812H333.126V230.625H345.938V217.812Z" fill="#040408"/>
</g>
</g>
</svg>
