<svg width="561" height="438" viewBox="0 0 561 438" fill="none" xmlns="http://www.w3.org/2000/svg">
<rect x="0.3" y="0.3" width="560.4" height="437.4" rx="19.7" stroke="#DADADA" stroke-width="0.6"/>
<line x1="53" y1="129.7" x2="523" y2="129.7" stroke="#DADADA" stroke-width="0.6"/>
<line x1="53" y1="209.7" x2="523" y2="209.7" stroke="#DADADA" stroke-width="0.6"/>
<line x1="53" y1="289.7" x2="523" y2="289.7" stroke="#DADADA" stroke-width="0.6"/>
<line x1="53" y1="369.7" x2="523" y2="369.7" stroke="#DADADA" stroke-width="0.6"/>
<path d="M37.2 375.126C36.4533 375.126 35.8187 374.935 35.296 374.552C34.7827 374.16 34.3953 373.586 34.134 372.83C33.8727 372.074 33.742 371.15 33.742 370.058C33.742 368.957 33.8727 368.033 34.134 367.286C34.3953 366.53 34.7827 365.961 35.296 365.578C35.8187 365.195 36.4533 365.004 37.2 365.004C37.956 365.004 38.5907 365.195 39.104 365.578C39.6173 365.961 40.0047 366.525 40.266 367.272C40.5273 368.019 40.658 368.943 40.658 370.044C40.658 371.145 40.5273 372.074 40.266 372.83C40.0047 373.586 39.6173 374.16 39.104 374.552C38.5907 374.935 37.956 375.126 37.2 375.126ZM37.2 374.132C37.984 374.132 38.5627 373.801 38.936 373.138C39.3187 372.475 39.51 371.444 39.51 370.044C39.51 368.644 39.3233 367.622 38.95 366.978C38.5767 366.325 37.9933 365.998 37.2 365.998C36.4253 365.998 35.8467 366.325 35.464 366.978C35.0813 367.631 34.89 368.653 34.89 370.044C34.89 371.444 35.0767 372.475 35.45 373.138C35.8327 373.801 36.416 374.132 37.2 374.132Z" fill="#AFAFB0"/>
<path d="M26.26 296V295.132L29.634 291.492C29.9513 291.147 30.208 290.825 30.404 290.526C30.6 290.218 30.7447 289.919 30.838 289.63C30.9313 289.341 30.978 289.047 30.978 288.748C30.978 288.188 30.8053 287.763 30.46 287.474C30.124 287.175 29.6293 287.026 28.976 287.026C28.472 287.026 28.0007 287.119 27.562 287.306C27.1327 287.483 26.722 287.763 26.33 288.146L25.896 287.25C26.26 286.877 26.722 286.578 27.282 286.354C27.8513 286.121 28.4487 286.004 29.074 286.004C29.7367 286.004 30.2967 286.107 30.754 286.312C31.2113 286.517 31.5567 286.821 31.79 287.222C32.0233 287.614 32.14 288.095 32.14 288.664C32.14 288.963 32.1027 289.257 32.028 289.546C31.9627 289.826 31.8553 290.111 31.706 290.4C31.566 290.68 31.384 290.969 31.16 291.268C30.9453 291.567 30.684 291.875 30.376 292.192L27.408 295.342V295.02H32.546V296H26.26ZM37.5945 296.126C36.8479 296.126 36.2132 295.935 35.6905 295.552C35.1772 295.16 34.7899 294.586 34.5285 293.83C34.2672 293.074 34.1365 292.15 34.1365 291.058C34.1365 289.957 34.2672 289.033 34.5285 288.286C34.7899 287.53 35.1772 286.961 35.6905 286.578C36.2132 286.195 36.8479 286.004 37.5945 286.004C38.3505 286.004 38.9852 286.195 39.4985 286.578C40.0119 286.961 40.3992 287.525 40.6605 288.272C40.9219 289.019 41.0525 289.943 41.0525 291.044C41.0525 292.145 40.9219 293.074 40.6605 293.83C40.3992 294.586 40.0119 295.16 39.4985 295.552C38.9852 295.935 38.3505 296.126 37.5945 296.126ZM37.5945 295.132C38.3785 295.132 38.9572 294.801 39.3305 294.138C39.7132 293.475 39.9045 292.444 39.9045 291.044C39.9045 289.644 39.7179 288.622 39.3445 287.978C38.9712 287.325 38.3879 286.998 37.5945 286.998C36.8199 286.998 36.2412 287.325 35.8585 287.978C35.4759 288.631 35.2845 289.653 35.2845 291.044C35.2845 292.444 35.4712 293.475 35.8445 294.138C36.2272 294.801 36.8105 295.132 37.5945 295.132Z" fill="#AFAFB0"/>
<path d="M30.278 215V212.886H25.728V212.018L30.474 205.13H31.44V211.906H32.91V212.886H31.44V215H30.278ZM30.278 211.906V206.516H30.614L26.708 212.214V211.906H30.278ZM37.5945 215.126C36.8479 215.126 36.2132 214.935 35.6905 214.552C35.1772 214.16 34.7899 213.586 34.5285 212.83C34.2672 212.074 34.1365 211.15 34.1365 210.058C34.1365 208.957 34.2672 208.033 34.5285 207.286C34.7899 206.53 35.1772 205.961 35.6905 205.578C36.2132 205.195 36.8479 205.004 37.5945 205.004C38.3505 205.004 38.9852 205.195 39.4985 205.578C40.0119 205.961 40.3992 206.525 40.6605 207.272C40.9219 208.019 41.0525 208.943 41.0525 210.044C41.0525 211.145 40.9219 212.074 40.6605 212.83C40.3992 213.586 40.0119 214.16 39.4985 214.552C38.9852 214.935 38.3505 215.126 37.5945 215.126ZM37.5945 214.132C38.3785 214.132 38.9572 213.801 39.3305 213.138C39.7132 212.475 39.9045 211.444 39.9045 210.044C39.9045 208.644 39.7179 207.622 39.3445 206.978C38.9712 206.325 38.3879 205.998 37.5945 205.998C36.8199 205.998 36.2412 206.325 35.8585 206.978C35.4759 207.631 35.2845 208.653 35.2845 210.044C35.2845 211.444 35.4712 212.475 35.8445 213.138C36.2272 213.801 36.8105 214.132 37.5945 214.132Z" fill="#AFAFB0"/>
<path d="M29.55 136.126C28.766 136.126 28.0987 135.939 27.548 135.566C27.0067 135.183 26.596 134.633 26.316 133.914C26.036 133.195 25.896 132.327 25.896 131.31C25.896 130.171 26.05 129.21 26.358 128.426C26.6753 127.633 27.1327 127.031 27.73 126.62C28.3367 126.209 29.0553 126.004 29.886 126.004C30.222 126.004 30.5627 126.055 30.908 126.158C31.2533 126.251 31.5753 126.387 31.874 126.564C32.182 126.741 32.4433 126.951 32.658 127.194L32.238 128.09C31.8927 127.726 31.5147 127.46 31.104 127.292C30.7027 127.115 30.2873 127.026 29.858 127.026C29.4007 127.026 28.9947 127.11 28.64 127.278C28.2947 127.446 27.996 127.703 27.744 128.048C27.5013 128.384 27.3193 128.809 27.198 129.322C27.0767 129.826 27.016 130.414 27.016 131.086V132.388H26.89C26.946 131.856 27.1 131.399 27.352 131.016C27.6133 130.624 27.9447 130.325 28.346 130.12C28.7473 129.915 29.2 129.812 29.704 129.812C30.2827 129.812 30.796 129.943 31.244 130.204C31.692 130.465 32.042 130.834 32.294 131.31C32.546 131.777 32.672 132.313 32.672 132.92C32.672 133.536 32.5413 134.087 32.28 134.572C32.0187 135.057 31.65 135.44 31.174 135.72C30.698 135.991 30.1567 136.126 29.55 136.126ZM29.466 135.146C29.8767 135.146 30.2407 135.057 30.558 134.88C30.8753 134.693 31.1227 134.437 31.3 134.11C31.4773 133.774 31.566 133.391 31.566 132.962C31.566 132.533 31.4773 132.155 31.3 131.828C31.1227 131.501 30.8753 131.245 30.558 131.058C30.25 130.871 29.886 130.778 29.466 130.778C29.0553 130.778 28.6913 130.871 28.374 131.058C28.0567 131.245 27.8093 131.501 27.632 131.828C27.4547 132.155 27.366 132.533 27.366 132.962C27.366 133.391 27.4547 133.774 27.632 134.11C27.8093 134.437 28.0567 134.693 28.374 134.88C28.6913 135.057 29.0553 135.146 29.466 135.146ZM37.5945 136.126C36.8479 136.126 36.2132 135.935 35.6905 135.552C35.1772 135.16 34.7899 134.586 34.5285 133.83C34.2672 133.074 34.1365 132.15 34.1365 131.058C34.1365 129.957 34.2672 129.033 34.5285 128.286C34.7899 127.53 35.1772 126.961 35.6905 126.578C36.2132 126.195 36.8479 126.004 37.5945 126.004C38.3505 126.004 38.9852 126.195 39.4985 126.578C40.0119 126.961 40.3992 127.525 40.6605 128.272C40.9219 129.019 41.0525 129.943 41.0525 131.044C41.0525 132.145 40.9219 133.074 40.6605 133.83C40.3992 134.586 40.0119 135.16 39.4985 135.552C38.9852 135.935 38.3505 136.126 37.5945 136.126ZM37.5945 135.132C38.3785 135.132 38.9572 134.801 39.3305 134.138C39.7132 133.475 39.9045 132.444 39.9045 131.044C39.9045 129.644 39.7179 128.622 39.3445 127.978C38.9712 127.325 38.3879 126.998 37.5945 126.998C36.8199 126.998 36.2412 127.325 35.8585 127.978C35.4759 128.631 35.2845 129.653 35.2845 131.044C35.2845 132.444 35.4712 133.475 35.8445 134.138C36.2272 134.801 36.8105 135.132 37.5945 135.132Z" fill="#AFAFB0"/>
<path d="M65.08 396V395.27H66.85V389.66L67.3 389.69L65.43 390.89L65.05 390.24L67.08 388.95H67.7V395.27H69.34V396H65.08ZM71.1161 396L74.5761 389.31L74.5961 389.7H70.6561V388.95H75.3361V389.59L72.0561 396H71.1161ZM76.6622 392.14V391.1H77.7522V392.14H76.6622ZM76.6622 396V394.95H77.7522V396H76.6622ZM81.4238 396.09C80.8838 396.09 80.4272 395.953 80.0538 395.68C79.6872 395.4 79.4105 394.993 79.2238 394.46C79.0372 393.92 78.9438 393.257 78.9438 392.47C78.9438 391.683 79.0372 391.023 79.2238 390.49C79.4105 389.95 79.6872 389.543 80.0538 389.27C80.4272 388.997 80.8838 388.86 81.4238 388.86C81.9705 388.86 82.4272 388.997 82.7938 389.27C83.1605 389.543 83.4372 389.947 83.6238 390.48C83.8105 391.013 83.9038 391.673 83.9038 392.46C83.9038 393.247 83.8105 393.91 83.6238 394.45C83.4372 394.99 83.1572 395.4 82.7838 395.68C82.4172 395.953 81.9638 396.09 81.4238 396.09ZM81.4238 395.35C81.9772 395.35 82.3872 395.117 82.6538 394.65C82.9205 394.177 83.0538 393.447 83.0538 392.46C83.0538 391.473 82.9205 390.75 82.6538 390.29C82.3938 389.83 81.9838 389.6 81.4238 389.6C80.8705 389.6 80.4605 389.833 80.1938 390.3C79.9272 390.76 79.7938 391.483 79.7938 392.47C79.7938 393.45 79.9272 394.177 80.1938 394.65C80.4605 395.117 80.8705 395.35 81.4238 395.35ZM87.4199 396.09C86.8799 396.09 86.4233 395.953 86.0499 395.68C85.6833 395.4 85.4066 394.993 85.2199 394.46C85.0333 393.92 84.9399 393.257 84.9399 392.47C84.9399 391.683 85.0333 391.023 85.2199 390.49C85.4066 389.95 85.6833 389.543 86.0499 389.27C86.4233 388.997 86.8799 388.86 87.4199 388.86C87.9666 388.86 88.4233 388.997 88.7899 389.27C89.1566 389.543 89.4333 389.947 89.6199 390.48C89.8066 391.013 89.8999 391.673 89.8999 392.46C89.8999 393.247 89.8066 393.91 89.6199 394.45C89.4333 394.99 89.1533 395.4 88.7799 395.68C88.4133 395.953 87.9599 396.09 87.4199 396.09ZM87.4199 395.35C87.9733 395.35 88.3833 395.117 88.6499 394.65C88.9166 394.177 89.0499 393.447 89.0499 392.46C89.0499 391.473 88.9166 390.75 88.6499 390.29C88.3899 389.83 87.9799 389.6 87.4199 389.6C86.8666 389.6 86.4566 389.833 86.1899 390.3C85.9233 390.76 85.7899 391.483 85.7899 392.47C85.7899 393.45 85.9233 394.177 86.1899 394.65C86.4566 395.117 86.8666 395.35 87.4199 395.35Z" fill="#AFAFB0"/>
<path d="M104.08 396V395.27H105.85V389.66L106.3 389.69L104.43 390.89L104.05 390.24L106.08 388.95H106.7V395.27H108.34V396H104.08ZM111.996 396.09C111.203 396.09 110.583 395.92 110.136 395.58C109.689 395.233 109.466 394.753 109.466 394.14C109.466 393.813 109.529 393.527 109.656 393.28C109.789 393.033 109.973 392.83 110.206 392.67C110.439 392.51 110.706 392.407 111.006 392.36V392.44C110.739 392.373 110.503 392.26 110.296 392.1C110.089 391.94 109.926 391.743 109.806 391.51C109.693 391.277 109.636 391.02 109.636 390.74C109.636 390.153 109.849 389.693 110.276 389.36C110.703 389.027 111.276 388.86 111.996 388.86C112.716 388.86 113.289 389.027 113.716 389.36C114.143 389.693 114.356 390.153 114.356 390.74C114.356 391.02 114.296 391.28 114.176 391.52C114.063 391.753 113.903 391.95 113.696 392.11C113.496 392.263 113.259 392.373 112.986 392.44V392.36C113.286 392.407 113.549 392.51 113.776 392.67C114.009 392.83 114.193 393.033 114.326 393.28C114.459 393.527 114.526 393.813 114.526 394.14C114.526 394.753 114.303 395.233 113.856 395.58C113.409 395.92 112.789 396.09 111.996 396.09ZM111.996 395.38C112.556 395.38 112.979 395.27 113.266 395.05C113.559 394.83 113.706 394.507 113.706 394.08C113.706 393.653 113.559 393.33 113.266 393.11C112.979 392.89 112.556 392.78 111.996 392.78C111.443 392.78 111.019 392.89 110.726 393.11C110.433 393.33 110.286 393.653 110.286 394.08C110.286 394.507 110.433 394.83 110.726 395.05C111.019 395.27 111.443 395.38 111.996 395.38ZM111.996 392.07C112.483 392.07 112.863 391.96 113.136 391.74C113.409 391.513 113.546 391.203 113.546 390.81C113.546 390.423 113.409 390.12 113.136 389.9C112.863 389.68 112.483 389.57 111.996 389.57C111.516 389.57 111.139 389.68 110.866 389.9C110.593 390.12 110.456 390.423 110.456 390.81C110.456 391.203 110.593 391.513 110.866 391.74C111.139 391.96 111.516 392.07 111.996 392.07ZM115.662 392.14V391.1H116.752V392.14H115.662ZM115.662 396V394.95H116.752V396H115.662ZM120.424 396.09C119.884 396.09 119.427 395.953 119.054 395.68C118.687 395.4 118.41 394.993 118.224 394.46C118.037 393.92 117.944 393.257 117.944 392.47C117.944 391.683 118.037 391.023 118.224 390.49C118.41 389.95 118.687 389.543 119.054 389.27C119.427 388.997 119.884 388.86 120.424 388.86C120.97 388.86 121.427 388.997 121.794 389.27C122.16 389.543 122.437 389.947 122.624 390.48C122.81 391.013 122.904 391.673 122.904 392.46C122.904 393.247 122.81 393.91 122.624 394.45C122.437 394.99 122.157 395.4 121.784 395.68C121.417 395.953 120.964 396.09 120.424 396.09ZM120.424 395.35C120.977 395.35 121.387 395.117 121.654 394.65C121.92 394.177 122.054 393.447 122.054 392.46C122.054 391.473 121.92 390.75 121.654 390.29C121.394 389.83 120.984 389.6 120.424 389.6C119.87 389.6 119.46 389.833 119.194 390.3C118.927 390.76 118.794 391.483 118.794 392.47C118.794 393.45 118.927 394.177 119.194 394.65C119.46 395.117 119.87 395.35 120.424 395.35ZM126.42 396.09C125.88 396.09 125.423 395.953 125.05 395.68C124.683 395.4 124.407 394.993 124.22 394.46C124.033 393.92 123.94 393.257 123.94 392.47C123.94 391.683 124.033 391.023 124.22 390.49C124.407 389.95 124.683 389.543 125.05 389.27C125.423 388.997 125.88 388.86 126.42 388.86C126.967 388.86 127.423 388.997 127.79 389.27C128.157 389.543 128.433 389.947 128.62 390.48C128.807 391.013 128.9 391.673 128.9 392.46C128.9 393.247 128.807 393.91 128.62 394.45C128.433 394.99 128.153 395.4 127.78 395.68C127.413 395.953 126.96 396.09 126.42 396.09ZM126.42 395.35C126.973 395.35 127.383 395.117 127.65 394.65C127.917 394.177 128.05 393.447 128.05 392.46C128.05 391.473 127.917 390.75 127.65 390.29C127.39 389.83 126.98 389.6 126.42 389.6C125.867 389.6 125.457 389.833 125.19 390.3C124.923 390.76 124.79 391.483 124.79 392.47C124.79 393.45 124.923 394.177 125.19 394.65C125.457 395.117 125.867 395.35 126.42 395.35Z" fill="#AFAFB0"/>
<path d="M145.08 396V395.27H146.85V389.66L147.3 389.69L145.43 390.89L145.05 390.24L147.08 388.95H147.7V395.27H149.34V396H145.08ZM152.536 396.09C152.283 396.09 152.033 396.06 151.786 396C151.546 395.933 151.316 395.837 151.096 395.71C150.883 395.583 150.689 395.43 150.516 395.25L150.846 394.59C151.099 394.857 151.369 395.05 151.656 395.17C151.943 395.283 152.239 395.34 152.546 395.34C152.873 395.34 153.159 395.28 153.406 395.16C153.659 395.033 153.873 394.85 154.046 394.61C154.219 394.363 154.349 394.06 154.436 393.7C154.529 393.333 154.576 392.917 154.576 392.45V391.69H154.616C154.563 392.03 154.446 392.33 154.266 392.59C154.086 392.843 153.856 393.037 153.576 393.17C153.303 393.303 152.996 393.37 152.656 393.37C152.236 393.37 151.863 393.277 151.536 393.09C151.216 392.903 150.963 392.643 150.776 392.31C150.596 391.97 150.506 391.583 150.506 391.15C150.506 390.703 150.603 390.31 150.796 389.97C150.989 389.623 151.256 389.353 151.596 389.16C151.936 388.96 152.323 388.86 152.756 388.86C153.323 388.86 153.799 388.997 154.186 389.27C154.579 389.537 154.876 389.927 155.076 390.44C155.283 390.953 155.386 391.577 155.386 392.31C155.386 393.117 155.273 393.803 155.046 394.37C154.819 394.93 154.493 395.357 154.066 395.65C153.646 395.943 153.136 396.09 152.536 396.09ZM152.816 392.65C153.109 392.65 153.369 392.587 153.596 392.46C153.823 392.333 153.999 392.153 154.126 391.92C154.253 391.687 154.316 391.42 154.316 391.12C154.316 390.813 154.253 390.547 154.126 390.32C153.999 390.087 153.823 389.907 153.596 389.78C153.376 389.647 153.113 389.58 152.806 389.58C152.513 389.58 152.253 389.647 152.026 389.78C151.806 389.913 151.633 390.097 151.506 390.33C151.386 390.557 151.326 390.82 151.326 391.12C151.326 391.427 151.389 391.697 151.516 391.93C151.643 392.157 151.816 392.333 152.036 392.46C152.263 392.587 152.523 392.65 152.816 392.65ZM156.662 392.14V391.1H157.752V392.14H156.662ZM156.662 396V394.95H157.752V396H156.662ZM161.424 396.09C160.884 396.09 160.427 395.953 160.054 395.68C159.687 395.4 159.41 394.993 159.224 394.46C159.037 393.92 158.944 393.257 158.944 392.47C158.944 391.683 159.037 391.023 159.224 390.49C159.41 389.95 159.687 389.543 160.054 389.27C160.427 388.997 160.884 388.86 161.424 388.86C161.97 388.86 162.427 388.997 162.794 389.27C163.16 389.543 163.437 389.947 163.624 390.48C163.81 391.013 163.904 391.673 163.904 392.46C163.904 393.247 163.81 393.91 163.624 394.45C163.437 394.99 163.157 395.4 162.784 395.68C162.417 395.953 161.964 396.09 161.424 396.09ZM161.424 395.35C161.977 395.35 162.387 395.117 162.654 394.65C162.92 394.177 163.054 393.447 163.054 392.46C163.054 391.473 162.92 390.75 162.654 390.29C162.394 389.83 161.984 389.6 161.424 389.6C160.87 389.6 160.46 389.833 160.194 390.3C159.927 390.76 159.794 391.483 159.794 392.47C159.794 393.45 159.927 394.177 160.194 394.65C160.46 395.117 160.87 395.35 161.424 395.35ZM167.42 396.09C166.88 396.09 166.423 395.953 166.05 395.68C165.683 395.4 165.407 394.993 165.22 394.46C165.033 393.92 164.94 393.257 164.94 392.47C164.94 391.683 165.033 391.023 165.22 390.49C165.407 389.95 165.683 389.543 166.05 389.27C166.423 388.997 166.88 388.86 167.42 388.86C167.967 388.86 168.423 388.997 168.79 389.27C169.157 389.543 169.433 389.947 169.62 390.48C169.807 391.013 169.9 391.673 169.9 392.46C169.9 393.247 169.807 393.91 169.62 394.45C169.433 394.99 169.153 395.4 168.78 395.68C168.413 395.953 167.96 396.09 167.42 396.09ZM167.42 395.35C167.973 395.35 168.383 395.117 168.65 394.65C168.917 394.177 169.05 393.447 169.05 392.46C169.05 391.473 168.917 390.75 168.65 390.29C168.39 389.83 167.98 389.6 167.42 389.6C166.867 389.6 166.457 389.833 166.19 390.3C165.923 390.76 165.79 391.483 165.79 392.47C165.79 393.45 165.923 394.177 166.19 394.65C166.457 395.117 166.867 395.35 167.42 395.35Z" fill="#AFAFB0"/>
<path d="M183.86 396V395.36L186.3 392.76C186.533 392.507 186.72 392.277 186.86 392.07C187 391.857 187.1 391.65 187.16 391.45C187.22 391.25 187.25 391.047 187.25 390.84C187.25 390.447 187.127 390.143 186.88 389.93C186.64 389.717 186.29 389.61 185.83 389.61C185.49 389.61 185.16 389.677 184.84 389.81C184.52 389.937 184.22 390.14 183.94 390.42L183.61 389.75C183.89 389.477 184.23 389.26 184.63 389.1C185.037 388.94 185.46 388.86 185.9 388.86C186.367 388.86 186.763 388.937 187.09 389.09C187.423 389.243 187.677 389.463 187.85 389.75C188.023 390.037 188.11 390.38 188.11 390.78C188.11 390.993 188.083 391.2 188.03 391.4C187.983 391.6 187.91 391.8 187.81 392C187.71 392.2 187.58 392.407 187.42 392.62C187.267 392.827 187.083 393.04 186.87 393.26L184.83 395.4V395.26H188.4V396H183.86ZM191.996 396.09C191.456 396.09 190.999 395.953 190.626 395.68C190.259 395.4 189.983 394.993 189.796 394.46C189.609 393.92 189.516 393.257 189.516 392.47C189.516 391.683 189.609 391.023 189.796 390.49C189.983 389.95 190.259 389.543 190.626 389.27C190.999 388.997 191.456 388.86 191.996 388.86C192.543 388.86 192.999 388.997 193.366 389.27C193.733 389.543 194.009 389.947 194.196 390.48C194.383 391.013 194.476 391.673 194.476 392.46C194.476 393.247 194.383 393.91 194.196 394.45C194.009 394.99 193.729 395.4 193.356 395.68C192.989 395.953 192.536 396.09 191.996 396.09ZM191.996 395.35C192.549 395.35 192.959 395.117 193.226 394.65C193.493 394.177 193.626 393.447 193.626 392.46C193.626 391.473 193.493 390.75 193.226 390.29C192.966 389.83 192.556 389.6 191.996 389.6C191.443 389.6 191.033 389.833 190.766 390.3C190.499 390.76 190.366 391.483 190.366 392.47C190.366 393.45 190.499 394.177 190.766 394.65C191.033 395.117 191.443 395.35 191.996 395.35ZM195.662 392.14V391.1H196.752V392.14H195.662ZM195.662 396V394.95H196.752V396H195.662ZM200.424 396.09C199.884 396.09 199.427 395.953 199.054 395.68C198.687 395.4 198.41 394.993 198.224 394.46C198.037 393.92 197.944 393.257 197.944 392.47C197.944 391.683 198.037 391.023 198.224 390.49C198.41 389.95 198.687 389.543 199.054 389.27C199.427 388.997 199.884 388.86 200.424 388.86C200.97 388.86 201.427 388.997 201.794 389.27C202.16 389.543 202.437 389.947 202.624 390.48C202.81 391.013 202.904 391.673 202.904 392.46C202.904 393.247 202.81 393.91 202.624 394.45C202.437 394.99 202.157 395.4 201.784 395.68C201.417 395.953 200.964 396.09 200.424 396.09ZM200.424 395.35C200.977 395.35 201.387 395.117 201.654 394.65C201.92 394.177 202.054 393.447 202.054 392.46C202.054 391.473 201.92 390.75 201.654 390.29C201.394 389.83 200.984 389.6 200.424 389.6C199.87 389.6 199.46 389.833 199.194 390.3C198.927 390.76 198.794 391.483 198.794 392.47C198.794 393.45 198.927 394.177 199.194 394.65C199.46 395.117 199.87 395.35 200.424 395.35ZM206.42 396.09C205.88 396.09 205.423 395.953 205.05 395.68C204.683 395.4 204.407 394.993 204.22 394.46C204.033 393.92 203.94 393.257 203.94 392.47C203.94 391.683 204.033 391.023 204.22 390.49C204.407 389.95 204.683 389.543 205.05 389.27C205.423 388.997 205.88 388.86 206.42 388.86C206.967 388.86 207.423 388.997 207.79 389.27C208.157 389.543 208.433 389.947 208.62 390.48C208.807 391.013 208.9 391.673 208.9 392.46C208.9 393.247 208.807 393.91 208.62 394.45C208.433 394.99 208.153 395.4 207.78 395.68C207.413 395.953 206.96 396.09 206.42 396.09ZM206.42 395.35C206.973 395.35 207.383 395.117 207.65 394.65C207.917 394.177 208.05 393.447 208.05 392.46C208.05 391.473 207.917 390.75 207.65 390.29C207.39 389.83 206.98 389.6 206.42 389.6C205.867 389.6 205.457 389.833 205.19 390.3C204.923 390.76 204.79 391.483 204.79 392.47C204.79 393.45 204.923 394.177 205.19 394.65C205.457 395.117 205.867 395.35 206.42 395.35Z" fill="#AFAFB0"/>
<path d="M224.86 396V395.36L227.3 392.76C227.533 392.507 227.72 392.277 227.86 392.07C228 391.857 228.1 391.65 228.16 391.45C228.22 391.25 228.25 391.047 228.25 390.84C228.25 390.447 228.127 390.143 227.88 389.93C227.64 389.717 227.29 389.61 226.83 389.61C226.49 389.61 226.16 389.677 225.84 389.81C225.52 389.937 225.22 390.14 224.94 390.42L224.61 389.75C224.89 389.477 225.23 389.26 225.63 389.1C226.037 388.94 226.46 388.86 226.9 388.86C227.367 388.86 227.763 388.937 228.09 389.09C228.423 389.243 228.677 389.463 228.85 389.75C229.023 390.037 229.11 390.38 229.11 390.78C229.11 390.993 229.083 391.2 229.03 391.4C228.983 391.6 228.91 391.8 228.81 392C228.71 392.2 228.58 392.407 228.42 392.62C228.267 392.827 228.083 393.04 227.87 393.26L225.83 395.4V395.26H229.4V396H224.86ZM231.076 396V395.27H232.846V389.66L233.296 389.69L231.426 390.89L231.046 390.24L233.076 388.95H233.696V395.27H235.336V396H231.076ZM236.662 392.14V391.1H237.752V392.14H236.662ZM236.662 396V394.95H237.752V396H236.662ZM241.424 396.09C240.884 396.09 240.427 395.953 240.054 395.68C239.687 395.4 239.41 394.993 239.224 394.46C239.037 393.92 238.944 393.257 238.944 392.47C238.944 391.683 239.037 391.023 239.224 390.49C239.41 389.95 239.687 389.543 240.054 389.27C240.427 388.997 240.884 388.86 241.424 388.86C241.97 388.86 242.427 388.997 242.794 389.27C243.16 389.543 243.437 389.947 243.624 390.48C243.81 391.013 243.904 391.673 243.904 392.46C243.904 393.247 243.81 393.91 243.624 394.45C243.437 394.99 243.157 395.4 242.784 395.68C242.417 395.953 241.964 396.09 241.424 396.09ZM241.424 395.35C241.977 395.35 242.387 395.117 242.654 394.65C242.92 394.177 243.054 393.447 243.054 392.46C243.054 391.473 242.92 390.75 242.654 390.29C242.394 389.83 241.984 389.6 241.424 389.6C240.87 389.6 240.46 389.833 240.194 390.3C239.927 390.76 239.794 391.483 239.794 392.47C239.794 393.45 239.927 394.177 240.194 394.65C240.46 395.117 240.87 395.35 241.424 395.35ZM247.42 396.09C246.88 396.09 246.423 395.953 246.05 395.68C245.683 395.4 245.407 394.993 245.22 394.46C245.033 393.92 244.94 393.257 244.94 392.47C244.94 391.683 245.033 391.023 245.22 390.49C245.407 389.95 245.683 389.543 246.05 389.27C246.423 388.997 246.88 388.86 247.42 388.86C247.967 388.86 248.423 388.997 248.79 389.27C249.157 389.543 249.433 389.947 249.62 390.48C249.807 391.013 249.9 391.673 249.9 392.46C249.9 393.247 249.807 393.91 249.62 394.45C249.433 394.99 249.153 395.4 248.78 395.68C248.413 395.953 247.96 396.09 247.42 396.09ZM247.42 395.35C247.973 395.35 248.383 395.117 248.65 394.65C248.917 394.177 249.05 393.447 249.05 392.46C249.05 391.473 248.917 390.75 248.65 390.29C248.39 389.83 247.98 389.6 247.42 389.6C246.867 389.6 246.457 389.833 246.19 390.3C245.923 390.76 245.79 391.483 245.79 392.47C245.79 393.45 245.923 394.177 246.19 394.65C246.457 395.117 246.867 395.35 247.42 395.35Z" fill="#AFAFB0"/>
<path d="M264.86 396V395.36L267.3 392.76C267.533 392.507 267.72 392.277 267.86 392.07C268 391.857 268.1 391.65 268.16 391.45C268.22 391.25 268.25 391.047 268.25 390.84C268.25 390.447 268.127 390.143 267.88 389.93C267.64 389.717 267.29 389.61 266.83 389.61C266.49 389.61 266.16 389.677 265.84 389.81C265.52 389.937 265.22 390.14 264.94 390.42L264.61 389.75C264.89 389.477 265.23 389.26 265.63 389.1C266.037 388.94 266.46 388.86 266.9 388.86C267.367 388.86 267.763 388.937 268.09 389.09C268.423 389.243 268.677 389.463 268.85 389.75C269.023 390.037 269.11 390.38 269.11 390.78C269.11 390.993 269.083 391.2 269.03 391.4C268.983 391.6 268.91 391.8 268.81 392C268.71 392.2 268.58 392.407 268.42 392.62C268.267 392.827 268.083 393.04 267.87 393.26L265.83 395.4V395.26H269.4V396H264.86ZM270.856 396V395.36L273.296 392.76C273.529 392.507 273.716 392.277 273.856 392.07C273.996 391.857 274.096 391.65 274.156 391.45C274.216 391.25 274.246 391.047 274.246 390.84C274.246 390.447 274.123 390.143 273.876 389.93C273.636 389.717 273.286 389.61 272.826 389.61C272.486 389.61 272.156 389.677 271.836 389.81C271.516 389.937 271.216 390.14 270.936 390.42L270.606 389.75C270.886 389.477 271.226 389.26 271.626 389.1C272.033 388.94 272.456 388.86 272.896 388.86C273.363 388.86 273.759 388.937 274.086 389.09C274.419 389.243 274.673 389.463 274.846 389.75C275.019 390.037 275.106 390.38 275.106 390.78C275.106 390.993 275.079 391.2 275.026 391.4C274.979 391.6 274.906 391.8 274.806 392C274.706 392.2 274.576 392.407 274.416 392.62C274.263 392.827 274.079 393.04 273.866 393.26L271.826 395.4V395.26H275.396V396H270.856ZM276.662 392.14V391.1H277.752V392.14H276.662ZM276.662 396V394.95H277.752V396H276.662ZM281.424 396.09C280.884 396.09 280.427 395.953 280.054 395.68C279.687 395.4 279.41 394.993 279.224 394.46C279.037 393.92 278.944 393.257 278.944 392.47C278.944 391.683 279.037 391.023 279.224 390.49C279.41 389.95 279.687 389.543 280.054 389.27C280.427 388.997 280.884 388.86 281.424 388.86C281.97 388.86 282.427 388.997 282.794 389.27C283.16 389.543 283.437 389.947 283.624 390.48C283.81 391.013 283.904 391.673 283.904 392.46C283.904 393.247 283.81 393.91 283.624 394.45C283.437 394.99 283.157 395.4 282.784 395.68C282.417 395.953 281.964 396.09 281.424 396.09ZM281.424 395.35C281.977 395.35 282.387 395.117 282.654 394.65C282.92 394.177 283.054 393.447 283.054 392.46C283.054 391.473 282.92 390.75 282.654 390.29C282.394 389.83 281.984 389.6 281.424 389.6C280.87 389.6 280.46 389.833 280.194 390.3C279.927 390.76 279.794 391.483 279.794 392.47C279.794 393.45 279.927 394.177 280.194 394.65C280.46 395.117 280.87 395.35 281.424 395.35ZM287.42 396.09C286.88 396.09 286.423 395.953 286.05 395.68C285.683 395.4 285.407 394.993 285.22 394.46C285.033 393.92 284.94 393.257 284.94 392.47C284.94 391.683 285.033 391.023 285.22 390.49C285.407 389.95 285.683 389.543 286.05 389.27C286.423 388.997 286.88 388.86 287.42 388.86C287.967 388.86 288.423 388.997 288.79 389.27C289.157 389.543 289.433 389.947 289.62 390.48C289.807 391.013 289.9 391.673 289.9 392.46C289.9 393.247 289.807 393.91 289.62 394.45C289.433 394.99 289.153 395.4 288.78 395.68C288.413 395.953 287.96 396.09 287.42 396.09ZM287.42 395.35C287.973 395.35 288.383 395.117 288.65 394.65C288.917 394.177 289.05 393.447 289.05 392.46C289.05 391.473 288.917 390.75 288.65 390.29C288.39 389.83 287.98 389.6 287.42 389.6C286.867 389.6 286.457 389.833 286.19 390.3C285.923 390.76 285.79 391.483 285.79 392.47C285.79 393.45 285.923 394.177 286.19 394.65C286.457 395.117 286.867 395.35 287.42 395.35Z" fill="#AFAFB0"/>
<path d="M303.86 396V395.36L306.3 392.76C306.533 392.507 306.72 392.277 306.86 392.07C307 391.857 307.1 391.65 307.16 391.45C307.22 391.25 307.25 391.047 307.25 390.84C307.25 390.447 307.127 390.143 306.88 389.93C306.64 389.717 306.29 389.61 305.83 389.61C305.49 389.61 305.16 389.677 304.84 389.81C304.52 389.937 304.22 390.14 303.94 390.42L303.61 389.75C303.89 389.477 304.23 389.26 304.63 389.1C305.037 388.94 305.46 388.86 305.9 388.86C306.367 388.86 306.763 388.937 307.09 389.09C307.423 389.243 307.677 389.463 307.85 389.75C308.023 390.037 308.11 390.38 308.11 390.78C308.11 390.993 308.083 391.2 308.03 391.4C307.983 391.6 307.91 391.8 307.81 392C307.71 392.2 307.58 392.407 307.42 392.62C307.267 392.827 307.083 393.04 306.87 393.26L304.83 395.4V395.26H308.4V396H303.86ZM311.906 396.09C311.606 396.09 311.309 396.06 311.016 396C310.729 395.933 310.456 395.84 310.196 395.72C309.943 395.593 309.716 395.437 309.516 395.25L309.836 394.58C310.156 394.847 310.486 395.04 310.826 395.16C311.166 395.28 311.523 395.34 311.896 395.34C312.216 395.34 312.493 395.293 312.726 395.2C312.959 395.1 313.139 394.957 313.266 394.77C313.399 394.577 313.466 394.337 313.466 394.05C313.466 393.637 313.329 393.323 313.056 393.11C312.783 392.897 312.383 392.79 311.856 392.79H310.806V392.06H311.756C312.063 392.06 312.329 392.01 312.556 391.91C312.783 391.803 312.959 391.653 313.086 391.46C313.213 391.26 313.276 391.02 313.276 390.74C313.276 390.367 313.153 390.087 312.906 389.9C312.659 389.707 312.323 389.61 311.896 389.61C311.536 389.61 311.193 389.673 310.866 389.8C310.539 389.927 310.236 390.133 309.956 390.42L309.636 389.75C309.909 389.463 310.249 389.243 310.656 389.09C311.069 388.937 311.496 388.86 311.936 388.86C312.389 388.86 312.776 388.933 313.096 389.08C313.423 389.22 313.673 389.427 313.846 389.7C314.026 389.967 314.116 390.29 314.116 390.67C314.116 391.09 313.999 391.453 313.766 391.76C313.533 392.067 313.216 392.28 312.816 392.4V392.34C313.123 392.393 313.386 392.5 313.606 392.66C313.826 392.813 313.996 393.01 314.116 393.25C314.243 393.49 314.306 393.77 314.306 394.09C314.306 394.503 314.206 394.86 314.006 395.16C313.813 395.46 313.536 395.69 313.176 395.85C312.816 396.01 312.393 396.09 311.906 396.09ZM315.662 392.14V391.1H316.752V392.14H315.662ZM315.662 396V394.95H316.752V396H315.662ZM320.424 396.09C319.884 396.09 319.427 395.953 319.054 395.68C318.687 395.4 318.41 394.993 318.224 394.46C318.037 393.92 317.944 393.257 317.944 392.47C317.944 391.683 318.037 391.023 318.224 390.49C318.41 389.95 318.687 389.543 319.054 389.27C319.427 388.997 319.884 388.86 320.424 388.86C320.97 388.86 321.427 388.997 321.794 389.27C322.16 389.543 322.437 389.947 322.624 390.48C322.81 391.013 322.904 391.673 322.904 392.46C322.904 393.247 322.81 393.91 322.624 394.45C322.437 394.99 322.157 395.4 321.784 395.68C321.417 395.953 320.964 396.09 320.424 396.09ZM320.424 395.35C320.977 395.35 321.387 395.117 321.654 394.65C321.92 394.177 322.054 393.447 322.054 392.46C322.054 391.473 321.92 390.75 321.654 390.29C321.394 389.83 320.984 389.6 320.424 389.6C319.87 389.6 319.46 389.833 319.194 390.3C318.927 390.76 318.794 391.483 318.794 392.47C318.794 393.45 318.927 394.177 319.194 394.65C319.46 395.117 319.87 395.35 320.424 395.35ZM326.42 396.09C325.88 396.09 325.423 395.953 325.05 395.68C324.683 395.4 324.407 394.993 324.22 394.46C324.033 393.92 323.94 393.257 323.94 392.47C323.94 391.683 324.033 391.023 324.22 390.49C324.407 389.95 324.683 389.543 325.05 389.27C325.423 388.997 325.88 388.86 326.42 388.86C326.967 388.86 327.423 388.997 327.79 389.27C328.157 389.543 328.433 389.947 328.62 390.48C328.807 391.013 328.9 391.673 328.9 392.46C328.9 393.247 328.807 393.91 328.62 394.45C328.433 394.99 328.153 395.4 327.78 395.68C327.413 395.953 326.96 396.09 326.42 396.09ZM326.42 395.35C326.973 395.35 327.383 395.117 327.65 394.65C327.917 394.177 328.05 393.447 328.05 392.46C328.05 391.473 327.917 390.75 327.65 390.29C327.39 389.83 326.98 389.6 326.42 389.6C325.867 389.6 325.457 389.833 325.19 390.3C324.923 390.76 324.79 391.483 324.79 392.47C324.79 393.45 324.923 394.177 325.19 394.65C325.457 395.117 325.867 395.35 326.42 395.35Z" fill="#AFAFB0"/>
<path d="M347 396.09C346.46 396.09 346.003 395.953 345.63 395.68C345.263 395.4 344.987 394.993 344.8 394.46C344.613 393.92 344.52 393.257 344.52 392.47C344.52 391.683 344.613 391.023 344.8 390.49C344.987 389.95 345.263 389.543 345.63 389.27C346.003 388.997 346.46 388.86 347 388.86C347.547 388.86 348.003 388.997 348.37 389.27C348.737 389.543 349.013 389.947 349.2 390.48C349.387 391.013 349.48 391.673 349.48 392.46C349.48 393.247 349.387 393.91 349.2 394.45C349.013 394.99 348.733 395.4 348.36 395.68C347.993 395.953 347.54 396.09 347 396.09ZM347 395.35C347.553 395.35 347.963 395.117 348.23 394.65C348.497 394.177 348.63 393.447 348.63 392.46C348.63 391.473 348.497 390.75 348.23 390.29C347.97 389.83 347.56 389.6 347 389.6C346.447 389.6 346.037 389.833 345.77 390.3C345.503 390.76 345.37 391.483 345.37 392.47C345.37 393.45 345.503 394.177 345.77 394.65C346.037 395.117 346.447 395.35 347 395.35ZM352.996 396.09C352.456 396.09 351.999 395.953 351.626 395.68C351.259 395.4 350.983 394.993 350.796 394.46C350.609 393.92 350.516 393.257 350.516 392.47C350.516 391.683 350.609 391.023 350.796 390.49C350.983 389.95 351.259 389.543 351.626 389.27C351.999 388.997 352.456 388.86 352.996 388.86C353.543 388.86 353.999 388.997 354.366 389.27C354.733 389.543 355.009 389.947 355.196 390.48C355.383 391.013 355.476 391.673 355.476 392.46C355.476 393.247 355.383 393.91 355.196 394.45C355.009 394.99 354.729 395.4 354.356 395.68C353.989 395.953 353.536 396.09 352.996 396.09ZM352.996 395.35C353.549 395.35 353.959 395.117 354.226 394.65C354.493 394.177 354.626 393.447 354.626 392.46C354.626 391.473 354.493 390.75 354.226 390.29C353.966 389.83 353.556 389.6 352.996 389.6C352.443 389.6 352.033 389.833 351.766 390.3C351.499 390.76 351.366 391.483 351.366 392.47C351.366 393.45 351.499 394.177 351.766 394.65C352.033 395.117 352.443 395.35 352.996 395.35ZM356.662 392.14V391.1H357.752V392.14H356.662ZM356.662 396V394.95H357.752V396H356.662ZM361.424 396.09C360.884 396.09 360.427 395.953 360.054 395.68C359.687 395.4 359.41 394.993 359.224 394.46C359.037 393.92 358.944 393.257 358.944 392.47C358.944 391.683 359.037 391.023 359.224 390.49C359.41 389.95 359.687 389.543 360.054 389.27C360.427 388.997 360.884 388.86 361.424 388.86C361.97 388.86 362.427 388.997 362.794 389.27C363.16 389.543 363.437 389.947 363.624 390.48C363.81 391.013 363.904 391.673 363.904 392.46C363.904 393.247 363.81 393.91 363.624 394.45C363.437 394.99 363.157 395.4 362.784 395.68C362.417 395.953 361.964 396.09 361.424 396.09ZM361.424 395.35C361.977 395.35 362.387 395.117 362.654 394.65C362.92 394.177 363.054 393.447 363.054 392.46C363.054 391.473 362.92 390.75 362.654 390.29C362.394 389.83 361.984 389.6 361.424 389.6C360.87 389.6 360.46 389.833 360.194 390.3C359.927 390.76 359.794 391.483 359.794 392.47C359.794 393.45 359.927 394.177 360.194 394.65C360.46 395.117 360.87 395.35 361.424 395.35ZM367.42 396.09C366.88 396.09 366.423 395.953 366.05 395.68C365.683 395.4 365.407 394.993 365.22 394.46C365.033 393.92 364.94 393.257 364.94 392.47C364.94 391.683 365.033 391.023 365.22 390.49C365.407 389.95 365.683 389.543 366.05 389.27C366.423 388.997 366.88 388.86 367.42 388.86C367.967 388.86 368.423 388.997 368.79 389.27C369.157 389.543 369.433 389.947 369.62 390.48C369.807 391.013 369.9 391.673 369.9 392.46C369.9 393.247 369.807 393.91 369.62 394.45C369.433 394.99 369.153 395.4 368.78 395.68C368.413 395.953 367.96 396.09 367.42 396.09ZM367.42 395.35C367.973 395.35 368.383 395.117 368.65 394.65C368.917 394.177 369.05 393.447 369.05 392.46C369.05 391.473 368.917 390.75 368.65 390.29C368.39 389.83 367.98 389.6 367.42 389.6C366.867 389.6 366.457 389.833 366.19 390.3C365.923 390.76 365.79 391.483 365.79 392.47C365.79 393.45 365.923 394.177 366.19 394.65C366.457 395.117 366.867 395.35 367.42 395.35Z" fill="#AFAFB0"/>
<path d="M387 396.09C386.46 396.09 386.003 395.953 385.63 395.68C385.263 395.4 384.987 394.993 384.8 394.46C384.613 393.92 384.52 393.257 384.52 392.47C384.52 391.683 384.613 391.023 384.8 390.49C384.987 389.95 385.263 389.543 385.63 389.27C386.003 388.997 386.46 388.86 387 388.86C387.547 388.86 388.003 388.997 388.37 389.27C388.737 389.543 389.013 389.947 389.2 390.48C389.387 391.013 389.48 391.673 389.48 392.46C389.48 393.247 389.387 393.91 389.2 394.45C389.013 394.99 388.733 395.4 388.36 395.68C387.993 395.953 387.54 396.09 387 396.09ZM387 395.35C387.553 395.35 387.963 395.117 388.23 394.65C388.497 394.177 388.63 393.447 388.63 392.46C388.63 391.473 388.497 390.75 388.23 390.29C387.97 389.83 387.56 389.6 387 389.6C386.447 389.6 386.037 389.833 385.77 390.3C385.503 390.76 385.37 391.483 385.37 392.47C385.37 393.45 385.503 394.177 385.77 394.65C386.037 395.117 386.447 395.35 387 395.35ZM391.076 396V395.27H392.846V389.66L393.296 389.69L391.426 390.89L391.046 390.24L393.076 388.95H393.696V395.27H395.336V396H391.076ZM396.662 392.14V391.1H397.752V392.14H396.662ZM396.662 396V394.95H397.752V396H396.662ZM401.424 396.09C400.884 396.09 400.427 395.953 400.054 395.68C399.687 395.4 399.41 394.993 399.224 394.46C399.037 393.92 398.944 393.257 398.944 392.47C398.944 391.683 399.037 391.023 399.224 390.49C399.41 389.95 399.687 389.543 400.054 389.27C400.427 388.997 400.884 388.86 401.424 388.86C401.97 388.86 402.427 388.997 402.794 389.27C403.16 389.543 403.437 389.947 403.624 390.48C403.81 391.013 403.904 391.673 403.904 392.46C403.904 393.247 403.81 393.91 403.624 394.45C403.437 394.99 403.157 395.4 402.784 395.68C402.417 395.953 401.964 396.09 401.424 396.09ZM401.424 395.35C401.977 395.35 402.387 395.117 402.654 394.65C402.92 394.177 403.054 393.447 403.054 392.46C403.054 391.473 402.92 390.75 402.654 390.29C402.394 389.83 401.984 389.6 401.424 389.6C400.87 389.6 400.46 389.833 400.194 390.3C399.927 390.76 399.794 391.483 399.794 392.47C399.794 393.45 399.927 394.177 400.194 394.65C400.46 395.117 400.87 395.35 401.424 395.35ZM407.42 396.09C406.88 396.09 406.423 395.953 406.05 395.68C405.683 395.4 405.407 394.993 405.22 394.46C405.033 393.92 404.94 393.257 404.94 392.47C404.94 391.683 405.033 391.023 405.22 390.49C405.407 389.95 405.683 389.543 406.05 389.27C406.423 388.997 406.88 388.86 407.42 388.86C407.967 388.86 408.423 388.997 408.79 389.27C409.157 389.543 409.433 389.947 409.62 390.48C409.807 391.013 409.9 391.673 409.9 392.46C409.9 393.247 409.807 393.91 409.62 394.45C409.433 394.99 409.153 395.4 408.78 395.68C408.413 395.953 407.96 396.09 407.42 396.09ZM407.42 395.35C407.973 395.35 408.383 395.117 408.65 394.65C408.917 394.177 409.05 393.447 409.05 392.46C409.05 391.473 408.917 390.75 408.65 390.29C408.39 389.83 407.98 389.6 407.42 389.6C406.867 389.6 406.457 389.833 406.19 390.3C405.923 390.76 405.79 391.483 405.79 392.47C405.79 393.45 405.923 394.177 406.19 394.65C406.457 395.117 406.867 395.35 407.42 395.35Z" fill="#AFAFB0"/>
<path d="M426 396.09C425.46 396.09 425.003 395.953 424.63 395.68C424.263 395.4 423.987 394.993 423.8 394.46C423.613 393.92 423.52 393.257 423.52 392.47C423.52 391.683 423.613 391.023 423.8 390.49C423.987 389.95 424.263 389.543 424.63 389.27C425.003 388.997 425.46 388.86 426 388.86C426.547 388.86 427.003 388.997 427.37 389.27C427.737 389.543 428.013 389.947 428.2 390.48C428.387 391.013 428.48 391.673 428.48 392.46C428.48 393.247 428.387 393.91 428.2 394.45C428.013 394.99 427.733 395.4 427.36 395.68C426.993 395.953 426.54 396.09 426 396.09ZM426 395.35C426.553 395.35 426.963 395.117 427.23 394.65C427.497 394.177 427.63 393.447 427.63 392.46C427.63 391.473 427.497 390.75 427.23 390.29C426.97 389.83 426.56 389.6 426 389.6C425.447 389.6 425.037 389.833 424.77 390.3C424.503 390.76 424.37 391.483 424.37 392.47C424.37 393.45 424.503 394.177 424.77 394.65C425.037 395.117 425.447 395.35 426 395.35ZM429.856 396V395.36L432.296 392.76C432.529 392.507 432.716 392.277 432.856 392.07C432.996 391.857 433.096 391.65 433.156 391.45C433.216 391.25 433.246 391.047 433.246 390.84C433.246 390.447 433.123 390.143 432.876 389.93C432.636 389.717 432.286 389.61 431.826 389.61C431.486 389.61 431.156 389.677 430.836 389.81C430.516 389.937 430.216 390.14 429.936 390.42L429.606 389.75C429.886 389.477 430.226 389.26 430.626 389.1C431.033 388.94 431.456 388.86 431.896 388.86C432.363 388.86 432.759 388.937 433.086 389.09C433.419 389.243 433.673 389.463 433.846 389.75C434.019 390.037 434.106 390.38 434.106 390.78C434.106 390.993 434.079 391.2 434.026 391.4C433.979 391.6 433.906 391.8 433.806 392C433.706 392.2 433.576 392.407 433.416 392.62C433.263 392.827 433.079 393.04 432.866 393.26L430.826 395.4V395.26H434.396V396H429.856ZM435.662 392.14V391.1H436.752V392.14H435.662ZM435.662 396V394.95H436.752V396H435.662ZM440.424 396.09C439.884 396.09 439.427 395.953 439.054 395.68C438.687 395.4 438.41 394.993 438.224 394.46C438.037 393.92 437.944 393.257 437.944 392.47C437.944 391.683 438.037 391.023 438.224 390.49C438.41 389.95 438.687 389.543 439.054 389.27C439.427 388.997 439.884 388.86 440.424 388.86C440.97 388.86 441.427 388.997 441.794 389.27C442.16 389.543 442.437 389.947 442.624 390.48C442.81 391.013 442.904 391.673 442.904 392.46C442.904 393.247 442.81 393.91 442.624 394.45C442.437 394.99 442.157 395.4 441.784 395.68C441.417 395.953 440.964 396.09 440.424 396.09ZM440.424 395.35C440.977 395.35 441.387 395.117 441.654 394.65C441.92 394.177 442.054 393.447 442.054 392.46C442.054 391.473 441.92 390.75 441.654 390.29C441.394 389.83 440.984 389.6 440.424 389.6C439.87 389.6 439.46 389.833 439.194 390.3C438.927 390.76 438.794 391.483 438.794 392.47C438.794 393.45 438.927 394.177 439.194 394.65C439.46 395.117 439.87 395.35 440.424 395.35ZM446.42 396.09C445.88 396.09 445.423 395.953 445.05 395.68C444.683 395.4 444.407 394.993 444.22 394.46C444.033 393.92 443.94 393.257 443.94 392.47C443.94 391.683 444.033 391.023 444.22 390.49C444.407 389.95 444.683 389.543 445.05 389.27C445.423 388.997 445.88 388.86 446.42 388.86C446.967 388.86 447.423 388.997 447.79 389.27C448.157 389.543 448.433 389.947 448.62 390.48C448.807 391.013 448.9 391.673 448.9 392.46C448.9 393.247 448.807 393.91 448.62 394.45C448.433 394.99 448.153 395.4 447.78 395.68C447.413 395.953 446.96 396.09 446.42 396.09ZM446.42 395.35C446.973 395.35 447.383 395.117 447.65 394.65C447.917 394.177 448.05 393.447 448.05 392.46C448.05 391.473 447.917 390.75 447.65 390.29C447.39 389.83 446.98 389.6 446.42 389.6C445.867 389.6 445.457 389.833 445.19 390.3C444.923 390.76 444.79 391.483 444.79 392.47C444.79 393.45 444.923 394.177 445.19 394.65C445.457 395.117 445.867 395.35 446.42 395.35Z" fill="#AFAFB0"/>
<path d="M467 396.09C466.46 396.09 466.003 395.953 465.63 395.68C465.263 395.4 464.987 394.993 464.8 394.46C464.613 393.92 464.52 393.257 464.52 392.47C464.52 391.683 464.613 391.023 464.8 390.49C464.987 389.95 465.263 389.543 465.63 389.27C466.003 388.997 466.46 388.86 467 388.86C467.547 388.86 468.003 388.997 468.37 389.27C468.737 389.543 469.013 389.947 469.2 390.48C469.387 391.013 469.48 391.673 469.48 392.46C469.48 393.247 469.387 393.91 469.2 394.45C469.013 394.99 468.733 395.4 468.36 395.68C467.993 395.953 467.54 396.09 467 396.09ZM467 395.35C467.553 395.35 467.963 395.117 468.23 394.65C468.497 394.177 468.63 393.447 468.63 392.46C468.63 391.473 468.497 390.75 468.23 390.29C467.97 389.83 467.56 389.6 467 389.6C466.447 389.6 466.037 389.833 465.77 390.3C465.503 390.76 465.37 391.483 465.37 392.47C465.37 393.45 465.503 394.177 465.77 394.65C466.037 395.117 466.447 395.35 467 395.35ZM472.906 396.09C472.606 396.09 472.309 396.06 472.016 396C471.729 395.933 471.456 395.84 471.196 395.72C470.943 395.593 470.716 395.437 470.516 395.25L470.836 394.58C471.156 394.847 471.486 395.04 471.826 395.16C472.166 395.28 472.523 395.34 472.896 395.34C473.216 395.34 473.493 395.293 473.726 395.2C473.959 395.1 474.139 394.957 474.266 394.77C474.399 394.577 474.466 394.337 474.466 394.05C474.466 393.637 474.329 393.323 474.056 393.11C473.783 392.897 473.383 392.79 472.856 392.79H471.806V392.06H472.756C473.063 392.06 473.329 392.01 473.556 391.91C473.783 391.803 473.959 391.653 474.086 391.46C474.213 391.26 474.276 391.02 474.276 390.74C474.276 390.367 474.153 390.087 473.906 389.9C473.659 389.707 473.323 389.61 472.896 389.61C472.536 389.61 472.193 389.673 471.866 389.8C471.539 389.927 471.236 390.133 470.956 390.42L470.636 389.75C470.909 389.463 471.249 389.243 471.656 389.09C472.069 388.937 472.496 388.86 472.936 388.86C473.389 388.86 473.776 388.933 474.096 389.08C474.423 389.22 474.673 389.427 474.846 389.7C475.026 389.967 475.116 390.29 475.116 390.67C475.116 391.09 474.999 391.453 474.766 391.76C474.533 392.067 474.216 392.28 473.816 392.4V392.34C474.123 392.393 474.386 392.5 474.606 392.66C474.826 392.813 474.996 393.01 475.116 393.25C475.243 393.49 475.306 393.77 475.306 394.09C475.306 394.503 475.206 394.86 475.006 395.16C474.813 395.46 474.536 395.69 474.176 395.85C473.816 396.01 473.393 396.09 472.906 396.09ZM476.662 392.14V391.1H477.752V392.14H476.662ZM476.662 396V394.95H477.752V396H476.662ZM481.424 396.09C480.884 396.09 480.427 395.953 480.054 395.68C479.687 395.4 479.41 394.993 479.224 394.46C479.037 393.92 478.944 393.257 478.944 392.47C478.944 391.683 479.037 391.023 479.224 390.49C479.41 389.95 479.687 389.543 480.054 389.27C480.427 388.997 480.884 388.86 481.424 388.86C481.97 388.86 482.427 388.997 482.794 389.27C483.16 389.543 483.437 389.947 483.624 390.48C483.81 391.013 483.904 391.673 483.904 392.46C483.904 393.247 483.81 393.91 483.624 394.45C483.437 394.99 483.157 395.4 482.784 395.68C482.417 395.953 481.964 396.09 481.424 396.09ZM481.424 395.35C481.977 395.35 482.387 395.117 482.654 394.65C482.92 394.177 483.054 393.447 483.054 392.46C483.054 391.473 482.92 390.75 482.654 390.29C482.394 389.83 481.984 389.6 481.424 389.6C480.87 389.6 480.46 389.833 480.194 390.3C479.927 390.76 479.794 391.483 479.794 392.47C479.794 393.45 479.927 394.177 480.194 394.65C480.46 395.117 480.87 395.35 481.424 395.35ZM487.42 396.09C486.88 396.09 486.423 395.953 486.05 395.68C485.683 395.4 485.407 394.993 485.22 394.46C485.033 393.92 484.94 393.257 484.94 392.47C484.94 391.683 485.033 391.023 485.22 390.49C485.407 389.95 485.683 389.543 486.05 389.27C486.423 388.997 486.88 388.86 487.42 388.86C487.967 388.86 488.423 388.997 488.79 389.27C489.157 389.543 489.433 389.947 489.62 390.48C489.807 391.013 489.9 391.673 489.9 392.46C489.9 393.247 489.807 393.91 489.62 394.45C489.433 394.99 489.153 395.4 488.78 395.68C488.413 395.953 487.96 396.09 487.42 396.09ZM487.42 395.35C487.973 395.35 488.383 395.117 488.65 394.65C488.917 394.177 489.05 393.447 489.05 392.46C489.05 391.473 488.917 390.75 488.65 390.29C488.39 389.83 487.98 389.6 487.42 389.6C486.867 389.6 486.457 389.833 486.19 390.3C485.923 390.76 485.79 391.483 485.79 392.47C485.79 393.45 485.923 394.177 486.19 394.65C486.457 395.117 486.867 395.35 487.42 395.35Z" fill="#AFAFB0"/>
<path d="M27.14 44L20.98 29.9H22.74L28.24 42.68H27.6L33.08 29.9H34.8L28.62 44H27.14ZM39.1772 44.18C38.2305 44.18 37.4105 43.9733 36.7172 43.56C36.0239 43.1467 35.4839 42.5667 35.0972 41.82C34.7239 41.06 34.5372 40.1667 34.5372 39.14C34.5372 38.1133 34.7239 37.2267 35.0972 36.48C35.4839 35.72 36.0239 35.1333 36.7172 34.72C37.4105 34.3067 38.2305 34.1 39.1772 34.1C40.1239 34.1 40.9439 34.3067 41.6372 34.72C42.3305 35.1333 42.8639 35.72 43.2372 36.48C43.6239 37.2267 43.8172 38.1133 43.8172 39.14C43.8172 40.1667 43.6239 41.06 43.2372 41.82C42.8639 42.5667 42.3305 43.1467 41.6372 43.56C40.9439 43.9733 40.1239 44.18 39.1772 44.18ZM39.1772 42.88C40.0972 42.88 40.8239 42.56 41.3572 41.92C41.9039 41.2667 42.1772 40.3333 42.1772 39.12C42.1772 37.92 41.9039 37 41.3572 36.36C40.8239 35.72 40.0972 35.4 39.1772 35.4C38.2705 35.4 37.5439 35.72 36.9972 36.36C36.4505 37 36.1772 37.92 36.1772 39.12C36.1772 40.3333 36.4505 41.2667 36.9972 41.92C37.5439 42.56 38.2705 42.88 39.1772 42.88ZM46.0505 31.86V30.04H48.0505V31.86H46.0505ZM46.2505 44V34.28H47.8705V44H46.2505ZM55.0189 44.18C54.0456 44.18 53.2056 43.9667 52.4989 43.54C51.7922 43.1133 51.2456 42.52 50.8589 41.76C50.4856 40.9867 50.2989 40.0933 50.2989 39.08C50.2989 38.0533 50.4856 37.1667 50.8589 36.42C51.2456 35.6733 51.7922 35.1 52.4989 34.7C53.2056 34.3 54.0456 34.1 55.0189 34.1C55.6189 34.1 56.2122 34.2067 56.7989 34.42C57.3856 34.6333 57.8722 34.9333 58.2589 35.32L57.6989 36.5C57.3122 36.1267 56.8856 35.8533 56.4189 35.68C55.9656 35.5067 55.5322 35.42 55.1189 35.42C54.1056 35.42 53.3256 35.74 52.7789 36.38C52.2322 37.0067 51.9589 37.9133 51.9589 39.1C51.9589 40.26 52.2322 41.18 52.7789 41.86C53.3256 42.5267 54.1056 42.86 55.1189 42.86C55.5322 42.86 55.9656 42.7733 56.4189 42.6C56.8856 42.4267 57.3122 42.1467 57.6989 41.76L58.2589 42.94C57.8722 43.3267 57.3789 43.6333 56.7789 43.86C56.1922 44.0733 55.6056 44.18 55.0189 44.18ZM64.3414 44.18C63.3147 44.18 62.4281 43.98 61.6814 43.58C60.9481 43.1667 60.3747 42.5867 59.9614 41.84C59.5614 41.0933 59.3614 40.2 59.3614 39.16C59.3614 38.1467 59.5614 37.2667 59.9614 36.52C60.3614 35.76 60.9081 35.1667 61.6014 34.74C62.3081 34.3133 63.1214 34.1 64.0414 34.1C64.9214 34.1 65.6747 34.2933 66.3014 34.68C66.9281 35.0667 67.4081 35.6133 67.7414 36.32C68.0881 37.0267 68.2614 37.8733 68.2614 38.86V39.48H60.6014V38.42H67.1814L66.8614 38.68C66.8614 37.6133 66.6214 36.7867 66.1414 36.2C65.6747 35.6 64.9881 35.3 64.0814 35.3C63.4014 35.3 62.8214 35.46 62.3414 35.78C61.8747 36.0867 61.5214 36.52 61.2814 37.08C61.0414 37.6267 60.9214 38.2667 60.9214 39V39.12C60.9214 39.9333 61.0481 40.62 61.3014 41.18C61.5681 41.74 61.9614 42.1667 62.4814 42.46C63.0014 42.74 63.6214 42.88 64.3414 42.88C64.9147 42.88 65.4681 42.7933 66.0014 42.62C66.5481 42.4333 67.0614 42.1333 67.5414 41.72L68.1014 42.86C67.6614 43.26 67.1014 43.58 66.4214 43.82C65.7414 44.06 65.0481 44.18 64.3414 44.18ZM73.8859 44.18C73.3793 44.18 72.8859 44.1267 72.4059 44.02C71.9393 43.9267 71.4993 43.7933 71.0859 43.62C70.6859 43.4333 70.3393 43.2133 70.0459 42.96L70.5659 41.82C70.8859 42.0733 71.2326 42.2867 71.6059 42.46C71.9793 42.62 72.3593 42.74 72.7459 42.82C73.1326 42.9 73.5259 42.94 73.9259 42.94C74.6859 42.94 75.2593 42.8 75.6459 42.52C76.0326 42.24 76.2259 41.86 76.2259 41.38C76.2259 41.0067 76.0993 40.7133 75.8459 40.5C75.5926 40.2733 75.1926 40.1 74.6459 39.98L72.8259 39.58C71.9859 39.4067 71.3593 39.1067 70.9459 38.68C70.5459 38.2533 70.3459 37.7 70.3459 37.02C70.3459 36.42 70.4993 35.9067 70.8059 35.48C71.1259 35.04 71.5726 34.7 72.1459 34.46C72.7193 34.22 73.3859 34.1 74.1459 34.1C74.5993 34.1 75.0326 34.1467 75.4459 34.24C75.8593 34.3333 76.2459 34.4733 76.6059 34.66C76.9793 34.8333 77.2993 35.0533 77.5659 35.32L77.0259 36.46C76.7726 36.22 76.4859 36.02 76.1659 35.86C75.8459 35.6867 75.5126 35.56 75.1659 35.48C74.8326 35.3867 74.4926 35.34 74.1459 35.34C73.3993 35.34 72.8326 35.4867 72.4459 35.78C72.0593 36.0733 71.8659 36.46 71.8659 36.94C71.8659 37.3133 71.9859 37.62 72.2259 37.86C72.4659 38.1 72.8393 38.2733 73.3459 38.38L75.1659 38.76C76.0326 38.9467 76.6793 39.2467 77.1059 39.66C77.5459 40.06 77.7659 40.6067 77.7659 41.3C77.7659 41.8867 77.6059 42.4 77.2859 42.84C76.9659 43.2667 76.5126 43.6 75.9259 43.84C75.3526 44.0667 74.6726 44.18 73.8859 44.18ZM91.5116 44.18C90.5382 44.18 89.6516 44.0133 88.8516 43.68C88.0516 43.3333 87.3716 42.8467 86.8116 42.22C86.2516 41.5933 85.8182 40.8333 85.5116 39.94C85.2182 39.0467 85.0716 38.0467 85.0716 36.94C85.0716 35.82 85.2182 34.82 85.5116 33.94C85.8182 33.0467 86.2516 32.2933 86.8116 31.68C87.3716 31.0533 88.0449 30.5733 88.8316 30.24C89.6316 29.8933 90.5249 29.72 91.5116 29.72C92.5116 29.72 93.4049 29.8867 94.1916 30.22C94.9916 30.5533 95.6716 31.0333 96.2316 31.66C96.8049 32.2867 97.2382 33.0467 97.5316 33.94C97.8382 34.82 97.9916 35.8133 97.9916 36.92C97.9916 38.04 97.8382 39.0467 97.5316 39.94C97.2249 40.8333 96.7916 41.5933 96.2316 42.22C95.6716 42.8467 94.9916 43.3333 94.1916 43.68C93.4049 44.0133 92.5116 44.18 91.5116 44.18ZM91.5116 42.72C92.5249 42.72 93.3782 42.4933 94.0716 42.04C94.7782 41.5867 95.3182 40.9267 95.6916 40.06C96.0649 39.1933 96.2516 38.1533 96.2516 36.94C96.2516 35.7133 96.0649 34.6733 95.6916 33.82C95.3182 32.9667 94.7782 32.3133 94.0716 31.86C93.3782 31.4067 92.5249 31.18 91.5116 31.18C90.5249 31.18 89.6782 31.4067 88.9716 31.86C88.2782 32.3133 87.7449 32.9733 87.3716 33.84C86.9982 34.6933 86.8116 35.7267 86.8116 36.94C86.8116 38.1533 86.9982 39.1933 87.3716 40.06C87.7449 40.9133 88.2782 41.5733 88.9716 42.04C89.6782 42.4933 90.5249 42.72 91.5116 42.72ZM100.704 44V34.28H102.284V36.44H102.064C102.344 35.6667 102.797 35.0867 103.424 34.7C104.064 34.3 104.797 34.1 105.624 34.1C106.397 34.1 107.037 34.24 107.544 34.52C108.064 34.7867 108.45 35.2067 108.704 35.78C108.957 36.3533 109.084 37.0733 109.084 37.94V44H107.464V38.04C107.464 37.44 107.384 36.9467 107.224 36.56C107.077 36.1733 106.837 35.8867 106.504 35.7C106.184 35.5133 105.764 35.42 105.244 35.42C104.657 35.42 104.144 35.5467 103.704 35.8C103.264 36.0533 102.924 36.4067 102.684 36.86C102.444 37.3133 102.324 37.8467 102.324 38.46V44H100.704ZM115.051 44.18C114.064 44.18 113.317 43.8867 112.811 43.3C112.317 42.7133 112.071 41.8733 112.071 40.78V29.9H113.691V40.66C113.691 41.1267 113.751 41.52 113.871 41.84C114.004 42.16 114.197 42.4 114.451 42.56C114.704 42.72 115.017 42.8 115.391 42.8C115.551 42.8 115.704 42.7933 115.851 42.78C116.011 42.7533 116.157 42.72 116.291 42.68L116.251 44.04C116.037 44.08 115.831 44.1133 115.631 44.14C115.444 44.1667 115.251 44.18 115.051 44.18ZM117.789 31.86V30.04H119.789V31.86H117.789ZM117.989 44V34.28H119.609V44H117.989ZM122.637 44V34.28H124.217V36.44H123.997C124.277 35.6667 124.731 35.0867 125.357 34.7C125.997 34.3 126.731 34.1 127.557 34.1C128.331 34.1 128.971 34.24 129.477 34.52C129.997 34.7867 130.384 35.2067 130.637 35.78C130.891 36.3533 131.017 37.0733 131.017 37.94V44H129.397V38.04C129.397 37.44 129.317 36.9467 129.157 36.56C129.011 36.1733 128.771 35.8867 128.437 35.7C128.117 35.5133 127.697 35.42 127.177 35.42C126.591 35.42 126.077 35.5467 125.637 35.8C125.197 36.0533 124.857 36.4067 124.617 36.86C124.377 37.3133 124.257 37.8467 124.257 38.46V44H122.637ZM138.384 44.18C137.358 44.18 136.471 43.98 135.724 43.58C134.991 43.1667 134.418 42.5867 134.004 41.84C133.604 41.0933 133.404 40.2 133.404 39.16C133.404 38.1467 133.604 37.2667 134.004 36.52C134.404 35.76 134.951 35.1667 135.644 34.74C136.351 34.3133 137.164 34.1 138.084 34.1C138.964 34.1 139.718 34.2933 140.344 34.68C140.971 35.0667 141.451 35.6133 141.784 36.32C142.131 37.0267 142.304 37.8733 142.304 38.86V39.48H134.644V38.42H141.224L140.904 38.68C140.904 37.6133 140.664 36.7867 140.184 36.2C139.718 35.6 139.031 35.3 138.124 35.3C137.444 35.3 136.864 35.46 136.384 35.78C135.918 36.0867 135.564 36.52 135.324 37.08C135.084 37.6267 134.964 38.2667 134.964 39V39.12C134.964 39.9333 135.091 40.62 135.344 41.18C135.611 41.74 136.004 42.1667 136.524 42.46C137.044 42.74 137.664 42.88 138.384 42.88C138.958 42.88 139.511 42.7933 140.044 42.62C140.591 42.4333 141.104 42.1333 141.584 41.72L142.144 42.86C141.704 43.26 141.144 43.58 140.464 43.82C139.784 44.06 139.091 44.18 138.384 44.18ZM150.006 44V29.9H151.286L160.266 41.88H159.786V29.9H161.306V44H160.066L151.086 32.02H151.546V44H150.006ZM168.63 44.18C167.684 44.18 166.864 43.9733 166.17 43.56C165.477 43.1467 164.937 42.5667 164.55 41.82C164.177 41.06 163.99 40.1667 163.99 39.14C163.99 38.1133 164.177 37.2267 164.55 36.48C164.937 35.72 165.477 35.1333 166.17 34.72C166.864 34.3067 167.684 34.1 168.63 34.1C169.577 34.1 170.397 34.3067 171.09 34.72C171.784 35.1333 172.317 35.72 172.69 36.48C173.077 37.2267 173.27 38.1133 173.27 39.14C173.27 40.1667 173.077 41.06 172.69 41.82C172.317 42.5667 171.784 43.1467 171.09 43.56C170.397 43.9733 169.577 44.18 168.63 44.18ZM168.63 42.88C169.55 42.88 170.277 42.56 170.81 41.92C171.357 41.2667 171.63 40.3333 171.63 39.12C171.63 37.92 171.357 37 170.81 36.36C170.277 35.72 169.55 35.4 168.63 35.4C167.724 35.4 166.997 35.72 166.45 36.36C165.904 37 165.63 37.92 165.63 39.12C165.63 40.3333 165.904 41.2667 166.45 41.92C166.997 42.56 167.724 42.88 168.63 42.88ZM178.147 44L174.527 34.28H176.227L179.207 42.8H178.727L181.807 34.28H183.187L186.207 42.8H185.747L188.767 34.28H190.387L186.747 44H185.207L182.027 35.26H182.887L179.707 44H178.147Z" fill="#040408"/>
<path d="M22.7 78V76.46L27.4 71.42C27.84 70.94 28.1933 70.5 28.46 70.1C28.7267 69.6867 28.92 69.2933 29.04 68.92C29.1733 68.5333 29.24 68.1467 29.24 67.76C29.24 67.0133 29.0133 66.4467 28.56 66.06C28.1067 65.6733 27.44 65.48 26.56 65.48C25.88 65.48 25.2333 65.6067 24.62 65.86C24.02 66.1133 23.4467 66.5 22.9 67.02L22.16 65.44C22.6933 64.92 23.3733 64.5067 24.2 64.2C25.0267 63.88 25.8867 63.72 26.78 63.72C27.7533 63.72 28.5733 63.8733 29.24 64.18C29.92 64.4733 30.4333 64.9067 30.78 65.48C31.1267 66.0533 31.3 66.7533 31.3 67.58C31.3 68.0067 31.2467 68.4267 31.14 68.84C31.0467 69.24 30.8933 69.64 30.68 70.04C30.48 70.44 30.22 70.8533 29.9 71.28C29.5933 71.7067 29.22 72.1467 28.78 72.6L24.76 76.84V76.26H31.86V78H22.7ZM38.9922 78.18C37.8989 78.18 36.9789 77.9 36.2322 77.34C35.4855 76.78 34.9189 75.9667 34.5322 74.9C34.1455 73.82 33.9522 72.5 33.9522 70.94C33.9522 69.3533 34.1455 68.0267 34.5322 66.96C34.9189 65.8933 35.4855 65.0867 36.2322 64.54C36.9789 63.9933 37.8989 63.72 38.9922 63.72C40.0989 63.72 41.0255 63.9933 41.7722 64.54C42.5189 65.0733 43.0789 65.8733 43.4522 66.94C43.8389 68.0067 44.0322 69.3333 44.0322 70.92C44.0322 72.48 43.8389 73.8 43.4522 74.88C43.0655 75.96 42.4989 76.78 41.7522 77.34C41.0055 77.9 40.0855 78.18 38.9922 78.18ZM38.9922 76.46C40.0189 76.46 40.7722 76.0133 41.2522 75.12C41.7455 74.2267 41.9922 72.8267 41.9922 70.92C41.9922 69.0133 41.7455 67.6267 41.2522 66.76C40.7722 65.88 40.0189 65.44 38.9922 65.44C37.9789 65.44 37.2255 65.88 36.7322 66.76C36.2389 67.6267 35.9922 69.0133 35.9922 70.92C35.9922 72.8267 36.2389 74.2267 36.7322 75.12C37.2255 76.0133 37.9789 76.46 38.9922 76.46Z" fill="#25C7DC"/>
<rect x="329.3" y="24.3" width="211.4" height="51.4" rx="9.7" stroke="#DADADA" stroke-width="0.6"/>
<path d="M349.24 55.5L354.232 44.22H355.496L360.488 55.5H358.968L357.592 52.3L358.28 52.684H351.432L352.12 52.3L350.76 55.5H349.24ZM354.84 45.9L352.344 51.804L351.96 51.468H357.752L357.384 51.804L354.872 45.9H354.84ZM362.094 55.5V44.22H363.582V54.22H369.23V55.5H362.094ZM370.86 55.5V44.22H372.348V54.22H377.996V55.5H370.86ZM383.782 55.5V44.22H385.27V54.22H390.918V55.5H383.782ZM391.115 55.5L396.107 44.22H397.371L402.363 55.5H400.843L399.467 52.3L400.155 52.684H393.307L393.995 52.3L392.635 55.5H391.115ZM396.715 45.9L394.219 51.804L393.835 51.468H399.627L399.259 51.804L396.747 45.9H396.715ZM403.969 55.5V44.22H405.105L412.129 53.532H411.729V44.22H413.121V55.5H412.001L404.977 46.172H405.345V55.5H403.969ZM421.029 55.644C419.823 55.644 418.799 55.4147 417.957 54.956C417.125 54.4867 416.49 53.82 416.053 52.956C415.626 52.092 415.413 51.0627 415.413 49.868C415.413 48.6733 415.631 47.644 416.069 46.78C416.506 45.916 417.13 45.2493 417.941 44.78C418.762 44.3107 419.743 44.076 420.885 44.076C421.418 44.076 421.925 44.1293 422.405 44.236C422.885 44.3427 423.327 44.4973 423.733 44.7C424.149 44.9027 424.506 45.1587 424.805 45.468L424.261 46.636C423.749 46.1987 423.221 45.884 422.677 45.692C422.143 45.5 421.546 45.404 420.885 45.404C419.615 45.404 418.645 45.7933 417.973 46.572C417.311 47.34 416.981 48.4387 416.981 49.868C416.981 51.3293 417.322 52.4387 418.005 53.196C418.698 53.9533 419.722 54.332 421.077 54.332C421.578 54.332 422.063 54.284 422.533 54.188C423.013 54.092 423.471 53.9587 423.909 53.788L423.589 54.588V50.732H420.789V49.58H424.869V54.844C424.559 55.004 424.191 55.1427 423.765 55.26C423.338 55.3773 422.89 55.468 422.421 55.532C421.951 55.6067 421.487 55.644 421.029 55.644ZM431.981 55.644C430.488 55.644 429.352 55.2493 428.573 54.46C427.794 53.6707 427.405 52.5133 427.405 50.988V44.22H428.893V50.94C428.893 52.0813 429.154 52.9347 429.677 53.5C430.2 54.0547 430.968 54.332 431.981 54.332C432.994 54.332 433.762 54.0547 434.285 53.5C434.808 52.9347 435.069 52.0813 435.069 50.94V44.22H436.541V50.988C436.541 52.5133 436.152 53.6707 435.373 54.46C434.605 55.2493 433.474 55.644 431.981 55.644ZM437.99 55.5L442.982 44.22H444.246L449.238 55.5H447.718L446.342 52.3L447.03 52.684H440.182L440.87 52.3L439.51 55.5H437.99ZM443.59 45.9L441.094 51.804L440.71 51.468H446.502L446.134 51.804L443.622 45.9H443.59ZM455.841 55.644C454.636 55.644 453.612 55.4147 452.769 54.956C451.937 54.4867 451.303 53.82 450.865 52.956C450.439 52.092 450.225 51.0627 450.225 49.868C450.225 48.6733 450.444 47.644 450.881 46.78C451.319 45.916 451.943 45.2493 452.753 44.78C453.575 44.3107 454.556 44.076 455.697 44.076C456.231 44.076 456.737 44.1293 457.217 44.236C457.697 44.3427 458.14 44.4973 458.545 44.7C458.961 44.9027 459.319 45.1587 459.617 45.468L459.073 46.636C458.561 46.1987 458.033 45.884 457.489 45.692C456.956 45.5 456.359 45.404 455.697 45.404C454.428 45.404 453.457 45.7933 452.785 46.572C452.124 47.34 451.793 48.4387 451.793 49.868C451.793 51.3293 452.135 52.4387 452.817 53.196C453.511 53.9533 454.535 54.332 455.889 54.332C456.391 54.332 456.876 54.284 457.345 54.188C457.825 54.092 458.284 53.9587 458.721 53.788L458.401 54.588V50.732H455.601V49.58H459.681V54.844C459.372 55.004 459.004 55.1427 458.577 55.26C458.151 55.3773 457.703 55.468 457.233 55.532C456.764 55.6067 456.3 55.644 455.841 55.644ZM462.298 55.5V44.22H469.498V45.436H463.738V49.164H469.161V50.38H463.738V54.284H469.498V55.5H462.298ZM475.212 55.644C474.626 55.644 474.071 55.596 473.548 55.5C473.026 55.3933 472.546 55.244 472.108 55.052C471.671 54.8493 471.276 54.604 470.924 54.316L471.436 53.132C471.788 53.3987 472.156 53.628 472.54 53.82C472.924 54.0013 473.335 54.14 473.772 54.236C474.21 54.3213 474.69 54.364 475.212 54.364C476.151 54.364 476.839 54.1933 477.276 53.852C477.724 53.5107 477.948 53.0627 477.948 52.508C477.948 52.1987 477.879 51.9373 477.74 51.724C477.602 51.5107 477.378 51.3293 477.068 51.18C476.759 51.0307 476.354 50.908 475.852 50.812L474.156 50.46C473.154 50.2467 472.402 49.8947 471.9 49.404C471.41 48.9133 471.164 48.2573 471.164 47.436C471.164 46.764 471.34 46.1773 471.692 45.676C472.055 45.164 472.546 44.7693 473.164 44.492C473.794 44.2147 474.519 44.076 475.34 44.076C475.852 44.076 476.338 44.1293 476.796 44.236C477.255 44.332 477.682 44.4867 478.076 44.7C478.471 44.9027 478.818 45.1533 479.116 45.452L478.62 46.588C478.151 46.1613 477.65 45.852 477.116 45.66C476.583 45.4573 475.986 45.356 475.324 45.356C474.78 45.356 474.306 45.4413 473.9 45.612C473.506 45.7827 473.196 46.0227 472.972 46.332C472.759 46.6307 472.652 46.9827 472.652 47.388C472.652 47.8787 472.802 48.2627 473.1 48.54C473.399 48.8173 473.9 49.0307 474.604 49.18L476.284 49.516C477.351 49.74 478.14 50.0867 478.652 50.556C479.175 51.0147 479.436 51.6333 479.436 52.412C479.436 53.052 479.266 53.6173 478.924 54.108C478.583 54.588 478.092 54.9667 477.452 55.244C476.823 55.5107 476.076 55.644 475.212 55.644Z" fill="#AFAFB0"/>
<path d="M505 56.4C504.067 56.4 503.133 56.04 502.427 55.3333L493.733 46.64C493.347 46.2533 493.347 45.6133 493.733 45.2266C494.12 44.84 494.76 44.84 495.147 45.2266L503.84 53.92C504.48 54.56 505.52 54.56 506.16 53.92L514.853 45.2266C515.24 44.84 515.88 44.84 516.267 45.2266C516.653 45.6133 516.653 46.2533 516.267 46.64L507.573 55.3333C506.867 56.04 505.933 56.4 505 56.4Z" fill="#4F4F4F"/>
<rect x="67" y="129" width="20" height="241" fill="#DADADA"/>
<rect x="67" y="227" width="20" height="143" fill="url(#paint0_linear_19_548)"/>
<rect x="107" y="129" width="20" height="241" fill="#DADADA"/>
<rect x="107" y="176" width="20" height="194" fill="url(#paint1_linear_19_548)"/>
<rect x="147" y="129" width="20" height="241" fill="#DADADA"/>
<rect x="147" y="282" width="20" height="88" fill="url(#paint2_linear_19_548)"/>
<rect x="187" y="129" width="20" height="241" fill="#DADADA"/>
<rect x="187" y="201" width="20" height="169" fill="url(#paint3_linear_19_548)"/>
<rect x="227" y="129" width="20" height="241" fill="#DADADA"/>
<rect x="227" y="276" width="20" height="94" fill="url(#paint4_linear_19_548)"/>
<rect x="267" y="129" width="20" height="241" fill="#DADADA"/>
<rect x="267" y="254" width="20" height="116" fill="url(#paint5_linear_19_548)"/>
<rect x="307" y="129" width="20" height="241" fill="#DADADA"/>
<rect x="307" y="267" width="20" height="103" fill="url(#paint6_linear_19_548)"/>
<rect x="347" y="129" width="20" height="241" fill="#DADADA"/>
<rect x="347" y="193" width="20" height="177" fill="url(#paint7_linear_19_548)"/>
<rect x="387" y="129" width="20" height="241" fill="#DADADA"/>
<rect x="387" y="254" width="20" height="116" fill="url(#paint8_linear_19_548)"/>
<rect x="427" y="129" width="20" height="241" fill="#DADADA"/>
<rect x="427" y="267" width="20" height="103" fill="url(#paint9_linear_19_548)"/>
<rect x="467" y="129" width="20" height="241" fill="#DADADA"/>
<rect x="467" y="227" width="20" height="143" fill="url(#paint10_linear_19_548)"/>
<defs>
<linearGradient id="paint0_linear_19_548" x1="77" y1="227" x2="77" y2="370" gradientUnits="userSpaceOnUse">
<stop stop-color="#00013A"/>
<stop offset="1" stop-color="#345763" stop-opacity="0.3"/>
</linearGradient>
<linearGradient id="paint1_linear_19_548" x1="117" y1="176" x2="117" y2="370" gradientUnits="userSpaceOnUse">
<stop stop-color="#00013A"/>
<stop offset="1" stop-color="#345763" stop-opacity="0.3"/>
</linearGradient>
<linearGradient id="paint2_linear_19_548" x1="157" y1="282" x2="157" y2="370" gradientUnits="userSpaceOnUse">
<stop stop-color="#00013A"/>
<stop offset="1" stop-color="#345763" stop-opacity="0.3"/>
</linearGradient>
<linearGradient id="paint3_linear_19_548" x1="197" y1="201" x2="197" y2="370" gradientUnits="userSpaceOnUse">
<stop stop-color="#00013A"/>
<stop offset="1" stop-color="#345763" stop-opacity="0.3"/>
</linearGradient>
<linearGradient id="paint4_linear_19_548" x1="237" y1="276" x2="237" y2="370" gradientUnits="userSpaceOnUse">
<stop stop-color="#00013A"/>
<stop offset="1" stop-color="#345763" stop-opacity="0.3"/>
</linearGradient>
<linearGradient id="paint5_linear_19_548" x1="277" y1="254" x2="277" y2="370" gradientUnits="userSpaceOnUse">
<stop stop-color="#00013A"/>
<stop offset="1" stop-color="#345763" stop-opacity="0.3"/>
</linearGradient>
<linearGradient id="paint6_linear_19_548" x1="317" y1="267" x2="317" y2="370" gradientUnits="userSpaceOnUse">
<stop stop-color="#00013A"/>
<stop offset="1" stop-color="#345763" stop-opacity="0.3"/>
</linearGradient>
<linearGradient id="paint7_linear_19_548" x1="357" y1="193" x2="357" y2="370" gradientUnits="userSpaceOnUse">
<stop stop-color="#00013A"/>
<stop offset="1" stop-color="#345763" stop-opacity="0.3"/>
</linearGradient>
<linearGradient id="paint8_linear_19_548" x1="397" y1="254" x2="397" y2="370" gradientUnits="userSpaceOnUse">
<stop stop-color="#00013A"/>
<stop offset="1" stop-color="#345763" stop-opacity="0.3"/>
</linearGradient>
<linearGradient id="paint9_linear_19_548" x1="437" y1="267" x2="437" y2="370" gradientUnits="userSpaceOnUse">
<stop stop-color="#00013A"/>
<stop offset="1" stop-color="#345763" stop-opacity="0.3"/>
</linearGradient>
<linearGradient id="paint10_linear_19_548" x1="477" y1="227" x2="477" y2="370" gradientUnits="userSpaceOnUse">
<stop stop-color="#F2876A"/>
<stop offset="1" stop-color="#8C4E3D" stop-opacity="0.2"/>
</linearGradient>
</defs>
</svg>
