<svg width="561" height="438" viewBox="0 0 561 438" fill="none" xmlns="http://www.w3.org/2000/svg">
<rect x="0.3" y="0.3" width="560.4" height="437.4" rx="19.7" stroke="#DADADA" stroke-width="0.6"/>
<line x1="71" y1="129.7" x2="541" y2="129.7" stroke="#DADADA" stroke-width="0.6"/>
<line x1="71" y1="169.7" x2="541" y2="169.7" stroke="#DADADA" stroke-width="0.6"/>
<line x1="71" y1="209.7" x2="541" y2="209.7" stroke="#DADADA" stroke-width="0.6"/>
<line x1="71" y1="249.7" x2="541" y2="249.7" stroke="#DADADA" stroke-width="0.6"/>
<line x1="71" y1="289.7" x2="541" y2="289.7" stroke="#DADADA" stroke-width="0.6"/>
<line x1="71" y1="329.7" x2="541" y2="329.7" stroke="#DADADA" stroke-width="0.6"/>
<line x1="71" y1="369.7" x2="541" y2="369.7" stroke="#DADADA" stroke-width="0.6"/>
<path d="M55.2 375.126C54.4533 375.126 53.8187 374.935 53.296 374.552C52.7827 374.16 52.3953 373.586 52.134 372.83C51.8727 372.074 51.742 371.15 51.742 370.058C51.742 368.957 51.8727 368.033 52.134 367.286C52.3953 366.53 52.7827 365.961 53.296 365.578C53.8187 365.195 54.4533 365.004 55.2 365.004C55.956 365.004 56.5907 365.195 57.104 365.578C57.6173 365.961 58.0047 366.525 58.266 367.272C58.5273 368.019 58.658 368.943 58.658 370.044C58.658 371.145 58.5273 372.074 58.266 372.83C58.0047 373.586 57.6173 374.16 57.104 374.552C56.5907 374.935 55.956 375.126 55.2 375.126ZM55.2 374.132C55.984 374.132 56.5627 373.801 56.936 373.138C57.3187 372.475 57.51 371.444 57.51 370.044C57.51 368.644 57.3233 367.622 56.95 366.978C56.5767 366.325 55.9933 365.998 55.2 365.998C54.4253 365.998 53.8467 366.325 53.464 366.978C53.0813 367.631 52.89 368.653 52.89 370.044C52.89 371.444 53.0767 372.475 53.45 373.138C53.8327 373.801 54.416 374.132 55.2 374.132Z" fill="#AFAFB0"/>
<path d="M30.26 335V334.132L33.634 330.492C33.9513 330.147 34.208 329.825 34.404 329.526C34.6 329.218 34.7447 328.919 34.838 328.63C34.9313 328.341 34.978 328.047 34.978 327.748C34.978 327.188 34.8053 326.763 34.46 326.474C34.124 326.175 33.6293 326.026 32.976 326.026C32.472 326.026 32.0007 326.119 31.562 326.306C31.1327 326.483 30.722 326.763 30.33 327.146L29.896 326.25C30.26 325.877 30.722 325.578 31.282 325.354C31.8513 325.121 32.4487 325.004 33.074 325.004C33.7367 325.004 34.2967 325.107 34.754 325.312C35.2113 325.517 35.5567 325.821 35.79 326.222C36.0233 326.614 36.14 327.095 36.14 327.664C36.14 327.963 36.1027 328.257 36.028 328.546C35.9627 328.826 35.8553 329.111 35.706 329.4C35.566 329.68 35.384 329.969 35.16 330.268C34.9453 330.567 34.684 330.875 34.376 331.192L31.408 334.342V334.02H36.546V335H30.26ZM38.2765 335V333.572H39.7045V335H38.2765ZM45.8581 335V332.886H41.3081V332.018L46.0541 325.13H47.0201V331.906H48.4901V332.886H47.0201V335H45.8581ZM45.8581 331.906V326.516H46.1941L42.2881 332.214V331.906H45.8581ZM50.1926 335V325.13H51.3406V329.61H51.3686L56.1566 325.13H57.6266L52.1386 330.24L52.1526 329.624L57.9346 335H56.4226L51.3686 330.352H51.3406V335H50.1926Z" fill="#AFAFB0"/>
<path d="M38.41 296.126C37.99 296.126 37.5793 296.079 37.178 295.986C36.7767 295.893 36.3987 295.757 36.044 295.58C35.6987 295.403 35.3907 295.193 35.12 294.95L35.554 294.04C36.002 294.404 36.4547 294.675 36.912 294.852C37.3787 295.02 37.8733 295.104 38.396 295.104C39.0867 295.104 39.6233 294.913 40.006 294.53C40.398 294.147 40.594 293.643 40.594 293.018C40.594 292.374 40.4073 291.847 40.034 291.436C39.6607 291.025 39.1473 290.82 38.494 290.82C38.018 290.82 37.598 290.918 37.234 291.114C36.8793 291.301 36.5573 291.595 36.268 291.996H35.428V286.13H41.154V287.11H36.562V291.044H36.254C36.4967 290.652 36.8327 290.353 37.262 290.148C37.6913 289.933 38.172 289.826 38.704 289.826C39.3293 289.826 39.866 289.957 40.314 290.218C40.7713 290.479 41.1213 290.848 41.364 291.324C41.616 291.791 41.742 292.337 41.742 292.962C41.742 293.578 41.6067 294.124 41.336 294.6C41.0653 295.076 40.6827 295.449 40.188 295.72C39.6933 295.991 39.1007 296.126 38.41 296.126ZM43.2765 296V294.572H44.7045V296H43.2765ZM47.3161 296V295.02H49.5701V287.124H50.1721L47.7921 288.636L47.3021 287.782L49.8921 286.13H50.7181V295.02H52.8321V296H47.3161ZM55.1926 296V286.13H56.3406V290.61H56.3686L61.1566 286.13H62.6266L57.1386 291.24L57.1526 290.624L62.9346 296H61.4226L56.3686 291.352H56.3406V296H55.1926Z" fill="#AFAFB0"/>
<path d="M37.736 255V254.02H39.99V246.124H40.592L38.212 247.636L37.722 246.782L40.312 245.13H41.138V254.02H43.252V255H37.736ZM48.5945 255.126C47.8479 255.126 47.2132 254.935 46.6905 254.552C46.1772 254.16 45.7899 253.586 45.5285 252.83C45.2672 252.074 45.1365 251.15 45.1365 250.058C45.1365 248.957 45.2672 248.033 45.5285 247.286C45.7899 246.53 46.1772 245.961 46.6905 245.578C47.2132 245.195 47.8479 245.004 48.5945 245.004C49.3505 245.004 49.9852 245.195 50.4985 245.578C51.0119 245.961 51.3992 246.525 51.6605 247.272C51.9219 248.019 52.0525 248.943 52.0525 250.044C52.0525 251.145 51.9219 252.074 51.6605 252.83C51.3992 253.586 51.0119 254.16 50.4985 254.552C49.9852 254.935 49.3505 255.126 48.5945 255.126ZM48.5945 254.132C49.3785 254.132 49.9572 253.801 50.3305 253.138C50.7132 252.475 50.9045 251.444 50.9045 250.044C50.9045 248.644 50.7179 247.622 50.3445 246.978C49.9712 246.325 49.3879 245.998 48.5945 245.998C47.8199 245.998 47.2412 246.325 46.8585 246.978C46.4759 247.631 46.2845 248.653 46.2845 250.044C46.2845 251.444 46.4712 252.475 46.8445 253.138C47.2272 253.801 47.8105 254.132 48.5945 254.132ZM54.0071 255V245.13H55.1551V249.61H55.1831L59.9711 245.13H61.4411L55.9531 250.24L55.9671 249.624L61.7491 255H60.2371L55.1831 250.352H55.1551V255H54.0071Z" fill="#AFAFB0"/>
<path d="M35.26 215V214.132L38.634 210.492C38.9513 210.147 39.208 209.825 39.404 209.526C39.6 209.218 39.7447 208.919 39.838 208.63C39.9313 208.341 39.978 208.047 39.978 207.748C39.978 207.188 39.8053 206.763 39.46 206.474C39.124 206.175 38.6293 206.026 37.976 206.026C37.472 206.026 37.0007 206.119 36.562 206.306C36.1327 206.483 35.722 206.763 35.33 207.146L34.896 206.25C35.26 205.877 35.722 205.578 36.282 205.354C36.8513 205.121 37.4487 205.004 38.074 205.004C38.7367 205.004 39.2967 205.107 39.754 205.312C40.2113 205.517 40.5567 205.821 40.79 206.222C41.0233 206.614 41.14 207.095 41.14 207.664C41.14 207.963 41.1027 208.257 41.028 208.546C40.9627 208.826 40.8553 209.111 40.706 209.4C40.566 209.68 40.384 209.969 40.16 210.268C39.9453 210.567 39.684 210.875 39.376 211.192L36.408 214.342V214.02H41.546V215H35.26ZM46.5945 215.126C45.8479 215.126 45.2132 214.935 44.6905 214.552C44.1772 214.16 43.7899 213.586 43.5285 212.83C43.2672 212.074 43.1365 211.15 43.1365 210.058C43.1365 208.957 43.2672 208.033 43.5285 207.286C43.7899 206.53 44.1772 205.961 44.6905 205.578C45.2132 205.195 45.8479 205.004 46.5945 205.004C47.3505 205.004 47.9852 205.195 48.4985 205.578C49.0119 205.961 49.3992 206.525 49.6605 207.272C49.9219 208.019 50.0525 208.943 50.0525 210.044C50.0525 211.145 49.9219 212.074 49.6605 212.83C49.3992 213.586 49.0119 214.16 48.4985 214.552C47.9852 214.935 47.3505 215.126 46.5945 215.126ZM46.5945 214.132C47.3785 214.132 47.9572 213.801 48.3305 213.138C48.7132 212.475 48.9045 211.444 48.9045 210.044C48.9045 208.644 48.7179 207.622 48.3445 206.978C47.9712 206.325 47.3879 205.998 46.5945 205.998C45.8199 205.998 45.2412 206.325 44.8585 206.978C44.4759 207.631 44.2845 208.653 44.2845 210.044C44.2845 211.444 44.4712 212.475 44.8445 213.138C45.2272 213.801 45.8105 214.132 46.5945 214.132ZM52.0071 215V205.13H53.1551V209.61H53.1831L57.9711 205.13H59.4411L53.9531 210.24L53.9671 209.624L59.7491 215H58.2371L53.1831 210.352H53.1551V215H52.0071Z" fill="#AFAFB0"/>
<path d="M22.26 175V174.132L25.634 170.492C25.9513 170.147 26.208 169.825 26.404 169.526C26.6 169.218 26.7447 168.919 26.838 168.63C26.9313 168.341 26.978 168.047 26.978 167.748C26.978 167.188 26.8053 166.763 26.46 166.474C26.124 166.175 25.6293 166.026 24.976 166.026C24.472 166.026 24.0007 166.119 23.562 166.306C23.1327 166.483 22.722 166.763 22.33 167.146L21.896 166.25C22.26 165.877 22.722 165.578 23.282 165.354C23.8513 165.121 24.4487 165.004 25.074 165.004C25.7367 165.004 26.2967 165.107 26.754 165.312C27.2113 165.517 27.5567 165.821 27.79 166.222C28.0233 166.614 28.14 167.095 28.14 167.664C28.14 167.963 28.1027 168.257 28.028 168.546C27.9627 168.826 27.8553 169.111 27.706 169.4C27.566 169.68 27.384 169.969 27.16 170.268C26.9453 170.567 26.684 170.875 26.376 171.192L23.408 174.342V174.02H28.546V175H22.26ZM33.5945 175.126C32.8479 175.126 32.2132 174.935 31.6905 174.552C31.1772 174.16 30.7899 173.586 30.5285 172.83C30.2672 172.074 30.1365 171.15 30.1365 170.058C30.1365 168.957 30.2672 168.033 30.5285 167.286C30.7899 166.53 31.1772 165.961 31.6905 165.578C32.2132 165.195 32.8479 165.004 33.5945 165.004C34.3505 165.004 34.9852 165.195 35.4985 165.578C36.0119 165.961 36.3992 166.525 36.6605 167.272C36.9219 168.019 37.0525 168.943 37.0525 170.044C37.0525 171.145 36.9219 172.074 36.6605 172.83C36.3992 173.586 36.0119 174.16 35.4985 174.552C34.9852 174.935 34.3505 175.126 33.5945 175.126ZM33.5945 174.132C34.3785 174.132 34.9572 173.801 35.3305 173.138C35.7132 172.475 35.9045 171.444 35.9045 170.044C35.9045 168.644 35.7179 167.622 35.3445 166.978C34.9712 166.325 34.3879 165.998 33.5945 165.998C32.8199 165.998 32.2412 166.325 31.8585 166.978C31.4759 167.631 31.2845 168.653 31.2845 170.044C31.2845 171.444 31.4712 172.475 31.8445 173.138C32.2272 173.801 32.8105 174.132 33.5945 174.132ZM38.6711 175V173.572H40.0991V175H38.6711ZM42.2346 175V174.132L45.6086 170.492C45.9259 170.147 46.1826 169.825 46.3786 169.526C46.5746 169.218 46.7193 168.919 46.8126 168.63C46.9059 168.341 46.9526 168.047 46.9526 167.748C46.9526 167.188 46.7799 166.763 46.4346 166.474C46.0986 166.175 45.6039 166.026 44.9506 166.026C44.4466 166.026 43.9753 166.119 43.5366 166.306C43.1073 166.483 42.6966 166.763 42.3046 167.146L41.8706 166.25C42.2346 165.877 42.6966 165.578 43.2566 165.354C43.8259 165.121 44.4233 165.004 45.0486 165.004C45.7113 165.004 46.2713 165.107 46.7286 165.312C47.1859 165.517 47.5313 165.821 47.7646 166.222C47.9979 166.614 48.1146 167.095 48.1146 167.664C48.1146 167.963 48.0773 168.257 48.0026 168.546C47.9373 168.826 47.8299 169.111 47.6806 169.4C47.5406 169.68 47.3586 169.969 47.1346 170.268C46.9199 170.567 46.6586 170.875 46.3506 171.192L43.3826 174.342V174.02H48.5206V175H42.2346ZM50.5871 175V165.13H51.7351V169.61H51.7631L56.5511 165.13H58.0211L52.5331 170.24L52.5471 169.624L58.3291 175H56.8171L51.7631 170.352H51.7351V175H50.5871Z" fill="#AFAFB0"/>
<path d="M22.26 136V135.132L25.634 131.492C25.9513 131.147 26.208 130.825 26.404 130.526C26.6 130.218 26.7447 129.919 26.838 129.63C26.9313 129.341 26.978 129.047 26.978 128.748C26.978 128.188 26.8053 127.763 26.46 127.474C26.124 127.175 25.6293 127.026 24.976 127.026C24.472 127.026 24.0007 127.119 23.562 127.306C23.1327 127.483 22.722 127.763 22.33 128.146L21.896 127.25C22.26 126.877 22.722 126.578 23.282 126.354C23.8513 126.121 24.4487 126.004 25.074 126.004C25.7367 126.004 26.2967 126.107 26.754 126.312C27.2113 126.517 27.5567 126.821 27.79 127.222C28.0233 127.614 28.14 128.095 28.14 128.664C28.14 128.963 28.1027 129.257 28.028 129.546C27.9627 129.826 27.8553 130.111 27.706 130.4C27.566 130.68 27.384 130.969 27.16 131.268C26.9453 131.567 26.684 131.875 26.376 132.192L23.408 135.342V135.02H28.546V136H22.26ZM33.5945 136.126C32.8479 136.126 32.2132 135.935 31.6905 135.552C31.1772 135.16 30.7899 134.586 30.5285 133.83C30.2672 133.074 30.1365 132.15 30.1365 131.058C30.1365 129.957 30.2672 129.033 30.5285 128.286C30.7899 127.53 31.1772 126.961 31.6905 126.578C32.2132 126.195 32.8479 126.004 33.5945 126.004C34.3505 126.004 34.9852 126.195 35.4985 126.578C36.0119 126.961 36.3992 127.525 36.6605 128.272C36.9219 129.019 37.0525 129.943 37.0525 131.044C37.0525 132.145 36.9219 133.074 36.6605 133.83C36.3992 134.586 36.0119 135.16 35.4985 135.552C34.9852 135.935 34.3505 136.126 33.5945 136.126ZM33.5945 135.132C34.3785 135.132 34.9572 134.801 35.3305 134.138C35.7132 133.475 35.9045 132.444 35.9045 131.044C35.9045 129.644 35.7179 128.622 35.3445 127.978C34.9712 127.325 34.3879 126.998 33.5945 126.998C32.8199 126.998 32.2412 127.325 31.8585 127.978C31.4759 128.631 31.2845 129.653 31.2845 131.044C31.2845 132.444 31.4712 133.475 31.8445 134.138C32.2272 134.801 32.8105 135.132 33.5945 135.132ZM38.6711 136V134.572H40.0991V136H38.6711ZM45.5246 136.126C44.7406 136.126 44.0733 135.939 43.5226 135.566C42.9813 135.183 42.5706 134.633 42.2906 133.914C42.0106 133.195 41.8706 132.327 41.8706 131.31C41.8706 130.171 42.0246 129.21 42.3326 128.426C42.6499 127.633 43.1073 127.031 43.7046 126.62C44.3113 126.209 45.0299 126.004 45.8606 126.004C46.1966 126.004 46.5373 126.055 46.8826 126.158C47.2279 126.251 47.5499 126.387 47.8486 126.564C48.1566 126.741 48.4179 126.951 48.6326 127.194L48.2126 128.09C47.8673 127.726 47.4893 127.46 47.0786 127.292C46.6773 127.115 46.2619 127.026 45.8326 127.026C45.3753 127.026 44.9693 127.11 44.6146 127.278C44.2693 127.446 43.9706 127.703 43.7186 128.048C43.4759 128.384 43.2939 128.809 43.1726 129.322C43.0513 129.826 42.9906 130.414 42.9906 131.086V132.388H42.8646C42.9206 131.856 43.0746 131.399 43.3266 131.016C43.5879 130.624 43.9193 130.325 44.3206 130.12C44.7219 129.915 45.1746 129.812 45.6786 129.812C46.2573 129.812 46.7706 129.943 47.2186 130.204C47.6666 130.465 48.0166 130.834 48.2686 131.31C48.5206 131.777 48.6466 132.313 48.6466 132.92C48.6466 133.536 48.5159 134.087 48.2546 134.572C47.9933 135.057 47.6246 135.44 47.1486 135.72C46.6726 135.991 46.1313 136.126 45.5246 136.126ZM45.4406 135.146C45.8513 135.146 46.2153 135.057 46.5326 134.88C46.8499 134.693 47.0973 134.437 47.2746 134.11C47.4519 133.774 47.5406 133.391 47.5406 132.962C47.5406 132.533 47.4519 132.155 47.2746 131.828C47.0973 131.501 46.8499 131.245 46.5326 131.058C46.2246 130.871 45.8606 130.778 45.4406 130.778C45.0299 130.778 44.6659 130.871 44.3486 131.058C44.0313 131.245 43.7839 131.501 43.6066 131.828C43.4293 132.155 43.3406 132.533 43.3406 132.962C43.3406 133.391 43.4293 133.774 43.6066 134.11C43.7839 134.437 44.0313 134.693 44.3486 134.88C44.6659 135.057 45.0299 135.146 45.4406 135.146ZM50.5871 136V126.13H51.7351V130.61H51.7631L56.5511 126.13H58.0211L52.5331 131.24L52.5471 130.624L58.3291 136H56.8171L51.7631 131.352H51.7351V136H50.5871Z" fill="#AFAFB0"/>
<path d="M88.736 402V401.02H90.99V393.124H91.592L89.212 394.636L88.722 393.782L91.312 392.13H92.138V401.02H94.252V402H88.736ZM97.2425 404.52L98.5165 401.65V402.14L95.5345 395.196H96.7665L99.2025 401.16H98.8245L101.289 395.196H102.479L98.4325 404.52H97.2425ZM103.65 402V395.196H104.756V396.806H104.616C104.775 396.255 105.05 395.84 105.442 395.56C105.834 395.271 106.352 395.103 106.996 395.056L107.402 395.014L107.486 395.994L106.772 396.078C106.137 396.134 105.647 396.339 105.302 396.694C104.966 397.039 104.798 397.515 104.798 398.122V402H103.65Z" fill="#AFAFB0"/>
<path d="M182.528 402.126C182.192 402.126 181.851 402.079 181.506 401.986C181.161 401.883 180.834 401.743 180.526 401.566C180.227 401.389 179.966 401.179 179.742 400.936L180.176 400.026C180.512 400.39 180.885 400.661 181.296 400.838C181.707 401.015 182.122 401.104 182.542 401.104C182.999 401.104 183.405 401.02 183.76 400.852C184.115 400.684 184.413 400.432 184.656 400.096C184.899 399.751 185.081 399.326 185.202 398.822C185.333 398.309 185.398 397.716 185.398 397.044V395.742H185.51C185.454 396.265 185.295 396.722 185.034 397.114C184.782 397.506 184.455 397.805 184.054 398.01C183.653 398.215 183.2 398.318 182.696 398.318C182.117 398.318 181.604 398.187 181.156 397.926C180.717 397.665 180.367 397.296 180.106 396.82C179.854 396.344 179.728 395.807 179.728 395.21C179.728 394.585 179.859 394.034 180.12 393.558C180.391 393.073 180.759 392.695 181.226 392.424C181.702 392.144 182.248 392.004 182.864 392.004C183.639 392.004 184.297 392.195 184.838 392.578C185.389 392.951 185.804 393.497 186.084 394.216C186.364 394.935 186.504 395.803 186.504 396.82C186.504 397.949 186.345 398.911 186.028 399.704C185.72 400.497 185.267 401.099 184.67 401.51C184.082 401.921 183.368 402.126 182.528 402.126ZM182.948 397.352C183.359 397.352 183.723 397.259 184.04 397.072C184.357 396.885 184.605 396.629 184.782 396.302C184.959 395.975 185.048 395.597 185.048 395.168C185.048 394.729 184.959 394.347 184.782 394.02C184.605 393.693 184.357 393.437 184.04 393.25C183.723 393.063 183.359 392.97 182.948 392.97C182.528 392.97 182.159 393.063 181.842 393.25C181.534 393.437 181.287 393.693 181.1 394.02C180.923 394.347 180.834 394.729 180.834 395.168C180.834 395.597 180.923 395.975 181.1 396.302C181.287 396.629 181.534 396.885 181.842 397.072C182.159 397.259 182.528 397.352 182.948 397.352ZM188.487 402V395.196H189.593V396.708H189.439C189.551 396.363 189.714 396.069 189.929 395.826C190.153 395.574 190.414 395.387 190.713 395.266C191.021 395.135 191.357 395.07 191.721 395.07C192.299 395.07 192.766 395.21 193.121 395.49C193.485 395.761 193.727 396.185 193.849 396.764H193.639C193.807 396.241 194.105 395.831 194.535 395.532C194.973 395.224 195.482 395.07 196.061 395.07C196.574 395.07 196.994 395.168 197.321 395.364C197.657 395.56 197.909 395.859 198.077 396.26C198.245 396.652 198.329 397.151 198.329 397.758V402H197.195V397.814C197.195 397.189 197.087 396.731 196.873 396.442C196.658 396.143 196.294 395.994 195.781 395.994C195.417 395.994 195.095 396.083 194.815 396.26C194.544 396.437 194.334 396.689 194.185 397.016C194.045 397.333 193.975 397.711 193.975 398.15V402H192.841V397.814C192.841 397.189 192.729 396.731 192.505 396.442C192.29 396.143 191.931 395.994 191.427 395.994C191.053 395.994 190.731 396.083 190.461 396.26C190.19 396.437 189.98 396.689 189.831 397.016C189.691 397.333 189.621 397.711 189.621 398.15V402H188.487ZM203.277 402.126C202.614 402.126 202.04 401.981 201.555 401.692C201.069 401.403 200.691 400.997 200.421 400.474C200.159 399.942 200.029 399.317 200.029 398.598C200.029 397.879 200.159 397.259 200.421 396.736C200.691 396.204 201.069 395.793 201.555 395.504C202.04 395.215 202.614 395.07 203.277 395.07C203.939 395.07 204.513 395.215 204.999 395.504C205.484 395.793 205.857 396.204 206.119 396.736C206.389 397.259 206.525 397.879 206.525 398.598C206.525 399.317 206.389 399.942 206.119 400.474C205.857 400.997 205.484 401.403 204.999 401.692C204.513 401.981 203.939 402.126 203.277 402.126ZM203.277 401.216C203.921 401.216 204.429 400.992 204.803 400.544C205.185 400.087 205.377 399.433 205.377 398.584C205.377 397.744 205.185 397.1 204.803 396.652C204.429 396.204 203.921 395.98 203.277 395.98C202.642 395.98 202.133 396.204 201.751 396.652C201.368 397.1 201.177 397.744 201.177 398.584C201.177 399.433 201.368 400.087 201.751 400.544C202.133 400.992 202.642 401.216 203.277 401.216Z" fill="#AFAFB0"/>
<path d="M283.55 402.126C282.766 402.126 282.099 401.939 281.548 401.566C281.007 401.183 280.596 400.633 280.316 399.914C280.036 399.195 279.896 398.327 279.896 397.31C279.896 396.171 280.05 395.21 280.358 394.426C280.675 393.633 281.133 393.031 281.73 392.62C282.337 392.209 283.055 392.004 283.886 392.004C284.222 392.004 284.563 392.055 284.908 392.158C285.253 392.251 285.575 392.387 285.874 392.564C286.182 392.741 286.443 392.951 286.658 393.194L286.238 394.09C285.893 393.726 285.515 393.46 285.104 393.292C284.703 393.115 284.287 393.026 283.858 393.026C283.401 393.026 282.995 393.11 282.64 393.278C282.295 393.446 281.996 393.703 281.744 394.048C281.501 394.384 281.319 394.809 281.198 395.322C281.077 395.826 281.016 396.414 281.016 397.086V398.388H280.89C280.946 397.856 281.1 397.399 281.352 397.016C281.613 396.624 281.945 396.325 282.346 396.12C282.747 395.915 283.2 395.812 283.704 395.812C284.283 395.812 284.796 395.943 285.244 396.204C285.692 396.465 286.042 396.834 286.294 397.31C286.546 397.777 286.672 398.313 286.672 398.92C286.672 399.536 286.541 400.087 286.28 400.572C286.019 401.057 285.65 401.44 285.174 401.72C284.698 401.991 284.157 402.126 283.55 402.126ZM283.466 401.146C283.877 401.146 284.241 401.057 284.558 400.88C284.875 400.693 285.123 400.437 285.3 400.11C285.477 399.774 285.566 399.391 285.566 398.962C285.566 398.533 285.477 398.155 285.3 397.828C285.123 397.501 284.875 397.245 284.558 397.058C284.25 396.871 283.886 396.778 283.466 396.778C283.055 396.778 282.691 396.871 282.374 397.058C282.057 397.245 281.809 397.501 281.632 397.828C281.455 398.155 281.366 398.533 281.366 398.962C281.366 399.391 281.455 399.774 281.632 400.11C281.809 400.437 282.057 400.693 282.374 400.88C282.691 401.057 283.055 401.146 283.466 401.146ZM288.487 402V395.196H289.593V396.708H289.439C289.551 396.363 289.714 396.069 289.929 395.826C290.153 395.574 290.414 395.387 290.713 395.266C291.021 395.135 291.357 395.07 291.721 395.07C292.299 395.07 292.766 395.21 293.121 395.49C293.485 395.761 293.727 396.185 293.849 396.764H293.639C293.807 396.241 294.105 395.831 294.535 395.532C294.973 395.224 295.482 395.07 296.061 395.07C296.574 395.07 296.994 395.168 297.321 395.364C297.657 395.56 297.909 395.859 298.077 396.26C298.245 396.652 298.329 397.151 298.329 397.758V402H297.195V397.814C297.195 397.189 297.087 396.731 296.873 396.442C296.658 396.143 296.294 395.994 295.781 395.994C295.417 395.994 295.095 396.083 294.815 396.26C294.544 396.437 294.334 396.689 294.185 397.016C294.045 397.333 293.975 397.711 293.975 398.15V402H292.841V397.814C292.841 397.189 292.729 396.731 292.505 396.442C292.29 396.143 291.931 395.994 291.427 395.994C291.053 395.994 290.731 396.083 290.461 396.26C290.19 396.437 289.98 396.689 289.831 397.016C289.691 397.333 289.621 397.711 289.621 398.15V402H288.487ZM303.277 402.126C302.614 402.126 302.04 401.981 301.555 401.692C301.069 401.403 300.691 400.997 300.421 400.474C300.159 399.942 300.029 399.317 300.029 398.598C300.029 397.879 300.159 397.259 300.421 396.736C300.691 396.204 301.069 395.793 301.555 395.504C302.04 395.215 302.614 395.07 303.277 395.07C303.939 395.07 304.513 395.215 304.999 395.504C305.484 395.793 305.857 396.204 306.119 396.736C306.389 397.259 306.525 397.879 306.525 398.598C306.525 399.317 306.389 399.942 306.119 400.474C305.857 400.997 305.484 401.403 304.999 401.692C304.513 401.981 303.939 402.126 303.277 402.126ZM303.277 401.216C303.921 401.216 304.429 400.992 304.803 400.544C305.185 400.087 305.377 399.433 305.377 398.584C305.377 397.744 305.185 397.1 304.803 396.652C304.429 396.204 303.921 395.98 303.277 395.98C302.642 395.98 302.133 396.204 301.751 396.652C301.368 397.1 301.177 397.744 301.177 398.584C301.177 399.433 301.368 400.087 301.751 400.544C302.133 400.992 302.642 401.216 303.277 401.216Z" fill="#AFAFB0"/>
<path d="M383.088 402.126C382.649 402.126 382.225 402.079 381.814 401.986C381.413 401.893 381.035 401.762 380.68 401.594C380.325 401.417 380.013 401.202 379.742 400.95L380.162 400.04C380.619 400.413 381.081 400.684 381.548 400.852C382.015 401.02 382.519 401.104 383.06 401.104C383.536 401.104 383.937 401.034 384.264 400.894C384.591 400.754 384.838 400.549 385.006 400.278C385.174 399.998 385.258 399.657 385.258 399.256C385.258 398.677 385.067 398.239 384.684 397.94C384.301 397.641 383.746 397.492 383.018 397.492H381.562V396.498H382.92C383.349 396.498 383.713 396.423 384.012 396.274C384.32 396.125 384.558 395.915 384.726 395.644C384.894 395.364 384.978 395.028 384.978 394.636C384.978 394.113 384.81 393.717 384.474 393.446C384.138 393.166 383.653 393.026 383.018 393.026C382.495 393.026 382.015 393.119 381.576 393.306C381.137 393.483 380.722 393.763 380.33 394.146L379.91 393.25C380.283 392.858 380.75 392.555 381.31 392.34C381.879 392.116 382.472 392.004 383.088 392.004C383.723 392.004 384.264 392.107 384.712 392.312C385.169 392.508 385.519 392.797 385.762 393.18C386.005 393.553 386.126 394.006 386.126 394.538C386.126 395.145 385.958 395.667 385.622 396.106C385.286 396.535 384.829 396.829 384.25 396.988V396.834C384.707 396.909 385.095 397.058 385.412 397.282C385.739 397.506 385.986 397.795 386.154 398.15C386.322 398.495 386.406 398.892 386.406 399.34C386.406 399.909 386.271 400.404 386 400.824C385.739 401.235 385.361 401.557 384.866 401.79C384.371 402.014 383.779 402.126 383.088 402.126ZM388.487 402V395.196H389.593V396.708H389.439C389.551 396.363 389.714 396.069 389.929 395.826C390.153 395.574 390.414 395.387 390.713 395.266C391.021 395.135 391.357 395.07 391.721 395.07C392.299 395.07 392.766 395.21 393.121 395.49C393.485 395.761 393.727 396.185 393.849 396.764H393.639C393.807 396.241 394.105 395.831 394.535 395.532C394.973 395.224 395.482 395.07 396.061 395.07C396.574 395.07 396.994 395.168 397.321 395.364C397.657 395.56 397.909 395.859 398.077 396.26C398.245 396.652 398.329 397.151 398.329 397.758V402H397.195V397.814C397.195 397.189 397.087 396.731 396.873 396.442C396.658 396.143 396.294 395.994 395.781 395.994C395.417 395.994 395.095 396.083 394.815 396.26C394.544 396.437 394.334 396.689 394.185 397.016C394.045 397.333 393.975 397.711 393.975 398.15V402H392.841V397.814C392.841 397.189 392.729 396.731 392.505 396.442C392.29 396.143 391.931 395.994 391.427 395.994C391.053 395.994 390.731 396.083 390.461 396.26C390.19 396.437 389.98 396.689 389.831 397.016C389.691 397.333 389.621 397.711 389.621 398.15V402H388.487ZM403.277 402.126C402.614 402.126 402.04 401.981 401.555 401.692C401.069 401.403 400.691 400.997 400.421 400.474C400.159 399.942 400.029 399.317 400.029 398.598C400.029 397.879 400.159 397.259 400.421 396.736C400.691 396.204 401.069 395.793 401.555 395.504C402.04 395.215 402.614 395.07 403.277 395.07C403.939 395.07 404.513 395.215 404.999 395.504C405.484 395.793 405.857 396.204 406.119 396.736C406.389 397.259 406.525 397.879 406.525 398.598C406.525 399.317 406.389 399.942 406.119 400.474C405.857 400.997 405.484 401.403 404.999 401.692C404.513 401.981 403.939 402.126 403.277 402.126ZM403.277 401.216C403.921 401.216 404.429 400.992 404.803 400.544C405.185 400.087 405.377 399.433 405.377 398.584C405.377 397.744 405.185 397.1 404.803 396.652C404.429 396.204 403.921 395.98 403.277 395.98C402.642 395.98 402.133 396.204 401.751 396.652C401.368 397.1 401.177 397.744 401.177 398.584C401.177 399.433 401.368 400.087 401.751 400.544C402.133 400.992 402.642 401.216 403.277 401.216Z" fill="#AFAFB0"/>
<path d="M482.64 402V393.124H479.056V392.13H487.386V393.124H483.802V402H482.64ZM490.247 402.126C489.585 402.126 489.011 401.981 488.525 401.692C488.04 401.403 487.662 400.997 487.391 400.474C487.13 399.942 486.999 399.317 486.999 398.598C486.999 397.879 487.13 397.259 487.391 396.736C487.662 396.204 488.04 395.793 488.525 395.504C489.011 395.215 489.585 395.07 490.247 395.07C490.91 395.07 491.484 395.215 491.969 395.504C492.455 395.793 492.828 396.204 493.089 396.736C493.36 397.259 493.495 397.879 493.495 398.598C493.495 399.317 493.36 399.942 493.089 400.474C492.828 400.997 492.455 401.403 491.969 401.692C491.484 401.981 490.91 402.126 490.247 402.126ZM490.247 401.216C490.891 401.216 491.4 400.992 491.773 400.544C492.156 400.087 492.347 399.433 492.347 398.584C492.347 397.744 492.156 397.1 491.773 396.652C491.4 396.204 490.891 395.98 490.247 395.98C489.613 395.98 489.104 396.204 488.721 396.652C488.339 397.1 488.147 397.744 488.147 398.584C488.147 399.433 488.339 400.087 488.721 400.544C489.104 400.992 489.613 401.216 490.247 401.216ZM497.789 402.126C497.182 402.126 496.65 401.981 496.193 401.692C495.745 401.403 495.395 400.997 495.143 400.474C494.9 399.942 494.779 399.317 494.779 398.598C494.779 397.87 494.9 397.245 495.143 396.722C495.395 396.19 495.745 395.784 496.193 395.504C496.65 395.215 497.182 395.07 497.789 395.07C498.405 395.07 498.932 395.224 499.371 395.532C499.809 395.84 500.103 396.255 500.253 396.778H500.099V392.13H501.233V402H500.127V400.376H500.267C500.117 400.908 499.819 401.333 499.371 401.65C498.932 401.967 498.405 402.126 497.789 402.126ZM498.027 401.216C498.671 401.216 499.179 400.992 499.553 400.544C499.935 400.087 500.127 399.438 500.127 398.598C500.127 397.749 499.935 397.1 499.553 396.652C499.179 396.204 498.671 395.98 498.027 395.98C497.392 395.98 496.883 396.204 496.501 396.652C496.118 397.1 495.927 397.749 495.927 398.598C495.927 399.438 496.118 400.087 496.501 400.544C496.883 400.992 497.392 401.216 498.027 401.216ZM505.503 402.126C505.036 402.126 504.616 402.037 504.243 401.86C503.879 401.673 503.59 401.421 503.375 401.104C503.16 400.787 503.053 400.432 503.053 400.04C503.053 399.536 503.179 399.139 503.431 398.85C503.692 398.561 504.117 398.355 504.705 398.234C505.302 398.113 506.114 398.052 507.141 398.052H507.771V398.794H507.155C506.586 398.794 506.11 398.813 505.727 398.85C505.344 398.887 505.041 398.953 504.817 399.046C504.593 399.139 504.434 399.261 504.341 399.41C504.248 399.559 504.201 399.746 504.201 399.97C504.201 400.353 504.332 400.665 504.593 400.908C504.864 401.151 505.228 401.272 505.685 401.272C506.058 401.272 506.385 401.183 506.665 401.006C506.954 400.829 507.178 400.586 507.337 400.278C507.505 399.97 507.589 399.615 507.589 399.214V397.618C507.589 397.039 507.472 396.624 507.239 396.372C507.006 396.111 506.623 395.98 506.091 395.98C505.68 395.98 505.284 396.041 504.901 396.162C504.518 396.274 504.126 396.461 503.725 396.722L503.333 395.896C503.576 395.728 503.851 395.583 504.159 395.462C504.467 395.331 504.789 395.233 505.125 395.168C505.461 395.103 505.783 395.07 506.091 395.07C506.679 395.07 507.164 395.168 507.547 395.364C507.93 395.551 508.214 395.84 508.401 396.232C508.588 396.615 508.681 397.109 508.681 397.716V402H507.617V400.418H507.743C507.668 400.773 507.524 401.076 507.309 401.328C507.104 401.58 506.847 401.776 506.539 401.916C506.231 402.056 505.886 402.126 505.503 402.126ZM511.5 404.52L512.774 401.65V402.14L509.792 395.196H511.024L513.46 401.16H513.082L515.546 395.196H516.736L512.69 404.52H511.5Z" fill="#AFAFB0"/>
<path d="M22.218 38V28.13H23.366V32.498H29.288V28.13H30.436V38H29.288V33.492H23.366V38H22.218ZM35.5424 38.126C34.8797 38.126 34.3057 37.9813 33.8204 37.692C33.3351 37.4027 32.9571 36.9967 32.6864 36.474C32.4251 35.942 32.2944 35.3167 32.2944 34.598C32.2944 33.8793 32.4251 33.2587 32.6864 32.736C32.9571 32.204 33.3351 31.7933 33.8204 31.504C34.3057 31.2147 34.8797 31.07 35.5424 31.07C36.2051 31.07 36.7791 31.2147 37.2644 31.504C37.7497 31.7933 38.1231 32.204 38.3844 32.736C38.6551 33.2587 38.7904 33.8793 38.7904 34.598C38.7904 35.3167 38.6551 35.942 38.3844 36.474C38.1231 36.9967 37.7497 37.4027 37.2644 37.692C36.7791 37.9813 36.2051 38.126 35.5424 38.126ZM35.5424 37.216C36.1864 37.216 36.6951 36.992 37.0684 36.544C37.4511 36.0867 37.6424 35.4333 37.6424 34.584C37.6424 33.744 37.4511 33.1 37.0684 32.652C36.6951 32.204 36.1864 31.98 35.5424 31.98C34.9077 31.98 34.3991 32.204 34.0164 32.652C33.6337 33.1 33.4424 33.744 33.4424 34.584C33.4424 35.4333 33.6337 36.0867 34.0164 36.544C34.3991 36.992 34.9077 37.216 35.5424 37.216ZM42.9017 38.126C42.351 38.126 41.8937 38.028 41.5297 37.832C41.175 37.6267 40.9044 37.3233 40.7177 36.922C40.5404 36.5207 40.4517 36.0213 40.4517 35.424V31.196H41.5857V35.41C41.5857 35.8113 41.637 36.1473 41.7397 36.418C41.8517 36.6793 42.0244 36.8753 42.2577 37.006C42.491 37.1273 42.7804 37.188 43.1257 37.188C43.5177 37.188 43.8584 37.0993 44.1477 36.922C44.437 36.7447 44.6657 36.4973 44.8337 36.18C45.0017 35.8627 45.0857 35.4893 45.0857 35.06V31.196H46.2197V38H45.1137V36.432H45.2957C45.109 36.9827 44.801 37.4027 44.3717 37.692C43.9517 37.9813 43.4617 38.126 42.9017 38.126ZM48.3413 38V31.196H49.4473V32.806H49.3073C49.466 32.2553 49.7413 31.84 50.1333 31.56C50.5253 31.2707 51.0433 31.1027 51.6873 31.056L52.0933 31.014L52.1773 31.994L51.4633 32.078C50.8287 32.134 50.3387 32.3393 49.9933 32.694C49.6573 33.0393 49.4893 33.5153 49.4893 34.122V38H48.3413ZM55.5866 38.126C55.2319 38.126 54.8866 38.0887 54.5506 38.014C54.2239 37.9487 53.9159 37.8553 53.6266 37.734C53.3466 37.6033 53.1039 37.4493 52.8986 37.272L53.2626 36.474C53.4866 36.6513 53.7292 36.8007 53.9906 36.922C54.2519 37.034 54.5179 37.118 54.7886 37.174C55.0592 37.23 55.3346 37.258 55.6146 37.258C56.1466 37.258 56.5479 37.16 56.8186 36.964C57.0892 36.768 57.2246 36.502 57.2246 36.166C57.2246 35.9047 57.1359 35.6993 56.9586 35.55C56.7812 35.3913 56.5012 35.27 56.1186 35.186L54.8446 34.906C54.2566 34.7847 53.8179 34.5747 53.5286 34.276C53.2486 33.9773 53.1086 33.59 53.1086 33.114C53.1086 32.694 53.2159 32.3347 53.4306 32.036C53.6546 31.728 53.9672 31.49 54.3686 31.322C54.7699 31.154 55.2366 31.07 55.7686 31.07C56.0859 31.07 56.3892 31.1027 56.6786 31.168C56.9679 31.2333 57.2386 31.3313 57.4906 31.462C57.7519 31.5833 57.9759 31.7373 58.1626 31.924L57.7846 32.722C57.6072 32.554 57.4066 32.414 57.1826 32.302C56.9586 32.1807 56.7252 32.092 56.4826 32.036C56.2492 31.9707 56.0112 31.938 55.7686 31.938C55.2459 31.938 54.8492 32.0407 54.5786 32.246C54.3079 32.4513 54.1726 32.722 54.1726 33.058C54.1726 33.3193 54.2566 33.534 54.4246 33.702C54.5926 33.87 54.8539 33.9913 55.2086 34.066L56.4826 34.332C57.0892 34.4627 57.5419 34.6727 57.8406 34.962C58.1486 35.242 58.3026 35.6247 58.3026 36.11C58.3026 36.5207 58.1906 36.88 57.9666 37.188C57.7426 37.4867 57.4252 37.72 57.0146 37.888C56.6132 38.0467 56.1372 38.126 55.5866 38.126ZM22.218 56V46.13H26.124C27.1787 46.13 27.9907 46.3773 28.56 46.872C29.1293 47.3667 29.414 48.0713 29.414 48.986C29.414 49.5647 29.2833 50.0687 29.022 50.498C28.77 50.918 28.3967 51.24 27.902 51.464C27.4073 51.6787 26.8147 51.786 26.124 51.786L26.264 51.604H26.544C26.908 51.604 27.2253 51.6973 27.496 51.884C27.7667 52.0707 28.014 52.3693 28.238 52.78L29.974 56H28.714L27.006 52.836C26.866 52.5747 26.7073 52.3693 26.53 52.22C26.362 52.0707 26.166 51.968 25.942 51.912C25.7273 51.856 25.466 51.828 25.158 51.828H23.366V56H22.218ZM23.366 50.918H25.956C26.7213 50.918 27.3 50.7593 27.692 50.442C28.084 50.1153 28.28 49.63 28.28 48.986C28.28 48.3607 28.084 47.8893 27.692 47.572C27.3 47.2453 26.7213 47.082 25.956 47.082H23.366V50.918ZM34.3448 56.126C33.6262 56.126 33.0055 55.986 32.4828 55.706C31.9695 55.4167 31.5682 55.0107 31.2788 54.488C30.9988 53.9653 30.8588 53.34 30.8588 52.612C30.8588 51.9027 30.9988 51.2867 31.2788 50.764C31.5588 50.232 31.9415 49.8167 32.4268 49.518C32.9215 49.2193 33.4908 49.07 34.1348 49.07C34.7508 49.07 35.2782 49.2053 35.7168 49.476C36.1555 49.7467 36.4915 50.1293 36.7248 50.624C36.9675 51.1187 37.0888 51.7113 37.0888 52.402V52.836H31.7268V52.094H36.3328L36.1088 52.276C36.1088 51.5293 35.9408 50.9507 35.6048 50.54C35.2782 50.12 34.7975 49.91 34.1628 49.91C33.6868 49.91 33.2808 50.022 32.9448 50.246C32.6182 50.4607 32.3708 50.764 32.2028 51.156C32.0348 51.5387 31.9508 51.9867 31.9508 52.5V52.584C31.9508 53.1533 32.0395 53.634 32.2168 54.026C32.4035 54.418 32.6788 54.7167 33.0428 54.922C33.4068 55.118 33.8408 55.216 34.3448 55.216C34.7462 55.216 35.1335 55.1553 35.5068 55.034C35.8895 54.9033 36.2488 54.6933 36.5848 54.404L36.9768 55.202C36.6688 55.482 36.2768 55.706 35.8008 55.874C35.3248 56.042 34.8395 56.126 34.3448 56.126ZM41.614 56.126C40.9327 56.126 40.3447 55.9767 39.85 55.678C39.3553 55.3793 38.9727 54.964 38.702 54.432C38.4407 53.8907 38.31 53.2653 38.31 52.556C38.31 51.8373 38.4407 51.2167 38.702 50.694C38.9727 50.1713 39.3553 49.77 39.85 49.49C40.3447 49.21 40.9327 49.07 41.614 49.07C42.034 49.07 42.4493 49.1447 42.86 49.294C43.2707 49.4433 43.6113 49.6533 43.882 49.924L43.49 50.75C43.2193 50.4887 42.9207 50.2973 42.594 50.176C42.2767 50.0547 41.9733 49.994 41.684 49.994C40.9747 49.994 40.4287 50.218 40.046 50.666C39.6633 51.1047 39.472 51.7393 39.472 52.57C39.472 53.382 39.6633 54.026 40.046 54.502C40.4287 54.9687 40.9747 55.202 41.684 55.202C41.9733 55.202 42.2767 55.1413 42.594 55.02C42.9207 54.8987 43.2193 54.7027 43.49 54.432L43.882 55.258C43.6113 55.5287 43.266 55.7433 42.846 55.902C42.4353 56.0513 42.0247 56.126 41.614 56.126ZM47.9018 56.126C47.2391 56.126 46.6651 55.9813 46.1798 55.692C45.6944 55.4027 45.3164 54.9967 45.0458 54.474C44.7844 53.942 44.6538 53.3167 44.6538 52.598C44.6538 51.8793 44.7844 51.2587 45.0458 50.736C45.3164 50.204 45.6944 49.7933 46.1798 49.504C46.6651 49.2147 47.2391 49.07 47.9018 49.07C48.5644 49.07 49.1384 49.2147 49.6238 49.504C50.1091 49.7933 50.4824 50.204 50.7438 50.736C51.0144 51.2587 51.1498 51.8793 51.1498 52.598C51.1498 53.3167 51.0144 53.942 50.7438 54.474C50.4824 54.9967 50.1091 55.4027 49.6238 55.692C49.1384 55.9813 48.5644 56.126 47.9018 56.126ZM47.9018 55.216C48.5458 55.216 49.0544 54.992 49.4278 54.544C49.8104 54.0867 50.0018 53.4333 50.0018 52.584C50.0018 51.744 49.8104 51.1 49.4278 50.652C49.0544 50.204 48.5458 49.98 47.9018 49.98C47.2671 49.98 46.7584 50.204 46.3758 50.652C45.9931 51.1 45.8018 51.744 45.8018 52.584C45.8018 53.4333 45.9931 54.0867 46.3758 54.544C46.7584 54.992 47.2671 55.216 47.9018 55.216ZM52.8531 56V49.196H53.9591V50.806H53.8191C53.9777 50.2553 54.2531 49.84 54.6451 49.56C55.0371 49.2707 55.5551 49.1027 56.1991 49.056L56.6051 49.014L56.6891 49.994L55.9751 50.078C55.3404 50.134 54.8504 50.3393 54.5051 50.694C54.1691 51.0393 54.0011 51.5153 54.0011 52.122V56H52.8531ZM60.3786 56.126C59.7719 56.126 59.2399 55.9813 58.7826 55.692C58.3346 55.4027 57.9846 54.9967 57.7326 54.474C57.4899 53.942 57.3686 53.3167 57.3686 52.598C57.3686 51.87 57.4899 51.2447 57.7326 50.722C57.9846 50.19 58.3346 49.784 58.7826 49.504C59.2399 49.2147 59.7719 49.07 60.3786 49.07C60.9946 49.07 61.5219 49.224 61.9606 49.532C62.3993 49.84 62.6933 50.2553 62.8426 50.778H62.6886V46.13H63.8226V56H62.7166V54.376H62.8566C62.7073 54.908 62.4086 55.3327 61.9606 55.65C61.5219 55.9673 60.9946 56.126 60.3786 56.126ZM60.6166 55.216C61.2606 55.216 61.7693 54.992 62.1426 54.544C62.5253 54.0867 62.7166 53.438 62.7166 52.598C62.7166 51.7487 62.5253 51.1 62.1426 50.652C61.7693 50.204 61.2606 49.98 60.6166 49.98C59.9819 49.98 59.4733 50.204 59.0906 50.652C58.7079 51.1 58.5166 51.7487 58.5166 52.598C58.5166 53.438 58.7079 54.0867 59.0906 54.544C59.4733 54.992 59.9819 55.216 60.6166 55.216ZM69.0167 56.126C68.2981 56.126 67.6774 55.986 67.1547 55.706C66.6414 55.4167 66.2401 55.0107 65.9507 54.488C65.6707 53.9653 65.5307 53.34 65.5307 52.612C65.5307 51.9027 65.6707 51.2867 65.9507 50.764C66.2307 50.232 66.6134 49.8167 67.0987 49.518C67.5934 49.2193 68.1627 49.07 68.8067 49.07C69.4227 49.07 69.9501 49.2053 70.3887 49.476C70.8274 49.7467 71.1634 50.1293 71.3967 50.624C71.6394 51.1187 71.7607 51.7113 71.7607 52.402V52.836H66.3987V52.094H71.0047L70.7807 52.276C70.7807 51.5293 70.6127 50.9507 70.2767 50.54C69.9501 50.12 69.4694 49.91 68.8347 49.91C68.3587 49.91 67.9527 50.022 67.6167 50.246C67.2901 50.4607 67.0427 50.764 66.8747 51.156C66.7067 51.5387 66.6227 51.9867 66.6227 52.5V52.584C66.6227 53.1533 66.7114 53.634 66.8887 54.026C67.0754 54.418 67.3507 54.7167 67.7147 54.922C68.0787 55.118 68.5127 55.216 69.0167 55.216C69.4181 55.216 69.8054 55.1553 70.1787 55.034C70.5614 54.9033 70.9207 54.6933 71.2567 54.404L71.6487 55.202C71.3407 55.482 70.9487 55.706 70.4727 55.874C69.9967 56.042 69.5114 56.126 69.0167 56.126ZM75.9919 56.126C75.3852 56.126 74.8532 55.9813 74.3959 55.692C73.9479 55.4027 73.5979 54.9967 73.3459 54.474C73.1032 53.942 72.9819 53.3167 72.9819 52.598C72.9819 51.87 73.1032 51.2447 73.3459 50.722C73.5979 50.19 73.9479 49.784 74.3959 49.504C74.8532 49.2147 75.3852 49.07 75.9919 49.07C76.6079 49.07 77.1352 49.224 77.5739 49.532C78.0126 49.84 78.3066 50.2553 78.4559 50.778H78.3019V46.13H79.4359V56H78.3299V54.376H78.4699C78.3206 54.908 78.0219 55.3327 77.5739 55.65C77.1352 55.9673 76.6079 56.126 75.9919 56.126ZM76.2299 55.216C76.8739 55.216 77.3826 54.992 77.7559 54.544C78.1386 54.0867 78.3299 53.438 78.3299 52.598C78.3299 51.7487 78.1386 51.1 77.7559 50.652C77.3826 50.204 76.8739 49.98 76.2299 49.98C75.5952 49.98 75.0866 50.204 74.7039 50.652C74.3212 51.1 74.1299 51.7487 74.1299 52.598C74.1299 53.438 74.3212 54.0867 74.7039 54.544C75.0866 54.992 75.5952 55.216 76.2299 55.216Z" fill="#4F4F4F"/>
<circle cx="25" cy="81" r="4" fill="#69B0C9"/>
<path d="M44.78 88.18C44.1533 88.18 43.54 88.12 42.94 88C42.3533 87.8667 41.8 87.68 41.28 87.44C40.7733 87.1867 40.3267 86.8867 39.94 86.54L40.66 84.94C41.2867 85.4467 41.9333 85.82 42.6 86.06C43.2667 86.3 43.9733 86.42 44.72 86.42C45.36 86.42 45.9 86.3267 46.34 86.14C46.78 85.9533 47.1067 85.68 47.32 85.32C47.5467 84.96 47.66 84.5267 47.66 84.02C47.66 83.26 47.4067 82.6933 46.9 82.32C46.4067 81.9333 45.6867 81.74 44.74 81.74H42.56V80H44.54C45.1133 80 45.6 79.9067 46 79.72C46.4 79.52 46.7067 79.2467 46.92 78.9C47.1467 78.54 47.26 78.1067 47.26 77.6C47.26 76.92 47.0333 76.4 46.58 76.04C46.14 75.6667 45.4933 75.48 44.64 75.48C43.92 75.48 43.2533 75.6067 42.64 75.86C42.0267 76.1133 41.4467 76.5 40.9 77.02L40.18 75.44C40.7267 74.8933 41.4067 74.4733 42.22 74.18C43.0467 73.8733 43.9067 73.72 44.8 73.72C45.7333 73.72 46.5333 73.8667 47.2 74.16C47.88 74.4533 48.3933 74.8733 48.74 75.42C49.1 75.9667 49.28 76.62 49.28 77.38C49.28 78.2333 49.04 78.9733 48.56 79.6C48.0933 80.2133 47.4467 80.62 46.62 80.82V80.6C47.2733 80.7067 47.8267 80.92 48.28 81.24C48.7333 81.56 49.08 81.9667 49.32 82.46C49.56 82.9533 49.68 83.52 49.68 84.16C49.68 84.9867 49.48 85.7067 49.08 86.32C48.6933 86.92 48.1333 87.38 47.4 87.7C46.6667 88.02 45.7933 88.18 44.78 88.18ZM52.6922 88V86.46L57.3922 81.42C57.8322 80.94 58.1855 80.5 58.4522 80.1C58.7189 79.6867 58.9122 79.2933 59.0322 78.92C59.1655 78.5333 59.2322 78.1467 59.2322 77.76C59.2322 77.0133 59.0055 76.4467 58.5522 76.06C58.0989 75.6733 57.4322 75.48 56.5522 75.48C55.8722 75.48 55.2255 75.6067 54.6122 75.86C54.0122 76.1133 53.4389 76.5 52.8922 77.02L52.1522 75.44C52.6855 74.92 53.3655 74.5067 54.1922 74.2C55.0189 73.88 55.8789 73.72 56.7722 73.72C57.7455 73.72 58.5655 73.8733 59.2322 74.18C59.9122 74.4733 60.4255 74.9067 60.7722 75.48C61.1189 76.0533 61.2922 76.7533 61.2922 77.58C61.2922 78.0067 61.2389 78.4267 61.1322 78.84C61.0389 79.24 60.8855 79.64 60.6722 80.04C60.4722 80.44 60.2122 80.8533 59.8922 81.28C59.5855 81.7067 59.2122 82.1467 58.7722 82.6L54.7522 86.84V86.26H61.8522V88H52.6922ZM64.6244 88V73.9H66.7044V80.24H66.7444L73.2844 73.9H75.8444L68.1844 81.24L68.2244 80.22L76.2444 88H73.6444L66.7444 81.42H66.7044V88H64.6244Z" fill="#25C7DC"/>
<line x1="97.3" y1="24" x2="97.3" y2="94" stroke="#DADADA" stroke-width="0.6"/>
<path d="M114.218 38V28.13H115.366V32.498H121.288V28.13H122.436V38H121.288V33.492H115.366V38H114.218ZM127.542 38.126C126.88 38.126 126.306 37.9813 125.82 37.692C125.335 37.4027 124.957 36.9967 124.686 36.474C124.425 35.942 124.294 35.3167 124.294 34.598C124.294 33.8793 124.425 33.2587 124.686 32.736C124.957 32.204 125.335 31.7933 125.82 31.504C126.306 31.2147 126.88 31.07 127.542 31.07C128.205 31.07 128.779 31.2147 129.264 31.504C129.75 31.7933 130.123 32.204 130.384 32.736C130.655 33.2587 130.79 33.8793 130.79 34.598C130.79 35.3167 130.655 35.942 130.384 36.474C130.123 36.9967 129.75 37.4027 129.264 37.692C128.779 37.9813 128.205 38.126 127.542 38.126ZM127.542 37.216C128.186 37.216 128.695 36.992 129.068 36.544C129.451 36.0867 129.642 35.4333 129.642 34.584C129.642 33.744 129.451 33.1 129.068 32.652C128.695 32.204 128.186 31.98 127.542 31.98C126.908 31.98 126.399 32.204 126.016 32.652C125.634 33.1 125.442 33.744 125.442 34.584C125.442 35.4333 125.634 36.0867 126.016 36.544C126.399 36.992 126.908 37.216 127.542 37.216ZM134.902 38.126C134.351 38.126 133.894 38.028 133.53 37.832C133.175 37.6267 132.904 37.3233 132.718 36.922C132.54 36.5207 132.452 36.0213 132.452 35.424V31.196H133.586V35.41C133.586 35.8113 133.637 36.1473 133.74 36.418C133.852 36.6793 134.024 36.8753 134.258 37.006C134.491 37.1273 134.78 37.188 135.126 37.188C135.518 37.188 135.858 37.0993 136.148 36.922C136.437 36.7447 136.666 36.4973 136.834 36.18C137.002 35.8627 137.086 35.4893 137.086 35.06V31.196H138.22V38H137.114V36.432H137.296C137.109 36.9827 136.801 37.4027 136.372 37.692C135.952 37.9813 135.462 38.126 134.902 38.126ZM140.341 38V31.196H141.447V32.806H141.307C141.466 32.2553 141.741 31.84 142.133 31.56C142.525 31.2707 143.043 31.1027 143.687 31.056L144.093 31.014L144.177 31.994L143.463 32.078C142.829 32.134 142.339 32.3393 141.993 32.694C141.657 33.0393 141.489 33.5153 141.489 34.122V38H140.341ZM147.587 38.126C147.232 38.126 146.887 38.0887 146.551 38.014C146.224 37.9487 145.916 37.8553 145.627 37.734C145.347 37.6033 145.104 37.4493 144.899 37.272L145.263 36.474C145.487 36.6513 145.729 36.8007 145.991 36.922C146.252 37.034 146.518 37.118 146.789 37.174C147.059 37.23 147.335 37.258 147.615 37.258C148.147 37.258 148.548 37.16 148.819 36.964C149.089 36.768 149.225 36.502 149.225 36.166C149.225 35.9047 149.136 35.6993 148.959 35.55C148.781 35.3913 148.501 35.27 148.119 35.186L146.845 34.906C146.257 34.7847 145.818 34.5747 145.529 34.276C145.249 33.9773 145.109 33.59 145.109 33.114C145.109 32.694 145.216 32.3347 145.431 32.036C145.655 31.728 145.967 31.49 146.369 31.322C146.77 31.154 147.237 31.07 147.769 31.07C148.086 31.07 148.389 31.1027 148.679 31.168C148.968 31.2333 149.239 31.3313 149.491 31.462C149.752 31.5833 149.976 31.7373 150.163 31.924L149.785 32.722C149.607 32.554 149.407 32.414 149.183 32.302C148.959 32.1807 148.725 32.092 148.483 32.036C148.249 31.9707 148.011 31.938 147.769 31.938C147.246 31.938 146.849 32.0407 146.579 32.246C146.308 32.4513 146.173 32.722 146.173 33.058C146.173 33.3193 146.257 33.534 146.425 33.702C146.593 33.87 146.854 33.9913 147.209 34.066L148.483 34.332C149.089 34.4627 149.542 34.6727 149.841 34.962C150.149 35.242 150.303 35.6247 150.303 36.11C150.303 36.5207 150.191 36.88 149.967 37.188C149.743 37.4867 149.425 37.72 149.015 37.888C148.613 38.0467 148.137 38.126 147.587 38.126ZM117.298 56L112.986 46.13H114.218L118.068 55.076H117.62L121.456 46.13H122.66L118.334 56H117.298ZM125.065 56.126C124.599 56.126 124.179 56.0373 123.805 55.86C123.441 55.6733 123.152 55.4213 122.937 55.104C122.723 54.7867 122.615 54.432 122.615 54.04C122.615 53.536 122.741 53.1393 122.993 52.85C123.255 52.5607 123.679 52.3553 124.267 52.234C124.865 52.1127 125.677 52.052 126.703 52.052H127.333V52.794H126.717C126.148 52.794 125.672 52.8127 125.289 52.85C124.907 52.8873 124.603 52.9527 124.379 53.046C124.155 53.1393 123.997 53.2607 123.903 53.41C123.81 53.5593 123.763 53.746 123.763 53.97C123.763 54.3527 123.894 54.6653 124.155 54.908C124.426 55.1507 124.79 55.272 125.247 55.272C125.621 55.272 125.947 55.1833 126.227 55.006C126.517 54.8287 126.741 54.586 126.899 54.278C127.067 53.97 127.151 53.6153 127.151 53.214V51.618C127.151 51.0393 127.035 50.624 126.801 50.372C126.568 50.1107 126.185 49.98 125.653 49.98C125.243 49.98 124.846 50.0407 124.463 50.162C124.081 50.274 123.689 50.4607 123.287 50.722L122.895 49.896C123.138 49.728 123.413 49.5833 123.721 49.462C124.029 49.3313 124.351 49.2333 124.687 49.168C125.023 49.1027 125.345 49.07 125.653 49.07C126.241 49.07 126.727 49.168 127.109 49.364C127.492 49.5507 127.777 49.84 127.963 50.232C128.15 50.6147 128.243 51.1093 128.243 51.716V56H127.179V54.418H127.305C127.231 54.7727 127.086 55.076 126.871 55.328C126.666 55.58 126.409 55.776 126.101 55.916C125.793 56.056 125.448 56.126 125.065 56.126ZM132.433 56.126C131.743 56.126 131.22 55.9207 130.865 55.51C130.52 55.0993 130.347 54.5113 130.347 53.746V46.13H131.481V53.662C131.481 53.9887 131.523 54.264 131.607 54.488C131.701 54.712 131.836 54.88 132.013 54.992C132.191 55.104 132.41 55.16 132.671 55.16C132.783 55.16 132.891 55.1553 132.993 55.146C133.105 55.1273 133.208 55.104 133.301 55.076L133.273 56.028C133.124 56.056 132.979 56.0793 132.839 56.098C132.709 56.1167 132.573 56.126 132.433 56.126ZM134.35 47.502V46.228H135.75V47.502H134.35ZM134.49 56V49.196H135.624V56H134.49ZM140.334 56.126C139.727 56.126 139.195 55.9813 138.738 55.692C138.29 55.4027 137.94 54.9967 137.688 54.474C137.445 53.942 137.324 53.3167 137.324 52.598C137.324 51.87 137.445 51.2447 137.688 50.722C137.94 50.19 138.29 49.784 138.738 49.504C139.195 49.2147 139.727 49.07 140.334 49.07C140.95 49.07 141.477 49.224 141.916 49.532C142.354 49.84 142.648 50.2553 142.798 50.778H142.644V46.13H143.778V56H142.672V54.376H142.812C142.662 54.908 142.364 55.3327 141.916 55.65C141.477 55.9673 140.95 56.126 140.334 56.126ZM140.572 55.216C141.216 55.216 141.724 54.992 142.098 54.544C142.48 54.0867 142.672 53.438 142.672 52.598C142.672 51.7487 142.48 51.1 142.098 50.652C141.724 50.204 141.216 49.98 140.572 49.98C139.937 49.98 139.428 50.204 139.046 50.652C138.663 51.1 138.472 51.7487 138.472 52.598C138.472 53.438 138.663 54.0867 139.046 54.544C139.428 54.992 139.937 55.216 140.572 55.216ZM148.048 56.126C147.581 56.126 147.161 56.0373 146.788 55.86C146.424 55.6733 146.134 55.4213 145.92 55.104C145.705 54.7867 145.598 54.432 145.598 54.04C145.598 53.536 145.724 53.1393 145.976 52.85C146.237 52.5607 146.662 52.3553 147.25 52.234C147.847 52.1127 148.659 52.052 149.686 52.052H150.316V52.794H149.7C149.13 52.794 148.654 52.8127 148.272 52.85C147.889 52.8873 147.586 52.9527 147.362 53.046C147.138 53.1393 146.979 53.2607 146.886 53.41C146.792 53.5593 146.746 53.746 146.746 53.97C146.746 54.3527 146.876 54.6653 147.138 54.908C147.408 55.1507 147.772 55.272 148.23 55.272C148.603 55.272 148.93 55.1833 149.21 55.006C149.499 54.8287 149.723 54.586 149.882 54.278C150.05 53.97 150.134 53.6153 150.134 53.214V51.618C150.134 51.0393 150.017 50.624 149.784 50.372C149.55 50.1107 149.168 49.98 148.636 49.98C148.225 49.98 147.828 50.0407 147.446 50.162C147.063 50.274 146.671 50.4607 146.27 50.722L145.878 49.896C146.12 49.728 146.396 49.5833 146.704 49.462C147.012 49.3313 147.334 49.2333 147.67 49.168C148.006 49.1027 148.328 49.07 148.636 49.07C149.224 49.07 149.709 49.168 150.092 49.364C150.474 49.5507 150.759 49.84 150.946 50.232C151.132 50.6147 151.226 51.1093 151.226 51.716V56H150.162V54.418H150.288C150.213 54.7727 150.068 55.076 149.854 55.328C149.648 55.58 149.392 55.776 149.084 55.916C148.776 56.056 148.43 56.126 148.048 56.126ZM156.06 56.126C155.257 56.126 154.655 55.9113 154.254 55.482C153.852 55.0527 153.652 54.4413 153.652 53.648V50.078H152.322V49.196H153.652V47.11H154.786V49.196H156.942V50.078H154.786V53.536C154.786 54.068 154.898 54.474 155.122 54.754C155.346 55.0247 155.71 55.16 156.214 55.16C156.363 55.16 156.512 55.1413 156.662 55.104C156.811 55.0667 156.946 55.0293 157.068 54.992L157.264 55.86C157.142 55.9253 156.965 55.986 156.732 56.042C156.498 56.098 156.274 56.126 156.06 56.126ZM161.222 56.126C160.503 56.126 159.882 55.986 159.36 55.706C158.846 55.4167 158.445 55.0107 158.156 54.488C157.876 53.9653 157.736 53.34 157.736 52.612C157.736 51.9027 157.876 51.2867 158.156 50.764C158.436 50.232 158.818 49.8167 159.304 49.518C159.798 49.2193 160.368 49.07 161.012 49.07C161.628 49.07 162.155 49.2053 162.594 49.476C163.032 49.7467 163.368 50.1293 163.602 50.624C163.844 51.1187 163.966 51.7113 163.966 52.402V52.836H158.604V52.094H163.21L162.986 52.276C162.986 51.5293 162.818 50.9507 162.482 50.54C162.155 50.12 161.674 49.91 161.04 49.91C160.564 49.91 160.158 50.022 159.822 50.246C159.495 50.4607 159.248 50.764 159.08 51.156C158.912 51.5387 158.828 51.9867 158.828 52.5V52.584C158.828 53.1533 158.916 53.634 159.094 54.026C159.28 54.418 159.556 54.7167 159.92 54.922C160.284 55.118 160.718 55.216 161.222 55.216C161.623 55.216 162.01 55.1553 162.384 55.034C162.766 54.9033 163.126 54.6933 163.462 54.404L163.854 55.202C163.546 55.482 163.154 55.706 162.678 55.874C162.202 56.042 161.716 56.126 161.222 56.126ZM168.197 56.126C167.59 56.126 167.058 55.9813 166.601 55.692C166.153 55.4027 165.803 54.9967 165.551 54.474C165.308 53.942 165.187 53.3167 165.187 52.598C165.187 51.87 165.308 51.2447 165.551 50.722C165.803 50.19 166.153 49.784 166.601 49.504C167.058 49.2147 167.59 49.07 168.197 49.07C168.813 49.07 169.34 49.224 169.779 49.532C170.218 49.84 170.512 50.2553 170.661 50.778H170.507V46.13H171.641V56H170.535V54.376H170.675C170.526 54.908 170.227 55.3327 169.779 55.65C169.34 55.9673 168.813 56.126 168.197 56.126ZM168.435 55.216C169.079 55.216 169.588 54.992 169.961 54.544C170.344 54.0867 170.535 53.438 170.535 52.598C170.535 51.7487 170.344 51.1 169.961 50.652C169.588 50.204 169.079 49.98 168.435 49.98C167.8 49.98 167.292 50.204 166.909 50.652C166.526 51.1 166.335 51.7487 166.335 52.598C166.335 53.438 166.526 54.0867 166.909 54.544C167.292 54.992 167.8 55.216 168.435 55.216Z" fill="#4F4F4F"/>
<circle cx="117" cy="81" r="4" fill="#F2876A"/>
<path d="M132.7 88V86.46L137.4 81.42C137.84 80.94 138.193 80.5 138.46 80.1C138.727 79.6867 138.92 79.2933 139.04 78.92C139.173 78.5333 139.24 78.1467 139.24 77.76C139.24 77.0133 139.013 76.4467 138.56 76.06C138.107 75.6733 137.44 75.48 136.56 75.48C135.88 75.48 135.233 75.6067 134.62 75.86C134.02 76.1133 133.447 76.5 132.9 77.02L132.16 75.44C132.693 74.92 133.373 74.5067 134.2 74.2C135.027 73.88 135.887 73.72 136.78 73.72C137.753 73.72 138.573 73.8733 139.24 74.18C139.92 74.4733 140.433 74.9067 140.78 75.48C141.127 76.0533 141.3 76.7533 141.3 77.58C141.3 78.0067 141.247 78.4267 141.14 78.84C141.047 79.24 140.893 79.64 140.68 80.04C140.48 80.44 140.22 80.8533 139.9 81.28C139.593 81.7067 139.22 82.1467 138.78 82.6L134.76 86.84V86.26H141.86V88H132.7ZM144.692 88V86.46L149.392 81.42C149.832 80.94 150.186 80.5 150.452 80.1C150.719 79.6867 150.912 79.2933 151.032 78.92C151.166 78.5333 151.232 78.1467 151.232 77.76C151.232 77.0133 151.006 76.4467 150.552 76.06C150.099 75.6733 149.432 75.48 148.552 75.48C147.872 75.48 147.226 75.6067 146.612 75.86C146.012 76.1133 145.439 76.5 144.892 77.02L144.152 75.44C144.686 74.92 145.366 74.5067 146.192 74.2C147.019 73.88 147.879 73.72 148.772 73.72C149.746 73.72 150.566 73.8733 151.232 74.18C151.912 74.4733 152.426 74.9067 152.772 75.48C153.119 76.0533 153.292 76.7533 153.292 77.58C153.292 78.0067 153.239 78.4267 153.132 78.84C153.039 79.24 152.886 79.64 152.672 80.04C152.472 80.44 152.212 80.8533 151.892 81.28C151.586 81.7067 151.212 82.1467 150.772 82.6L146.752 86.84V86.26H153.852V88H144.692ZM156.624 88V73.9H158.704V80.24H158.744L165.284 73.9H167.844L160.184 81.24L160.224 80.22L168.244 88H165.644L158.744 81.42H158.704V88H156.624Z" fill="#F2876A"/>
<rect x="329.3" y="24.3" width="211.4" height="51.4" rx="9.7" stroke="#DADADA" stroke-width="0.6"/>
<path d="M349.24 55.5L354.232 44.22H355.496L360.488 55.5H358.968L357.592 52.3L358.28 52.684H351.432L352.12 52.3L350.76 55.5H349.24ZM354.84 45.9L352.344 51.804L351.96 51.468H357.752L357.384 51.804L354.872 45.9H354.84ZM362.094 55.5V44.22H363.582V54.22H369.23V55.5H362.094ZM370.86 55.5V44.22H372.348V54.22H377.996V55.5H370.86ZM383.782 55.5V44.22H385.27V54.22H390.918V55.5H383.782ZM391.115 55.5L396.107 44.22H397.371L402.363 55.5H400.843L399.467 52.3L400.155 52.684H393.307L393.995 52.3L392.635 55.5H391.115ZM396.715 45.9L394.219 51.804L393.835 51.468H399.627L399.259 51.804L396.747 45.9H396.715ZM403.969 55.5V44.22H405.105L412.129 53.532H411.729V44.22H413.121V55.5H412.001L404.977 46.172H405.345V55.5H403.969ZM421.029 55.644C419.823 55.644 418.799 55.4147 417.957 54.956C417.125 54.4867 416.49 53.82 416.053 52.956C415.626 52.092 415.413 51.0627 415.413 49.868C415.413 48.6733 415.631 47.644 416.069 46.78C416.506 45.916 417.13 45.2493 417.941 44.78C418.762 44.3107 419.743 44.076 420.885 44.076C421.418 44.076 421.925 44.1293 422.405 44.236C422.885 44.3427 423.327 44.4973 423.733 44.7C424.149 44.9027 424.506 45.1587 424.805 45.468L424.261 46.636C423.749 46.1987 423.221 45.884 422.677 45.692C422.143 45.5 421.546 45.404 420.885 45.404C419.615 45.404 418.645 45.7933 417.973 46.572C417.311 47.34 416.981 48.4387 416.981 49.868C416.981 51.3293 417.322 52.4387 418.005 53.196C418.698 53.9533 419.722 54.332 421.077 54.332C421.578 54.332 422.063 54.284 422.533 54.188C423.013 54.092 423.471 53.9587 423.909 53.788L423.589 54.588V50.732H420.789V49.58H424.869V54.844C424.559 55.004 424.191 55.1427 423.765 55.26C423.338 55.3773 422.89 55.468 422.421 55.532C421.951 55.6067 421.487 55.644 421.029 55.644ZM431.981 55.644C430.488 55.644 429.352 55.2493 428.573 54.46C427.794 53.6707 427.405 52.5133 427.405 50.988V44.22H428.893V50.94C428.893 52.0813 429.154 52.9347 429.677 53.5C430.2 54.0547 430.968 54.332 431.981 54.332C432.994 54.332 433.762 54.0547 434.285 53.5C434.808 52.9347 435.069 52.0813 435.069 50.94V44.22H436.541V50.988C436.541 52.5133 436.152 53.6707 435.373 54.46C434.605 55.2493 433.474 55.644 431.981 55.644ZM437.99 55.5L442.982 44.22H444.246L449.238 55.5H447.718L446.342 52.3L447.03 52.684H440.182L440.87 52.3L439.51 55.5H437.99ZM443.59 45.9L441.094 51.804L440.71 51.468H446.502L446.134 51.804L443.622 45.9H443.59ZM455.841 55.644C454.636 55.644 453.612 55.4147 452.769 54.956C451.937 54.4867 451.303 53.82 450.865 52.956C450.439 52.092 450.225 51.0627 450.225 49.868C450.225 48.6733 450.444 47.644 450.881 46.78C451.319 45.916 451.943 45.2493 452.753 44.78C453.575 44.3107 454.556 44.076 455.697 44.076C456.231 44.076 456.737 44.1293 457.217 44.236C457.697 44.3427 458.14 44.4973 458.545 44.7C458.961 44.9027 459.319 45.1587 459.617 45.468L459.073 46.636C458.561 46.1987 458.033 45.884 457.489 45.692C456.956 45.5 456.359 45.404 455.697 45.404C454.428 45.404 453.457 45.7933 452.785 46.572C452.124 47.34 451.793 48.4387 451.793 49.868C451.793 51.3293 452.135 52.4387 452.817 53.196C453.511 53.9533 454.535 54.332 455.889 54.332C456.391 54.332 456.876 54.284 457.345 54.188C457.825 54.092 458.284 53.9587 458.721 53.788L458.401 54.588V50.732H455.601V49.58H459.681V54.844C459.372 55.004 459.004 55.1427 458.577 55.26C458.151 55.3773 457.703 55.468 457.233 55.532C456.764 55.6067 456.3 55.644 455.841 55.644ZM462.298 55.5V44.22H469.498V45.436H463.738V49.164H469.161V50.38H463.738V54.284H469.498V55.5H462.298ZM475.212 55.644C474.626 55.644 474.071 55.596 473.548 55.5C473.026 55.3933 472.546 55.244 472.108 55.052C471.671 54.8493 471.276 54.604 470.924 54.316L471.436 53.132C471.788 53.3987 472.156 53.628 472.54 53.82C472.924 54.0013 473.335 54.14 473.772 54.236C474.21 54.3213 474.69 54.364 475.212 54.364C476.151 54.364 476.839 54.1933 477.276 53.852C477.724 53.5107 477.948 53.0627 477.948 52.508C477.948 52.1987 477.879 51.9373 477.74 51.724C477.602 51.5107 477.378 51.3293 477.068 51.18C476.759 51.0307 476.354 50.908 475.852 50.812L474.156 50.46C473.154 50.2467 472.402 49.8947 471.9 49.404C471.41 48.9133 471.164 48.2573 471.164 47.436C471.164 46.764 471.34 46.1773 471.692 45.676C472.055 45.164 472.546 44.7693 473.164 44.492C473.794 44.2147 474.519 44.076 475.34 44.076C475.852 44.076 476.338 44.1293 476.796 44.236C477.255 44.332 477.682 44.4867 478.076 44.7C478.471 44.9027 478.818 45.1533 479.116 45.452L478.62 46.588C478.151 46.1613 477.65 45.852 477.116 45.66C476.583 45.4573 475.986 45.356 475.324 45.356C474.78 45.356 474.306 45.4413 473.9 45.612C473.506 45.7827 473.196 46.0227 472.972 46.332C472.759 46.6307 472.652 46.9827 472.652 47.388C472.652 47.8787 472.802 48.2627 473.1 48.54C473.399 48.8173 473.9 49.0307 474.604 49.18L476.284 49.516C477.351 49.74 478.14 50.0867 478.652 50.556C479.175 51.0147 479.436 51.6333 479.436 52.412C479.436 53.052 479.266 53.6173 478.924 54.108C478.583 54.588 478.092 54.9667 477.452 55.244C476.823 55.5107 476.076 55.644 475.212 55.644Z" fill="#AFAFB0"/>
<path d="M505 56.4C504.067 56.4 503.133 56.04 502.427 55.3333L493.733 46.64C493.347 46.2533 493.347 45.6133 493.733 45.2266C494.12 44.84 494.76 44.84 495.147 45.2266L503.84 53.92C504.48 54.56 505.52 54.56 506.16 53.92L514.853 45.2266C515.24 44.84 515.88 44.84 516.267 45.2266C516.653 45.6133 516.653 46.2533 516.267 46.64L507.573 55.3333C506.867 56.04 505.933 56.4 505 56.4Z" fill="#4F4F4F"/>
<line x1="92.8884" y1="202.006" x2="466.888" y2="160.006" stroke="#00013A" stroke-width="2"/>
<g filter="url(#filter0_d_19_506)">
<circle cx="475" cy="157" r="10" fill="#00013A"/>
<circle cx="475" cy="157" r="8.5" stroke="white" stroke-width="3"/>
</g>
<line x1="105.888" y1="286.006" x2="479.888" y2="244.006" stroke="#F2876A" stroke-width="2"/>
<g filter="url(#filter1_d_19_506)">
<circle cx="488" cy="241" r="10" fill="#F2876A"/>
<circle cx="488" cy="241" r="8.5" stroke="white" stroke-width="3"/>
</g>
<defs>
<filter id="filter0_d_19_506" x="459" y="145" width="32" height="32" filterUnits="userSpaceOnUse" color-interpolation-filters="sRGB">
<feFlood flood-opacity="0" result="BackgroundImageFix"/>
<feColorMatrix in="SourceAlpha" type="matrix" values="0 0 0 0 0 0 0 0 0 0 0 0 0 0 0 0 0 0 127 0" result="hardAlpha"/>
<feMorphology radius="2" operator="dilate" in="SourceAlpha" result="effect1_dropShadow_19_506"/>
<feOffset dy="4"/>
<feGaussianBlur stdDeviation="2"/>
<feComposite in2="hardAlpha" operator="out"/>
<feColorMatrix type="matrix" values="0 0 0 0 0.411765 0 0 0 0 0.690196 0 0 0 0 0.788235 0 0 0 0.25 0"/>
<feBlend mode="normal" in2="BackgroundImageFix" result="effect1_dropShadow_19_506"/>
<feBlend mode="normal" in="SourceGraphic" in2="effect1_dropShadow_19_506" result="shape"/>
</filter>
<filter id="filter1_d_19_506" x="472" y="229" width="32" height="32" filterUnits="userSpaceOnUse" color-interpolation-filters="sRGB">
<feFlood flood-opacity="0" result="BackgroundImageFix"/>
<feColorMatrix in="SourceAlpha" type="matrix" values="0 0 0 0 0 0 0 0 0 0 0 0 0 0 0 0 0 0 127 0" result="hardAlpha"/>
<feMorphology radius="2" operator="dilate" in="SourceAlpha" result="effect1_dropShadow_19_506"/>
<feOffset dy="4"/>
<feGaussianBlur stdDeviation="2"/>
<feComposite in2="hardAlpha" operator="out"/>
<feColorMatrix type="matrix" values="0 0 0 0 0.94902 0 0 0 0 0.529412 0 0 0 0 0.415686 0 0 0 0.25 0"/>
<feBlend mode="normal" in2="BackgroundImageFix" result="effect1_dropShadow_19_506"/>
<feBlend mode="normal" in="SourceGraphic" in2="effect1_dropShadow_19_506" result="shape"/>
</filter>
</defs>
</svg>
