<svg width="667" height="468" viewBox="0 0 667 468" fill="none" xmlns="http://www.w3.org/2000/svg">
<path fill-rule="evenodd" clip-rule="evenodd" d="M638.987 467.5C639.91 465.398 640.813 463.284 641.694 461.16L640.77 460.777L639.846 460.394C638.858 462.776 637.843 465.145 636.801 467.5H638.987ZM30.1987 467.5C29.157 465.145 28.1418 462.777 27.1536 460.394L26.2299 460.777L25.3062 461.16C26.1872 463.284 27.0896 465.398 28.013 467.5H30.1987ZM649.687 439.84C648.476 443.443 647.205 447.019 645.875 450.566L644.939 450.215L644.002 449.864C645.324 446.338 646.588 442.784 647.792 439.203L648.74 439.521L649.687 439.84ZM652.173 428.696L653.131 428.982C654.214 425.349 655.238 421.691 656.2 418.008L655.232 417.755L654.264 417.503C653.308 421.163 652.291 424.8 651.214 428.41L652.173 428.696ZM657.91 406.731L658.885 406.95C659.716 403.255 660.485 399.537 661.192 395.797L660.209 395.611L659.226 395.426C658.524 399.143 657.759 402.839 656.934 406.512L657.91 406.731ZM662.128 384.407L663.116 384.558C663.69 380.822 664.202 377.065 664.651 373.289L663.658 373.171L662.665 373.053C662.219 376.807 661.71 380.541 661.139 384.255L662.128 384.407ZM664.806 361.876L665.803 361.96C666.122 358.184 666.378 354.389 666.57 350.578L665.572 350.528L664.573 350.477C664.382 354.266 664.127 358.038 663.81 361.792L664.806 361.876ZM665.952 339.199L666.952 339.216C666.984 337.315 667 335.409 667 333.5C667 331.591 666.984 329.685 666.952 327.784L665.952 327.801L664.952 327.817C664.984 329.708 665 331.602 665 333.5C665 335.398 664.984 337.292 664.952 339.182L665.952 339.199ZM665.572 316.472L666.57 316.422C666.378 312.611 666.122 308.816 665.803 305.04L664.806 305.124L663.81 305.208C664.127 308.962 664.382 312.734 664.573 316.523L665.572 316.472ZM663.658 293.829L664.651 293.711C664.202 289.935 663.69 286.178 663.116 282.441L662.128 282.593L661.139 282.745C661.71 286.459 662.219 290.193 662.665 293.947L663.658 293.829ZM660.209 271.388L661.192 271.203C660.485 267.463 659.716 263.744 658.885 260.05L657.91 260.269L656.934 260.488C657.759 264.161 658.524 267.856 659.226 271.574L660.209 271.388ZM655.232 249.245L656.2 248.992C655.238 245.309 654.214 241.651 653.131 238.018L652.173 238.304L651.214 238.59C652.291 242.2 653.308 245.836 654.264 249.497L655.232 249.245ZM648.74 227.479L649.687 227.16C648.476 223.557 647.205 219.981 645.875 216.434L644.939 216.785L644.002 217.136C645.324 220.662 646.588 224.216 647.792 227.797L648.74 227.479ZM640.77 206.223L641.694 205.84C640.237 202.327 638.722 198.844 637.15 195.393L636.24 195.808L635.33 196.222C636.892 199.653 638.398 203.115 639.846 206.606L640.77 206.223ZM631.357 185.559L632.252 185.114C630.559 181.712 628.81 178.344 627.006 175.009L626.126 175.485L625.247 175.961C627.04 179.275 628.779 182.624 630.462 186.005L631.357 185.559ZM620.55 165.589L621.413 165.083C619.492 161.806 617.516 158.563 615.487 155.358L614.642 155.893L613.797 156.428C615.814 159.614 617.778 162.837 619.688 166.095L620.55 165.589ZM608.407 146.406L609.233 145.843C607.093 142.704 604.9 139.604 602.657 136.543L601.85 137.134L601.044 137.725C603.274 140.768 605.453 143.85 607.581 146.97L608.407 146.406ZM594.982 128.091L595.768 127.473C593.42 124.488 591.022 121.545 588.576 118.643L587.812 119.288L587.047 119.933C589.479 122.817 591.862 125.743 594.196 128.709L594.982 128.091ZM580.346 110.733L581.088 110.063C578.543 107.244 575.951 104.47 573.312 101.74L572.593 102.435L571.874 103.13C574.497 105.844 577.074 108.602 579.604 111.403L580.346 110.733ZM564.564 94.4065L565.259 93.6875C562.53 91.0491 559.755 88.4568 556.937 85.912L556.267 86.6542L555.597 87.3963C558.398 89.926 561.156 92.5028 563.869 95.1255L564.564 94.4065ZM547.712 79.1884L548.357 78.4239C545.455 75.9775 542.512 73.5798 539.527 71.2319L538.909 72.0178L538.29 72.8038C541.257 75.1377 544.183 77.5211 547.067 79.9529L547.712 79.1884ZM529.866 65.1498L530.457 64.3433C527.396 62.0998 524.296 59.9073 521.157 57.7669L520.594 58.5931L520.03 59.4193C523.15 61.5468 526.232 63.7263 529.274 65.9563L529.866 65.1498ZM511.107 52.3582L511.642 51.5133C508.436 49.4842 505.194 47.5083 501.916 45.5868L501.411 46.4495L500.905 47.3122C504.163 49.2222 507.386 51.1862 510.572 53.2031L511.107 52.3582ZM491.515 40.8735L491.991 39.994C488.656 38.1897 485.288 36.4405 481.886 34.7478L481.441 35.643L480.995 36.5383C484.376 38.2209 487.725 39.9595 491.039 41.753L491.515 40.8735ZM471.192 30.7602L471.607 29.8502C468.155 28.278 464.673 26.7629 461.16 25.3061L460.777 26.2298L460.394 27.1536C463.885 28.6016 467.347 30.1075 470.777 31.6703L471.192 30.7602ZM450.215 22.0614L450.566 21.1251C447.019 19.7952 443.443 18.5239 439.84 17.3125L439.521 18.2604L439.203 19.2083C442.784 20.4123 446.338 21.6759 449.864 22.9978L450.215 22.0614ZM428.696 14.8273L428.982 13.869C425.349 12.7856 421.691 11.7623 418.008 10.8004L417.755 11.768L417.503 12.7355C421.163 13.6916 424.8 14.7087 428.41 15.7856L428.696 14.8273ZM406.731 9.09042L406.95 8.11476C403.255 7.28427 399.537 6.51511 395.797 5.80839L395.611 6.79101L395.426 7.77362C399.143 8.47608 402.839 9.2406 406.512 10.0661L406.731 9.09042ZM384.407 4.8724L384.558 3.88399C380.822 3.30995 377.065 2.79792 373.289 2.34898L373.171 3.34199L373.053 4.335C376.807 4.78125 380.541 5.29021 384.255 5.8608L384.407 4.8724ZM361.876 2.19376L361.96 1.19731C358.184 0.878164 354.389 0.621944 350.578 0.429704L350.528 1.42844L350.477 2.42717C354.266 2.61827 358.038 2.87296 361.792 3.19021L361.876 2.19376ZM333.5 0C335.409 0 337.315 0.0160415 339.216 0.0479971L339.199 1.04786L339.182 2.04771C337.292 2.01595 335.398 2 333.5 2C331.602 2 329.708 2.01595 327.817 2.04772L327.801 1.04786L327.784 0.0480013C329.685 0.0160429 331.591 0 333.5 0ZM316.472 1.42845L316.422 0.429716C312.611 0.621958 308.816 0.878181 305.04 1.19733L305.124 2.19378L305.208 3.19023C308.962 2.87298 312.734 2.61828 316.523 2.42718L316.472 1.42845ZM293.829 3.34202L293.711 2.34901C289.935 2.79795 286.178 3.30998 282.441 3.88402L282.593 4.87242L282.745 5.86083C286.459 5.29023 290.193 4.78127 293.947 4.33502L293.829 3.34202ZM271.388 6.79104L271.203 5.80843C267.463 6.51515 263.744 7.28431 260.05 8.1148L260.269 9.09046L260.488 10.0661C264.161 9.24064 267.856 8.47611 271.574 7.77366L271.388 6.79104ZM249.245 11.768L248.992 10.8005C245.309 11.7623 241.651 12.7856 238.018 13.8691L238.304 14.8274L238.59 15.7856C242.2 14.7087 245.836 13.6916 249.497 12.7356L249.245 11.768ZM227.479 18.2605L227.16 17.3126C223.557 18.524 219.981 19.7952 216.434 21.1251L216.785 22.0615L217.136 22.9978C220.662 21.6759 224.216 20.4124 227.797 19.2083L227.479 18.2605ZM206.223 26.2299L205.84 25.3062C202.327 26.763 198.845 28.2781 195.393 29.8503L195.808 30.7603L196.222 31.6703C199.653 30.1076 203.115 28.6016 206.606 27.1536L206.223 26.2299ZM185.559 35.6431L185.114 34.7479C181.712 36.4406 178.344 38.1897 175.009 39.994L175.485 40.8735L175.961 41.753C179.275 39.9596 182.624 38.2209 186.005 36.5384L185.559 35.6431ZM165.589 46.4495L165.083 45.5868C161.806 47.5084 158.563 49.4843 155.358 51.5134L155.893 52.3583L156.428 53.2032C159.614 51.1863 162.837 49.2222 166.095 47.3122L165.589 46.4495ZM146.406 58.5932L145.843 57.767C142.704 59.9073 139.604 62.0999 136.543 64.3433L137.134 65.1499L137.725 65.9564C140.768 63.7263 143.85 61.5469 146.97 59.4194L146.406 58.5932ZM128.091 72.0179L127.473 71.232C124.488 73.5799 121.545 75.9776 118.643 78.424L119.288 79.1885L119.932 79.953C122.817 77.5212 125.743 75.1378 128.709 72.8039L128.091 72.0179ZM110.733 86.6543L110.063 85.9121C107.244 88.4569 104.47 91.0492 101.74 93.6876L102.435 94.4066L103.13 95.1256C105.844 92.5029 108.602 89.9261 111.403 87.3964L110.733 86.6543ZM94.4066 102.436L93.6876 101.741C91.0491 104.47 88.4568 107.245 85.912 110.063L86.6542 110.733L87.3964 111.403C89.926 108.602 92.5028 105.844 95.1255 103.131L94.4066 102.436ZM79.1884 119.288L78.4239 118.643C75.9775 121.545 73.5798 124.488 71.2319 127.473L72.0178 128.091L72.8038 128.71C75.1377 125.743 77.5211 122.817 79.9529 119.933L79.1884 119.288ZM65.1498 137.134L64.3433 136.543C62.0998 139.604 59.9072 142.704 57.7669 145.843L58.5931 146.406L59.4193 146.97C61.5469 143.85 63.7263 140.768 65.9563 137.726L65.1498 137.134ZM52.3582 155.893L51.5133 155.358C49.4843 158.564 47.5084 161.806 45.5868 165.084L46.4495 165.589L47.3121 166.095C49.2222 162.837 51.1862 159.614 53.2031 156.428L52.3582 155.893ZM40.8735 175.485L39.994 175.009C38.1896 178.344 36.4406 181.712 34.7478 185.114L35.6431 185.559L36.5383 186.005C38.2209 182.624 39.9595 179.275 41.7529 175.961L40.8735 175.485ZM30.7603 195.808L29.8502 195.393C28.278 198.845 26.7629 202.327 25.3061 205.84L26.2299 206.223L27.1536 206.606C28.6016 203.115 30.1075 199.653 31.6702 196.223L30.7603 195.808ZM22.0614 216.785L21.1251 216.434C19.7952 219.981 18.5239 223.557 17.3126 227.16L18.2604 227.479L19.2083 227.797C20.4124 224.216 21.6759 220.662 22.9978 217.136L22.0614 216.785ZM14.8273 238.304L13.869 238.018C12.7855 241.651 11.7623 245.309 10.8004 248.992L11.768 249.245L12.7355 249.497C13.6916 245.837 14.7087 242.2 15.7856 238.59L14.8273 238.304ZM9.09039 260.269L8.11475 260.05C7.28424 263.745 6.51514 267.463 5.80841 271.203L6.79102 271.389L7.77362 271.574C8.47607 267.857 9.2406 264.161 10.0661 260.488L9.09039 260.269ZM2.349 293.711C2.79791 289.935 3.30994 286.178 3.88397 282.442L4.87238 282.593L5.86078 282.745C5.29022 286.459 4.78125 290.193 4.33502 293.947L3.34198 293.829L2.349 293.711ZM2.19379 305.124L1.19733 305.04C0.878174 308.816 0.621948 312.611 0.429688 316.422L1.42841 316.472L2.42719 316.523C2.61829 312.734 2.87299 308.962 3.19019 305.208L2.19379 305.124ZM1.04785 327.801L0.0479736 327.784C0.0159912 329.685 0 331.591 0 333.5C0 335.409 0.0159912 337.315 0.0479736 339.216L1.04785 339.199L2.04773 339.183C2.01593 337.292 2 335.398 2 333.5C2 331.602 2.01593 329.708 2.04773 327.818L1.04785 327.801ZM1.42847 350.528L0.429688 350.578C0.621948 354.389 0.878174 358.184 1.19733 361.96L2.19379 361.876L3.19025 361.792C2.87299 358.038 2.61829 354.266 2.42719 350.477L1.42847 350.528ZM3.34204 373.171L2.349 373.289C2.79791 377.065 3.31 380.822 3.88403 384.559L4.87244 384.407L5.86084 384.255C5.29022 380.541 4.78125 376.807 4.33502 373.053L3.34204 373.171ZM6.79102 395.612L5.80841 395.797C6.51514 399.537 7.2843 403.256 8.11481 406.95L9.09045 406.731L10.0661 406.512C9.24066 402.839 8.47614 399.144 7.77368 395.426L6.79102 395.612ZM11.768 417.755L10.8005 418.008C11.7623 421.691 12.7856 425.35 13.8691 428.982L14.8274 428.696L15.7856 428.41C14.7087 424.8 13.6917 421.164 12.7356 417.503L11.768 417.755ZM18.2604 439.521L17.3126 439.84C18.524 443.443 19.7952 447.019 21.1251 450.566L22.0615 450.215L22.9978 449.864C21.6759 446.338 20.4124 442.784 19.2083 439.203L18.2604 439.521Z" fill="#00013A"/>
</svg>
