<svg width="61" height="60" viewBox="0 0 61 60" fill="none" xmlns="http://www.w3.org/2000/svg">
<path d="M41.75 52.5C41.75 53.525 40.9 54.375 39.875 54.375H21.125C20.1 54.375 19.25 53.525 19.25 52.5C19.25 51.475 20.1 50.625 21.125 50.625H39.875C40.9 50.625 41.75 51.475 41.75 52.5Z" fill="#69B0C9"/>
<path d="M48 41.25C48 42.275 47.15 43.125 46.125 43.125H14.875C13.85 43.125 13 42.275 13 41.25C13 40.225 13.85 39.375 14.875 39.375H46.125C47.15 39.375 48 40.225 48 41.25Z" fill="#69B0C9"/>
<path d="M54.25 30C54.25 31.025 53.4 31.875 52.375 31.875L8.625 31.875C7.6 31.875 6.75 31.025 6.75 30C6.75 28.975 7.6 28.125 8.625 28.125L52.375 28.125C53.4 28.125 54.25 28.975 54.25 30Z" fill="#69B0C9"/>
<path d="M48 18.75C48 19.775 47.15 20.625 46.125 20.625L14.875 20.625C13.85 20.625 13 19.775 13 18.75C13 17.725 13.85 16.875 14.875 16.875L46.125 16.875C47.15 16.875 48 17.725 48 18.75Z" fill="#69B0C9"/>
<path d="M41.75 7.5C41.75 8.525 40.9 9.375 39.875 9.375L21.125 9.375C20.1 9.375 19.25 8.525 19.25 7.5C19.25 6.475 20.1 5.625 21.125 5.625L39.875 5.625C40.9 5.625 41.75 6.475 41.75 7.5Z" fill="#69B0C9"/>
</svg>
