<svg width="48" height="48" viewBox="0 0 48 48" fill="none" xmlns="http://www.w3.org/2000/svg">
<path d="M6 33C5.18 33 4.5 32.32 4.5 31.5V16.5C4.5 15.68 5.18 15 6 15C6.82 15 7.5 15.68 7.5 16.5V31.5C7.5 32.32 6.82 33 6 33Z" fill="#040408"/>
<path opacity="0.4" d="M15 38C14.18 38 13.5 37.32 13.5 36.5V11.5C13.5 10.68 14.18 10 15 10C15.82 10 16.5 10.68 16.5 11.5V36.5C16.5 37.32 15.82 38 15 38Z" fill="#040408"/>
<path d="M24 43C23.18 43 22.5 42.32 22.5 41.5V6.5C22.5 5.68 23.18 5 24 5C24.82 5 25.5 5.68 25.5 6.5V41.5C25.5 42.32 24.82 43 24 43Z" fill="#4F4F4F"/>
<path opacity="0.4" d="M33 38C32.18 38 31.5 37.32 31.5 36.5V11.5C31.5 10.68 32.18 10 33 10C33.82 10 34.5 10.68 34.5 11.5V36.5C34.5 37.32 33.82 38 33 38Z" fill="#040408"/>
<path d="M42 33C41.18 33 40.5 32.32 40.5 31.5V16.5C40.5 15.68 41.18 15 42 15C42.82 15 43.5 15.68 43.5 16.5V31.5C43.5 32.32 42.82 33 42 33Z" fill="#040408"/>
</svg>
