<svg width="30" height="30" viewBox="0 0 30 30" fill="none" xmlns="http://www.w3.org/2000/svg">
<path d="M23.32 3.47998H6.68002C5.9731 3.47998 5.40002 4.05306 5.40002 4.75998V13.72C5.40002 14.4269 5.9731 15 6.68002 15H23.32C24.027 15 24.6 14.4269 24.6 13.72V4.75998C24.6 4.05306 24.027 3.47998 23.32 3.47998Z" fill="#25C7DC"/>
<path d="M10.5201 11.8001C11.9339 11.8001 13.0801 10.6539 13.0801 9.24005C13.0801 7.8262 11.9339 6.68005 10.5201 6.68005C9.10623 6.68005 7.96008 7.8262 7.96008 9.24005C7.96008 10.6539 9.10623 11.8001 10.5201 11.8001Z" fill="white"/>
<path d="M19.48 11.8001C20.8939 11.8001 22.04 10.6539 22.04 9.24005C22.04 7.8262 20.8939 6.68005 19.48 6.68005C18.0662 6.68005 16.92 7.8262 16.92 9.24005C16.92 10.6539 18.0662 11.8001 19.48 11.8001Z" fill="white"/>
<path d="M16.92 22.6801H13.08C12.3731 22.6801 11.8 23.2531 11.8 23.9601V27.8001C11.8 28.507 12.3731 29.0801 13.08 29.0801H16.92C17.627 29.0801 18.2 28.507 18.2 27.8001V23.9601C18.2 23.2531 17.627 22.6801 16.92 22.6801Z" fill="#F2876A"/>
<path d="M27.8001 22.6801H23.9601C23.2531 22.6801 22.6801 23.2531 22.6801 23.9601V27.8001C22.6801 28.507 23.2531 29.0801 23.9601 29.0801H27.8001C28.507 29.0801 29.0801 28.507 29.0801 27.8001V23.9601C29.0801 23.2531 28.507 22.6801 27.8001 22.6801Z" fill="#F2876A"/>
<path d="M6.04004 22.6801H2.20004C1.49312 22.6801 0.920044 23.2531 0.920044 23.9601V27.8001C0.920044 28.507 1.49312 29.0801 2.20004 29.0801H6.04004C6.74697 29.0801 7.32004 28.507 7.32004 27.8001V23.9601C7.32004 23.2531 6.74697 22.6801 6.04004 22.6801Z" fill="#F2876A"/>
<path d="M24.6 6.04004H26.52C26.8595 6.04004 27.185 6.1749 27.4251 6.41494C27.6651 6.65499 27.8 6.98056 27.8 7.32004V11.16C27.8 11.4995 27.6651 11.8251 27.4251 12.0651C27.185 12.3052 26.8595 12.44 26.52 12.44H24.6V6.04004Z" fill="#25C7DC"/>
<path d="M5.40002 12.4401H3.48002C3.14055 12.4401 2.81497 12.3052 2.57493 12.0652C2.33488 11.8251 2.20002 11.4995 2.20002 11.1601L2.20002 7.32006C2.20002 6.98059 2.33488 6.65501 2.57493 6.41497C2.81497 6.17492 3.14055 6.04006 3.48002 6.04006H5.40002L5.40002 12.4401Z" fill="#25C7DC"/>
<path d="M10.52 12.44C11.2573 12.439 11.9717 12.1839 12.5428 11.7175C13.114 11.2512 13.5069 10.6023 13.6553 9.88005H16.3447C16.5033 10.657 16.9448 11.3475 17.5835 11.8175C18.2222 12.2875 19.0127 12.5035 19.8017 12.4238C20.5907 12.3441 21.322 11.9743 21.8538 11.3861C22.3856 10.7978 22.68 10.0331 22.68 9.24005C22.68 8.44704 22.3856 7.68228 21.8538 7.09403C21.322 6.50578 20.5907 6.13596 19.8017 6.05625C19.0127 5.97655 18.2222 6.19264 17.5835 6.66264C16.9448 7.13264 16.5033 7.82306 16.3447 8.60005H13.6553C13.5342 8.00679 13.2473 7.46007 12.8278 7.02338C12.4084 6.58669 11.8737 6.27796 11.2858 6.13304C10.6979 5.98813 10.081 6.01299 9.50664 6.20472C8.93231 6.39645 8.42416 6.7472 8.04122 7.21621C7.65828 7.68522 7.41626 8.25325 7.34328 8.85433C7.2703 9.4554 7.36934 10.0649 7.62891 10.6119C7.88849 11.1589 8.29793 11.6211 8.80969 11.9447C9.32144 12.2683 9.91451 12.4401 10.52 12.44ZM19.48 7.32005C19.8597 7.32005 20.231 7.43265 20.5467 7.64362C20.8624 7.8546 21.1085 8.15446 21.2538 8.50529C21.3992 8.85613 21.4372 9.24218 21.3631 9.61462C21.289 9.98706 21.1062 10.3292 20.8376 10.5977C20.5691 10.8662 20.227 11.0491 19.8546 11.1232C19.4821 11.1972 19.0961 11.1592 18.7452 11.0139C18.3944 10.8686 18.0945 10.6225 17.8836 10.3067C17.6726 9.991 17.56 9.61979 17.56 9.24005C17.5606 8.731 17.763 8.24296 18.123 7.88302C18.4829 7.52307 18.971 7.3206 19.48 7.32005ZM10.52 7.32005C10.8997 7.32005 11.271 7.43265 11.5867 7.64362C11.9024 7.8546 12.1485 8.15446 12.2938 8.50529C12.4392 8.85613 12.4772 9.24218 12.4031 9.61462C12.329 9.98706 12.1462 10.3292 11.8776 10.5977C11.6091 10.8662 11.267 11.0491 10.8946 11.1232C10.5221 11.1972 10.1361 11.1592 9.78525 11.0139C9.43441 10.8686 9.13455 10.6225 8.92358 10.3067C8.71261 9.991 8.6 9.61979 8.6 9.24005C8.60055 8.731 8.80302 8.24296 9.16297 7.88302C9.52292 7.52307 10.011 7.3206 10.52 7.32005Z" fill="#00013A"/>
<path d="M27.8 22.04H26.52V20.76C26.5195 20.251 26.317 19.7629 25.9571 19.403C25.5971 19.043 25.1091 18.8406 24.6 18.84H23.32C23.1503 18.8399 22.9876 18.7724 22.8677 18.6524C22.7477 18.5324 22.6802 18.3697 22.68 18.2V15.64H23.32C23.8291 15.6395 24.3171 15.437 24.6771 15.0771C25.037 14.7171 25.2395 14.2291 25.24 13.72V13.08H26.52C27.0291 13.0795 27.5171 12.877 27.8771 12.5171C28.237 12.1571 28.4395 11.6691 28.44 11.16V7.32003C28.4395 6.81098 28.237 6.32295 27.8771 5.963C27.5171 5.60305 27.0291 5.40058 26.52 5.40003H25.24V4.76003C25.2395 4.25098 25.037 3.76295 24.6771 3.403C24.3171 3.04305 23.8291 2.84058 23.32 2.84003H22.04V0.920029C22.04 0.750291 21.9726 0.587504 21.8526 0.467481C21.7326 0.347458 21.5698 0.280029 21.4 0.280029C21.2303 0.280029 21.0675 0.347458 20.9475 0.467481C20.8275 0.587504 20.76 0.750291 20.76 0.920029V2.84003H9.24003V0.920029C9.24003 0.750291 9.1726 0.587504 9.05258 0.467481C8.93255 0.347458 8.76977 0.280029 8.60003 0.280029C8.43029 0.280029 8.2675 0.347458 8.14748 0.467481C8.02746 0.587504 7.96003 0.750291 7.96003 0.920029V2.84003H6.68003C6.17098 2.84058 5.68295 3.04305 5.323 3.403C4.96305 3.76295 4.76058 4.25098 4.76003 4.76003V5.40003H3.48003C2.97098 5.40058 2.48295 5.60305 2.123 5.963C1.76305 6.32295 1.56058 6.81098 1.56003 7.32003V11.16C1.56058 11.6691 1.76305 12.1571 2.123 12.5171C2.48295 12.877 2.97098 13.0795 3.48003 13.08H4.76003V13.72C4.76058 14.2291 4.96305 14.7171 5.323 15.0771C5.68295 15.437 6.17098 15.6395 6.68003 15.64H7.32003V18.2C7.31987 18.3697 7.25239 18.5324 7.1324 18.6524C7.01241 18.7724 6.84972 18.8399 6.68003 18.84H5.40003C4.89098 18.8406 4.40295 19.043 4.043 19.403C3.68305 19.7629 3.48058 20.251 3.48003 20.76V22.04H2.20003C1.69098 22.0406 1.20295 22.243 0.842998 22.603C0.483049 22.9629 0.280585 23.451 0.280029 23.96V27.8C0.280585 28.3091 0.483049 28.7971 0.842998 29.1571C1.20295 29.517 1.69098 29.7195 2.20003 29.72H6.04003C6.54907 29.7195 7.03711 29.517 7.39706 29.1571C7.75701 28.7971 7.95947 28.3091 7.96003 27.8V23.96C7.95947 23.451 7.75701 22.9629 7.39706 22.603C7.03711 22.243 6.54907 22.0406 6.04003 22.04H4.76003V20.76C4.76019 20.5903 4.82767 20.4276 4.94766 20.3077C5.06765 20.1877 5.23034 20.1202 5.40003 20.12H6.68003C7.18907 20.1195 7.67711 19.917 8.03706 19.5571C8.39701 19.1971 8.59947 18.7091 8.60003 18.2V15.64H14.36V22.04H13.08C12.571 22.0406 12.0829 22.243 11.723 22.603C11.363 22.9629 11.1606 23.451 11.16 23.96V27.8C11.1606 28.3091 11.363 28.7971 11.723 29.1571C12.0829 29.517 12.571 29.7195 13.08 29.72H16.92C17.4291 29.7195 17.9171 29.517 18.2771 29.1571C18.637 28.7971 18.8395 28.3091 18.84 27.8V23.96C18.8395 23.451 18.637 22.9629 18.2771 22.603C17.9171 22.243 17.4291 22.0406 16.92 22.04H15.64V15.64H21.4V18.2C21.4006 18.7091 21.603 19.1971 21.963 19.5571C22.3229 19.917 22.811 20.1195 23.32 20.12H24.6C24.7697 20.1202 24.9324 20.1877 25.0524 20.3077C25.1724 20.4276 25.2399 20.5903 25.24 20.76V22.04H23.96C23.451 22.0406 22.9629 22.243 22.603 22.603C22.243 22.9629 22.0406 23.451 22.04 23.96V27.8C22.0406 28.3091 22.243 28.7971 22.603 29.1571C22.9629 29.517 23.451 29.7195 23.96 29.72H27.8C28.3091 29.7195 28.7971 29.517 29.1571 29.1571C29.517 28.7971 29.7195 28.3091 29.72 27.8V23.96C29.7195 23.451 29.517 22.9629 29.1571 22.603C28.7971 22.243 28.3091 22.0406 27.8 22.04ZM6.68003 23.96V27.8C6.67987 27.9697 6.61239 28.1324 6.4924 28.2524C6.37241 28.3724 6.20972 28.4399 6.04003 28.44H2.20003C2.03034 28.4399 1.86765 28.3724 1.74766 28.2524C1.62767 28.1324 1.56019 27.9697 1.56003 27.8V23.96C1.56019 23.7903 1.62767 23.6276 1.74766 23.5077C1.86765 23.3877 2.03034 23.3202 2.20003 23.32H6.04003C6.20972 23.3202 6.37241 23.3877 6.4924 23.5077C6.61239 23.6276 6.67987 23.7903 6.68003 23.96ZM17.56 23.96V27.8C17.5599 27.9697 17.4924 28.1324 17.3724 28.2524C17.2524 28.3724 17.0897 28.4399 16.92 28.44H13.08C12.9103 28.4399 12.7476 28.3724 12.6277 28.2524C12.5077 28.1324 12.4402 27.9697 12.44 27.8V23.96C12.4402 23.7903 12.5077 23.6276 12.6277 23.5077C12.7476 23.3877 12.9103 23.3202 13.08 23.32H16.92C17.0897 23.3202 17.2524 23.3877 17.3724 23.5077C17.4924 23.6276 17.5599 23.7903 17.56 23.96ZM26.52 6.68003C26.6897 6.68019 26.8524 6.74767 26.9724 6.86766C27.0924 6.98765 27.1599 7.15034 27.16 7.32003V11.16C27.1599 11.3297 27.0924 11.4924 26.9724 11.6124C26.8524 11.7324 26.6897 11.7999 26.52 11.8H25.24V6.68003H26.52ZM3.48003 11.8C3.31034 11.7999 3.14765 11.7324 3.02766 11.6124C2.90767 11.4924 2.84019 11.3297 2.84003 11.16V7.32003C2.84019 7.15034 2.90767 6.98765 3.02766 6.86766C3.14765 6.74767 3.31034 6.68019 3.48003 6.68003H4.76003V11.8H3.48003ZM6.04003 13.72V4.76003C6.04019 4.59034 6.10767 4.42765 6.22766 4.30766C6.34765 4.18767 6.51034 4.12019 6.68003 4.12003H23.32C23.4897 4.12019 23.6524 4.18767 23.7724 4.30766C23.8924 4.42765 23.9599 4.59034 23.96 4.76003V13.72C23.9599 13.8897 23.8924 14.0524 23.7724 14.1724C23.6524 14.2924 23.4897 14.3599 23.32 14.36H6.68003C6.51034 14.3599 6.34765 14.2924 6.22766 14.1724C6.10767 14.0524 6.04019 13.8897 6.04003 13.72ZM28.44 27.8C28.4399 27.9697 28.3724 28.1324 28.2524 28.2524C28.1324 28.3724 27.9697 28.4399 27.8 28.44H23.96C23.7903 28.4399 23.6276 28.3724 23.5077 28.2524C23.3877 28.1324 23.3202 27.9697 23.32 27.8V23.96C23.3202 23.7903 23.3877 23.6276 23.5077 23.5077C23.6276 23.3877 23.7903 23.3202 23.96 23.32H27.8C27.9697 23.3202 28.1324 23.3877 28.2524 23.5077C28.3724 23.6276 28.4399 23.7903 28.44 23.96V27.8Z" fill="white"/>
</svg>
