<svg width="32" height="32" viewBox="0 0 32 32" fill="none" xmlns="http://www.w3.org/2000/svg">
<g clip-path="url(#clip0_19_636)">
<path d="M8.11451 31.8867C6.87677 31.8729 5.65068 31.6459 4.49004 31.2157C3.64249 30.9024 2.87567 30.4036 2.24565 29.7559C1.59616 29.1272 1.09668 28.3601 0.784314 27.5118C0.354432 26.3512 0.127743 25.1253 0.114196 23.8877C0.0191373 21.8303 0 21.2132 0 16C0 10.7868 0.0210196 10.1719 0.113255 8.11294C0.128446 6.87585 0.355414 5.6505 0.784314 4.49004C1.09821 3.64235 1.59698 2.87523 2.24439 2.24439C2.87364 1.59549 3.64082 1.09648 4.4891 0.784314C5.64973 0.354076 6.87583 0.127068 8.11357 0.113255C10.1716 0.0191373 10.7896 0 16 0C21.2104 0 21.8281 0.0210196 23.8871 0.113255C25.1245 0.128339 26.3501 0.355308 27.5109 0.784314C28.3588 1.09689 29.1258 1.59573 29.7553 2.24408C30.4038 2.8738 30.9029 3.64097 31.2157 4.4891C31.646 5.64971 31.8731 6.87581 31.8871 8.11357C31.9812 10.1725 32.0003 10.789 32.0003 16.0006C32.0003 21.2122 31.9812 21.8287 31.8871 23.8877C31.8721 25.1252 31.645 26.3511 31.2157 27.5118C30.8909 28.3536 30.3935 29.1181 29.7554 29.756C29.1173 30.3939 28.3528 30.8911 27.5109 31.2157C26.3503 31.646 25.1242 31.8731 23.8864 31.8871C21.8293 31.9812 21.211 32.0003 15.9994 32.0003C10.7878 32.0003 10.1713 31.9821 8.1142 31.8871" fill="url(#paint0_radial_19_636)"/>
<path d="M8.11451 31.8867C6.87677 31.8729 5.65068 31.6459 4.49004 31.2157C3.64249 30.9024 2.87567 30.4036 2.24565 29.7559C1.59616 29.1272 1.09668 28.3601 0.784314 27.5118C0.354432 26.3512 0.127743 25.1253 0.114196 23.8877C0.0191373 21.8303 0 21.2132 0 16C0 10.7868 0.0210196 10.1719 0.113255 8.11294C0.128446 6.87585 0.355414 5.6505 0.784314 4.49004C1.09821 3.64235 1.59698 2.87523 2.24439 2.24439C2.87364 1.59549 3.64082 1.09648 4.4891 0.784314C5.64973 0.354076 6.87583 0.127068 8.11357 0.113255C10.1716 0.0191373 10.7896 0 16 0C21.2104 0 21.8281 0.0210196 23.8871 0.113255C25.1245 0.128339 26.3501 0.355308 27.5109 0.784314C28.3588 1.09689 29.1258 1.59573 29.7553 2.24408C30.4038 2.8738 30.9029 3.64097 31.2157 4.4891C31.646 5.64971 31.8731 6.87581 31.8871 8.11357C31.9812 10.1725 32.0003 10.789 32.0003 16.0006C32.0003 21.2122 31.9812 21.8287 31.8871 23.8877C31.8721 25.1252 31.645 26.3511 31.2157 27.5118C30.8909 28.3536 30.3935 29.1181 29.7554 29.756C29.1173 30.3939 28.3528 30.8911 27.5109 31.2157C26.3503 31.646 25.1242 31.8731 23.8864 31.8871C21.8293 31.9812 21.211 32.0003 15.9994 32.0003C10.7878 32.0003 10.1713 31.9821 8.1142 31.8871" fill="url(#paint1_radial_19_636)"/>
<path d="M12.0705 16.068C12.0706 15.2843 12.303 14.5181 12.7385 13.8665C13.174 13.2149 13.7929 12.707 14.5171 12.4072C15.2412 12.1073 16.038 12.0289 16.8067 12.1819C17.5753 12.3349 18.2814 12.7124 18.8355 13.2667C19.3896 13.8209 19.767 14.5271 19.9198 15.2958C20.0726 16.0645 19.994 16.8613 19.694 17.5853C19.3939 18.3094 18.8859 18.9282 18.2342 19.3635C17.5825 19.7988 16.8163 20.0311 16.0325 20.031C14.9816 20.0309 13.9738 19.6132 13.2308 18.87C12.4878 18.1268 12.0704 17.1189 12.0705 16.068ZM9.92806 16.068C9.92806 17.2754 10.2861 18.4556 10.9568 19.4595C11.6276 20.4634 12.581 21.2458 13.6965 21.7078C14.8119 22.1699 16.0393 22.2908 17.2235 22.0552C18.4076 21.8197 19.4953 21.2383 20.349 20.3845C21.2028 19.5308 21.7842 18.4431 22.0197 17.259C22.2552 16.0748 22.1344 14.8474 21.6723 13.732C21.2103 12.6165 20.4279 11.6631 19.424 10.9924C18.4201 10.3216 17.2399 9.96356 16.0325 9.96356C15.2309 9.96352 14.4371 10.1214 13.6964 10.4282C12.9558 10.7349 12.2828 11.1846 11.7159 11.7514C11.1491 12.3183 10.6994 12.9913 10.3927 13.7319C10.0859 14.4726 9.92802 15.2664 9.92806 16.068ZM20.9521 9.72168C20.9519 10.0038 21.0355 10.2797 21.1921 10.5143C21.3488 10.749 21.5715 10.9319 21.8321 11.04C22.0927 11.1481 22.3795 11.1765 22.6562 11.1215C22.933 11.0666 23.1872 10.9309 23.3868 10.7314C23.5864 10.532 23.7224 10.2779 23.7775 10.0012C23.8327 9.72453 23.8046 9.4377 23.6967 9.17699C23.5889 8.91628 23.4061 8.69341 23.1716 8.53656C22.9371 8.37971 22.6613 8.29593 22.3792 8.2958C22.001 8.29597 21.6384 8.44623 21.3709 8.71358C21.1034 8.98093 20.953 9.34351 20.9527 9.72168M11.2303 25.7449C10.4765 25.7366 9.72969 25.5987 9.02264 25.3371C8.50988 25.1394 8.04419 24.8366 7.65553 24.4481C7.26688 24.0596 6.96387 23.594 6.76602 23.0814C6.5043 22.3744 6.36634 21.6275 6.35818 20.8737C6.30045 19.6207 6.28916 19.2442 6.28916 16.0696C6.28916 12.895 6.30171 12.5195 6.35818 11.2652C6.36732 10.5115 6.50525 9.7648 6.76602 9.05752C6.96364 8.5446 7.26656 8.07879 7.65524 7.69011C8.04391 7.30144 8.50972 6.99852 9.02264 6.8009C9.72966 6.53918 10.4765 6.40122 11.2303 6.39306C12.4834 6.33533 12.8598 6.32404 16.0332 6.32404C19.2065 6.32404 19.5833 6.33627 20.8375 6.39337C21.5913 6.40252 22.338 6.54045 23.0452 6.80121C23.5581 6.99885 24.024 7.30177 24.4126 7.69045C24.8013 8.07912 25.1042 8.54493 25.3019 9.05784C25.5636 9.76486 25.7015 10.5117 25.7097 11.2655C25.7674 12.5204 25.7787 12.895 25.7787 16.0699C25.7787 19.2448 25.7671 19.62 25.7097 20.8743C25.7009 21.6281 25.563 22.3748 25.3019 23.082C25.104 23.5947 24.801 24.0602 24.4123 24.4487C24.0237 24.8372 23.558 25.14 23.0452 25.3377C22.3382 25.5994 21.5914 25.7374 20.8375 25.7455C19.5845 25.8033 19.2081 25.8146 16.0332 25.8146C12.8583 25.8146 12.483 25.8029 11.2303 25.7455M11.1318 4.25251C10.1454 4.2719 9.16946 4.4586 8.24555 4.80466C7.45575 5.11003 6.73847 5.57707 6.13971 6.17584C5.54094 6.7746 5.0739 7.49188 4.76853 8.28168C4.42251 9.20561 4.23582 10.1816 4.21638 11.168C4.15771 12.4354 4.14453 12.8407 4.14453 16.0693C4.14453 19.2978 4.15802 19.7029 4.21638 20.9706C4.23581 21.957 4.42251 22.933 4.76853 23.8569C5.07391 24.6467 5.54096 25.364 6.13973 25.9627C6.73849 26.5615 7.45576 27.0285 8.24555 27.3339C9.16951 27.6798 10.1454 27.8665 11.1318 27.8861C12.3999 27.9438 12.8046 27.9579 16.0332 27.9579C19.2617 27.9579 19.6667 27.9444 20.9345 27.8861C21.9209 27.8666 22.8968 27.6799 23.8208 27.3339C24.6106 27.0285 25.3278 26.5615 25.9266 25.9627C26.5253 25.364 26.9924 24.6467 27.2978 23.8569C27.6443 22.9331 27.831 21.9571 27.8499 20.9706C27.9077 19.7022 27.9208 19.2978 27.9208 16.0693C27.9208 12.8407 27.9074 12.4357 27.8499 11.168C27.8306 10.1816 27.6438 9.20559 27.2978 8.28168C26.9924 7.49203 26.5255 6.77486 25.9269 6.17612C25.3283 5.57737 24.6113 5.11024 23.8217 4.80466C22.8979 4.45838 21.9219 4.27167 20.9354 4.25251C19.6677 4.19447 19.2626 4.18066 16.0347 4.18066C12.8068 4.18066 12.4008 4.19416 11.1324 4.25251" fill="white"/>
</g>
<defs>
<radialGradient id="paint0_radial_19_636" cx="0" cy="0" r="1" gradientUnits="userSpaceOnUse" gradientTransform="translate(2.0709 31.2991) scale(40.6281)">
<stop offset="0.09" stop-color="#FA8F21"/>
<stop offset="0.78" stop-color="#D82D7E"/>
</radialGradient>
<radialGradient id="paint1_radial_19_636" cx="0" cy="0" r="1" gradientUnits="userSpaceOnUse" gradientTransform="translate(22.1653 30.2714) scale(35.7531)">
<stop offset="0.64" stop-color="#8C3AAA" stop-opacity="0"/>
<stop offset="1" stop-color="#8C3AAA"/>
</radialGradient>
<clipPath id="clip0_19_636">
<rect width="32" height="32" fill="white"/>
</clipPath>
</defs>
</svg>
