<svg width="72" height="72" viewBox="0 0 72 72" fill="none" xmlns="http://www.w3.org/2000/svg">
<path d="M36 68.43C33.93 68.43 31.98 67.38 30.6 65.55L26.1 59.55C26.01 59.43 25.65 59.25 25.47 59.25H24C11.49 59.25 3.75 55.86 3.75 39L3.75 24C3.75 10.74 10.74 3.75 24 3.75L42 3.75C43.23 3.75 44.25 4.77 44.25 6C44.25 7.23 43.23 8.25 42 8.25L24 8.25C13.26 8.25 8.25 13.26 8.25 24L8.25 39C8.25 52.56 12.9 54.75 24 54.75H25.5C27.03 54.75 28.77 55.62 29.7 56.85L34.2 62.85C35.25 64.23 36.75 64.23 37.8 62.85L42.3 56.85C43.29 55.53 44.85 54.75 46.5 54.75H48C58.74 54.75 63.75 49.74 63.75 39V30C63.75 28.77 64.77 27.75 66 27.75C67.23 27.75 68.25 28.77 68.25 30V39C68.25 52.26 61.26 59.25 48 59.25H46.5C46.26 59.25 46.05 59.37 45.9 59.55L41.4 65.55C40.02 67.38 38.07 68.43 36 68.43Z" fill="#00013A" fill-opacity="0.5"/>
<path d="M36 36C34.32 36 33 34.65 33 33C33 31.35 34.35 30 36 30C37.65 30 39 31.35 39 33C39 34.65 37.68 36 36 36Z" fill="#00013A" fill-opacity="0.5"/>
<path d="M48 36C46.32 36 45 34.65 45 33C45 31.35 46.35 30 48 30C49.65 30 51 31.35 51 33C51 34.65 49.68 36 48 36Z" fill="#00013A"/>
<path d="M24 36C22.32 36 21 34.65 21 33C21 31.35 22.35 30 24 30C25.65 30 27 31.35 27 33C27 34.65 25.68 36 24 36Z" fill="#040408"/>
<path d="M58.5 23.25C53.13 23.25 48.75 18.87 48.75 13.5C48.75 8.13 53.13 3.75 58.5 3.75C63.87 3.75 68.25 8.13 68.25 13.5C68.25 18.87 63.87 23.25 58.5 23.25ZM58.5 8.25C55.62 8.25 53.25 10.62 53.25 13.5C53.25 16.38 55.62 18.75 58.5 18.75C61.38 18.75 63.75 16.38 63.75 13.5C63.75 10.62 61.38 8.25 58.5 8.25Z" fill="#040408"/>
</svg>
