<svg width="24" height="24" viewBox="0 0 24 24" fill="none" xmlns="http://www.w3.org/2000/svg">
<path d="M12.02 20.8455C9.68999 20.8455 7.35999 20.5091 5.14999 19.8364C4.30999 19.5727 3.66999 19.0364 3.38999 18.3364C3.09999 17.6364 3.19999 16.8636 3.65999 16.1727L4.80999 14.4364C5.04999 14.0727 5.26999 13.3455 5.26999 12.9182V10.2909C5.26999 6.90909 8.29999 4.15454 12.02 4.15454C15.74 4.15454 18.77 6.90909 18.77 10.2909V12.9182C18.77 13.3364 18.99 14.0727 19.23 14.4454L20.37 16.1727C20.8 16.8273 20.88 17.6182 20.59 18.3364C20.3 19.0545 19.67 19.6 18.88 19.8364C16.68 20.5091 14.35 20.8455 12.02 20.8455ZM12.02 5.51818C9.12999 5.51818 6.76999 7.65454 6.76999 10.2909V12.9182C6.76999 13.5818 6.46999 14.5636 6.09999 15.1364L4.94999 16.8727C4.72999 17.2091 4.66999 17.5636 4.79999 17.8636C4.91999 18.1727 5.21999 18.4091 5.62999 18.5364C9.80999 19.8091 14.24 19.8091 18.42 18.5364C18.78 18.4273 19.06 18.1818 19.19 17.8545C19.32 17.5273 19.29 17.1727 19.09 16.8727L17.94 15.1364C17.56 14.5455 17.27 13.5727 17.27 12.9091V10.2909C17.27 7.65454 14.92 5.51818 12.02 5.51818Z" fill="#AFAFB0"/>
<path d="M13.88 5.76361C13.81 5.76361 13.74 5.75452 13.67 5.73633C13.38 5.66361 13.1 5.60906 12.83 5.5727C11.98 5.4727 11.16 5.52724 10.39 5.73633C10.11 5.81815 9.80999 5.73633 9.61999 5.54543C9.42999 5.35452 9.36999 5.08179 9.47999 4.83633C9.88999 3.88179 10.89 3.25452 12.03 3.25452C13.17 3.25452 14.17 3.8727 14.58 4.83633C14.68 5.08179 14.63 5.35452 14.44 5.54543C14.29 5.69088 14.08 5.76361 13.88 5.76361Z" fill="#AFAFB0"/>
<path d="M12.02 22.9181C11.03 22.9181 10.07 22.5545 9.37002 21.9181C8.67002 21.2818 8.27002 20.409 8.27002 19.509H9.77002C9.77002 20.0454 10.01 20.5727 10.43 20.9545C10.85 21.3363 11.43 21.5545 12.02 21.5545C13.26 21.5545 14.27 20.6363 14.27 19.509H15.77C15.77 21.3909 14.09 22.9181 12.02 22.9181Z" fill="#AFAFB0"/>
<ellipse cx="14.4" cy="4.36364" rx="4.8" ry="4.36364" fill="#F2876A"/>
</svg>
