<svg width="115" height="114" viewBox="0 0 115 114" fill="none" xmlns="http://www.w3.org/2000/svg">
<g filter="url(#filter0_d_2092_1798)">
<rect x="17.5" y="13" width="80" height="80" rx="40" fill="white" shape-rendering="crispEdges"/>
<path d="M72.5 41.75H60.8334C60.15 41.75 59.5834 41.1833 59.5834 40.5C59.5834 39.8167 60.15 39.25 60.8334 39.25H72.5C73.1834 39.25 73.75 39.8167 73.75 40.5C73.75 41.1833 73.1834 41.75 72.5 41.75Z" fill="#737373"/>
<path d="M72.5 50.0833H60.8334C60.15 50.0833 59.5834 49.5166 59.5834 48.8333C59.5834 48.15 60.15 47.5833 60.8334 47.5833H72.5C73.1834 47.5833 73.75 48.15 73.75 48.8333C73.75 49.5166 73.1834 50.0833 72.5 50.0833Z" fill="#737373"/>
<path d="M72.5 58.4167H42.5C41.8167 58.4167 41.25 57.85 41.25 57.1667C41.25 56.4834 41.8167 55.9167 42.5 55.9167H72.5C73.1833 55.9167 73.75 56.4834 73.75 57.1667C73.75 57.85 73.1833 58.4167 72.5 58.4167Z" fill="#737373"/>
<path d="M72.5 66.75H42.5C41.8167 66.75 41.25 66.1833 41.25 65.5C41.25 64.8167 41.8167 64.25 42.5 64.25H72.5C73.1833 64.25 73.75 64.8167 73.75 65.5C73.75 66.1833 73.1833 66.75 72.5 66.75Z" fill="#737373"/>
<path d="M50.7 38.8333H45.9667C43.6333 38.8333 42.5 39.9666 42.5 42.3V47.05C42.5 49.3833 43.6333 50.5166 45.9667 50.5166H50.7167C53.05 50.5166 54.1833 49.3833 54.1833 47.05V42.3C54.1667 39.9666 53.0333 38.8333 50.7 38.8333Z" fill="#737373"/>
</g>
<defs>
<filter id="filter0_d_2092_1798" x="0.5" y="0" width="114" height="114" filterUnits="userSpaceOnUse" color-interpolation-filters="sRGB">
<feFlood flood-opacity="0" result="BackgroundImageFix"/>
<feColorMatrix in="SourceAlpha" type="matrix" values="0 0 0 0 0 0 0 0 0 0 0 0 0 0 0 0 0 0 127 0" result="hardAlpha"/>
<feOffset dy="4"/>
<feGaussianBlur stdDeviation="8.5"/>
<feComposite in2="hardAlpha" operator="out"/>
<feColorMatrix type="matrix" values="0 0 0 0 0 0 0 0 0 0 0 0 0 0 0 0 0 0 0.25 0"/>
<feBlend mode="normal" in2="BackgroundImageFix" result="effect1_dropShadow_2092_1798"/>
<feBlend mode="normal" in="SourceGraphic" in2="effect1_dropShadow_2092_1798" result="shape"/>
</filter>
</defs>
</svg>
