<svg width="115" height="114" viewBox="0 0 115 114" fill="none" xmlns="http://www.w3.org/2000/svg">
<g filter="url(#filter0_d_2092_5983)">
<rect x="17.5" y="13" width="80" height="80" rx="40" fill="white" shape-rendering="crispEdges"/>
<path d="M69.3667 48.2C68.7167 48.2 68.2 48.7166 68.2 49.3666V52C68.2 57.9 63.4 62.7 57.5 62.7C51.6 62.7 46.8 57.9 46.8 52V49.35C46.8 48.7 46.2833 48.1833 45.6333 48.1833C44.9833 48.1833 44.4667 48.7 44.4667 49.35V51.9833C44.4667 58.7666 49.6833 64.35 56.3333 64.95V68.5C56.3333 69.15 56.85 69.6666 57.5 69.6666C58.15 69.6666 58.6667 69.15 58.6667 68.5V64.95C65.3 64.3666 70.5333 58.7666 70.5333 51.9833V49.35C70.5167 48.7166 70 48.2 69.3667 48.2Z" fill="#F2876A"/>
<path d="M57.5 36.3333C53.4334 36.3333 50.1334 39.6333 50.1334 43.7V52.2333C50.1334 56.3 53.4334 59.6 57.5 59.6C61.5667 59.6 64.8667 56.3 64.8667 52.2333V43.7C64.8667 39.6333 61.5667 36.3333 57.5 36.3333ZM59.6834 47.9166C59.5667 48.35 59.1834 48.6333 58.75 48.6333C58.6667 48.6333 58.5834 48.6166 58.5 48.6C57.85 48.4166 57.1667 48.4166 56.5167 48.6C55.9834 48.75 55.4667 48.4333 55.3334 47.9166C55.1834 47.4 55.5 46.8666 56.0167 46.7333C57 46.4666 58.0334 46.4666 59.0167 46.7333C59.5167 46.8666 59.8167 47.4 59.6834 47.9166ZM60.5667 44.6833C60.4167 45.0833 60.05 45.3166 59.65 45.3166C59.5334 45.3166 59.4334 45.3 59.3167 45.2666C58.15 44.8333 56.85 44.8333 55.6834 45.2666C55.1834 45.45 54.6167 45.1833 54.4334 44.6833C54.25 44.1833 54.5167 43.6166 55.0167 43.45C56.6167 42.8666 58.3834 42.8666 59.9834 43.45C60.4834 43.6333 60.75 44.1833 60.5667 44.6833Z" fill="#F2876A"/>
</g>
<defs>
<filter id="filter0_d_2092_5983" x="0.5" y="0" width="114" height="114" filterUnits="userSpaceOnUse" color-interpolation-filters="sRGB">
<feFlood flood-opacity="0" result="BackgroundImageFix"/>
<feColorMatrix in="SourceAlpha" type="matrix" values="0 0 0 0 0 0 0 0 0 0 0 0 0 0 0 0 0 0 127 0" result="hardAlpha"/>
<feOffset dy="4"/>
<feGaussianBlur stdDeviation="8.5"/>
<feComposite in2="hardAlpha" operator="out"/>
<feColorMatrix type="matrix" values="0 0 0 0 0 0 0 0 0 0 0 0 0 0 0 0 0 0 0.25 0"/>
<feBlend mode="normal" in2="BackgroundImageFix" result="effect1_dropShadow_2092_5983"/>
<feBlend mode="normal" in="SourceGraphic" in2="effect1_dropShadow_2092_5983" result="shape"/>
</filter>
</defs>
</svg>
