<svg width="115" height="114" viewBox="0 0 115 114" fill="none" xmlns="http://www.w3.org/2000/svg">
<g filter="url(#filter0_d_2092_8347)">
<rect x="17.5" y="13" width="80" height="80" rx="40" fill="white" shape-rendering="crispEdges"/>
<path d="M62.5 70.9166H52.5C43.45 70.9166 39.5833 67.05 39.5833 58V48C39.5833 38.95 43.45 35.0833 52.5 35.0833H55.8333C56.5166 35.0833 57.0833 35.65 57.0833 36.3333C57.0833 37.0166 56.5166 37.5833 55.8333 37.5833H52.5C44.8166 37.5833 42.0833 40.3166 42.0833 48V58C42.0833 65.6833 44.8166 68.4166 52.5 68.4166H62.5C70.1833 68.4166 72.9166 65.6833 72.9166 58V54.6666C72.9166 53.9833 73.4833 53.4166 74.1666 53.4166C74.85 53.4166 75.4166 53.9833 75.4166 54.6666V58C75.4166 67.05 71.55 70.9166 62.5 70.9166Z" fill="#F5C451"/>
<path d="M51.6667 62.4833C50.65 62.4833 49.7167 62.1166 49.0333 61.45C48.2167 60.6333 47.8667 59.45 48.05 58.2L48.7667 53.1833C48.9 52.2166 49.5333 50.9666 50.2167 50.2833L63.35 37.15C66.6667 33.8333 70.0333 33.8333 73.35 37.15C75.1667 38.9666 75.9833 40.8166 75.8167 42.6666C75.6667 44.1666 74.8667 45.6333 73.35 47.1333L60.2167 60.2666C59.5333 60.95 58.2833 61.5833 57.3167 61.7166L52.3 62.4333C52.0833 62.4833 51.8667 62.4833 51.6667 62.4833ZM65.1167 38.9166L51.9833 52.05C51.6667 52.3666 51.3 53.1 51.2333 53.5333L50.5167 58.55C50.45 59.0333 50.55 59.4333 50.8 59.6833C51.05 59.9333 51.45 60.0333 51.9333 59.9666L56.95 59.25C57.3833 59.1833 58.1333 58.8166 58.4333 58.5L71.5667 45.3666C72.65 44.2833 73.2167 43.3166 73.3 42.4166C73.4 41.3333 72.8333 40.1833 71.5667 38.9C68.9 36.2333 67.0667 36.9833 65.1167 38.9166Z" fill="#F5C451"/>
<path d="M70.5833 49.3833C70.4667 49.3833 70.35 49.3667 70.25 49.3333C65.8667 48.1 62.3833 44.6167 61.15 40.2333C60.9667 39.5667 61.35 38.8833 62.0167 38.6833C62.6833 38.5 63.3667 38.8833 63.55 39.55C64.55 43.1 67.3667 45.9167 70.9167 46.9167C71.5833 47.1 71.9667 47.8 71.7833 48.4667C71.6333 49.0333 71.1333 49.3833 70.5833 49.3833Z" fill="#F5C451"/>
</g>
<defs>
<filter id="filter0_d_2092_8347" x="0.5" y="0" width="114" height="114" filterUnits="userSpaceOnUse" color-interpolation-filters="sRGB">
<feFlood flood-opacity="0" result="BackgroundImageFix"/>
<feColorMatrix in="SourceAlpha" type="matrix" values="0 0 0 0 0 0 0 0 0 0 0 0 0 0 0 0 0 0 127 0" result="hardAlpha"/>
<feOffset dy="4"/>
<feGaussianBlur stdDeviation="8.5"/>
<feComposite in2="hardAlpha" operator="out"/>
<feColorMatrix type="matrix" values="0 0 0 0 0 0 0 0 0 0 0 0 0 0 0 0 0 0 0.25 0"/>
<feBlend mode="normal" in2="BackgroundImageFix" result="effect1_dropShadow_2092_8347"/>
<feBlend mode="normal" in="SourceGraphic" in2="effect1_dropShadow_2092_8347" result="shape"/>
</filter>
</defs>
</svg>
