<svg width="32" height="32" viewBox="0 0 32 32" fill="none" xmlns="http://www.w3.org/2000/svg">
<path d="M30.375 24.5374C30.375 27.7481 27.7481 30.375 24.5374 30.375H7.46256C4.25188 30.375 1.625 27.7481 1.625 24.5374V7.46256C1.625 4.25194 4.25188 1.625 7.46256 1.625H24.5374C27.7481 1.625 30.375 4.25194 30.375 7.46256V24.5374Z" fill="#4F4F4F"/>
<path d="M18.1516 14.5664L25.0672 5.94702H23.0641L17.1503 13.3183L11.2359 5.94702H4.63281L13.8484 17.4333L6.93219 26.0533H8.93531L14.8497 18.6814L20.7647 26.0533H27.3678L18.1516 14.5664ZM7.88906 7.50946H10.4859L24.1109 24.4907H21.5141L7.88906 7.50946Z" fill="white"/>
</svg>
